<svg id="Layer_1" data-name="Layer 1" xmlns="http://www.w3.org/2000/svg" xmlns:xlink="http://www.w3.org/1999/xlink" width="321.29mm" height="90.72mm" viewBox="0 0 910.75 257.17"><defs><style>.cls-1{fill:none;}.cls-2{clip-path:url(#clip-path);}.cls-3{fill:#000;}.cls-4{fill:#5fc82b;}.cls-5{fill:#0c48d8;}</style><clipPath id="clip-path" transform="translate(-0.01 0)"><rect class="cls-1" x="-131.38" y="-132.19" width="1173.49" height="521.56"/></clipPath></defs><title>logo_en</title><g class="cls-2"><path class="cls-3" d="M899,182.67v-32h-3.42v25.6l-17-25.6h-3.24v32h3.42V157l17,25.7Zm-38.52-16c0,6.7-.22,8.86-2.25,10.93a7.81,7.81,0,0,1-11.07,0c-2-2.07-2.25-4.23-2.25-10.93s.23-8.87,2.25-10.94a7.83,7.83,0,0,1,11.07,0c2,2.07,2.25,4.23,2.25,10.94m3.42,0c0-6.8,0-10-3-13a11.74,11.74,0,0,0-16.38,0c-3,3-3,6.16-3,13s0,9.94,3,13a11.74,11.74,0,0,0,16.38,0c3-3,3-6.17,3-13m-33.84-16h-3.42v32h3.42Zm-12.78,3.06v-3.06h-22v3.06h9.27v29H808v-29Zm-31.72,18.76h-12l6-16.92Zm7.2,10.22-11.74-32h-2.88l-11.79,32H770l2.57-7.25h14l2.57,7.25ZM759.5,173.4h-3.42c-.86,3.91-3.69,6.48-7.7,6.48a7.7,7.7,0,0,1-5.53-2.25c-2-2.07-2.25-4.28-2.25-11s.22-8.91,2.25-11a7.7,7.7,0,0,1,5.53-2.25c4,0,6.75,2.56,7.61,6.48h3.51c-1.08-6-5.36-9.54-11.12-9.54a11.42,11.42,0,0,0-8.19,3.33c-3,3-3,6.16-3,13s0,9.94,3,13a11.42,11.42,0,0,0,8.19,3.33c5.72,0,10.08-3.51,11.12-9.54m-32.85-1.31V150.63h-3.42v21.19c0,4.86-3.11,8.06-7.79,8.06s-7.74-3.2-7.74-8.06V150.63h-3.42v21.46c0,6.39,4.68,10.85,11.16,10.85s11.21-4.46,11.21-10.85m-36.32-5.8c0,3.91.09,8.68-2.11,11a8.35,8.35,0,0,1-6.3,2.34h-7V153.69h7a8.35,8.35,0,0,1,6.3,2.34c2.2,2.29,2.11,6.34,2.11,10.26m3.42,0c0-4.46.18-9.36-3.15-12.69a11.17,11.17,0,0,0-8.1-3h-11v32h11a11.21,11.21,0,0,0,8.1-3c3.33-3.33,3.15-9,3.15-13.41M661,182.67v-3.06H644.57V168h14V165h-14V153.69H661v-3.06H641.15v32Zm-50.13-23.09c0,3.92-2.66,5.85-6.39,5.85H596V153.69h8.55c3.73,0,6.39,2,6.39,5.89M615,182.67l-7.61-14.54a8.31,8.31,0,0,0,7-8.59c0-5.54-3.92-8.91-9.5-8.91H592.55v32H596V168.45h7.69L611,182.67Zm-36.81-16c0,6.7-.23,8.86-2.25,10.93a7.81,7.81,0,0,1-11.07,0c-2-2.07-2.25-4.23-2.25-10.93s.22-8.87,2.25-10.94a7.83,7.83,0,0,1,11.07,0c2,2.07,2.25,4.23,2.25,10.94m3.42,0c0-6.8,0-10-3-13a11.74,11.74,0,0,0-16.38,0c-3,3-3,6.16-3,13s0,9.94,3,13a11.74,11.74,0,0,0,16.38,0c3-3,3-6.17,3-13m-29.88-13v-3.06H531.8v32h3.42V168.54h14v-3.06h-14V153.69Zm-44.41-3.06h-3.69L496.12,166l-7.56-15.34h-3.69l9.54,18.81v13.23h3.42V169.44ZM478.66,173.4h-3.42c-.86,3.91-3.69,6.48-7.7,6.48a7.7,7.7,0,0,1-5.53-2.25c-2-2.07-2.25-4.28-2.25-11s.22-8.91,2.25-11a7.7,7.7,0,0,1,5.53-2.25c4,0,6.75,2.56,7.61,6.48h3.51c-1.08-6-5.36-9.54-11.12-9.54a11.42,11.42,0,0,0-8.19,3.33c-3,3-3,6.16-3,13s0,9.94,3,13a11.42,11.42,0,0,0,8.19,3.33c5.72,0,10.08-3.51,11.12-9.54m-33.3,9.27v-32h-3.42v25.6l-17-25.6h-3.24v32h3.42V157l17,25.7Zm-34.16,0v-3.06H394.73V168h14V165h-14V153.69H411.2v-3.06H391.31v32ZM380,171v-5.09H368.68v3h7.87v2.43a8.36,8.36,0,0,1-1.8,5.8,8,8,0,0,1-11.61.5c-2-2.07-2.25-4.28-2.25-11s.23-8.87,2.25-10.94a7.76,7.76,0,0,1,5.54-2.29c4,0,6.88,2.47,7.78,6.52h3.42c-.94-5.62-5.08-9.58-11.2-9.58a11.34,11.34,0,0,0-8.19,3.33c-3,3-3,6.16-3,13s0,9.94,3,13a11.74,11.74,0,0,0,16.74-.36c2-2.12,2.74-4.59,2.74-8.28m-36.58,1.48h-12l6-16.92Zm7.2,10.22-11.75-32H336l-11.79,32h3.65l2.56-7.25h14l2.56,7.25Z" transform="translate(-0.01 0)"/><path class="cls-3" d="M770.48,116.67v-3.06H754.1v-29h-3.42v32Zm-35.55-10.22H723l6-16.92Zm7.2,10.22-11.75-32H727.5l-11.79,32h3.65l2.56-7.25h14l2.56,7.25Zm-35,0v-32h-3.42v25.6l-17-25.6h-3.24v32h3.42V91l17,25.7Zm-38.07-16c0,6.7-.22,8.86-2.25,10.93a7.81,7.81,0,0,1-11.07,0c-2-2.07-2.25-4.23-2.25-10.93s.23-8.87,2.25-10.94a7.83,7.83,0,0,1,11.07,0c2,2.07,2.25,4.23,2.25,10.94m3.42,0c0-6.8,0-10-3-13a11.74,11.74,0,0,0-16.38,0c-3,3-3,6.16-3,13s0,9.94,3,13a11.74,11.74,0,0,0,16.38,0c3-3,3-6.17,3-13m-33.84-16h-3.42v32h3.42Zm-12.78,3.06V84.63h-22v3.06h9.27v29h3.42v-29Zm-31.72,18.76h-12l6-16.92Zm7.2,10.22-11.74-32h-2.88l-11.79,32h3.64l2.57-7.25h14l2.57,7.25Zm-35,0v-32H563v25.6l-17-25.6h-3.24v32h3.42V91l17,25.7Zm-52,0v-32H511V99H495.76V84.63h-3.42v32h3.42V102H511v14.63Zm-32.58-8.82a8,8,0,0,0-2.7-6.35c-1.35-1.17-2.84-1.8-5.85-2.25l-3.51-.54A9.24,9.24,0,0,1,465.43,97,4.64,4.64,0,0,1,464,93.27c0-3.56,2.47-5.94,6.75-5.94a10.1,10.1,0,0,1,7.47,2.74l2.2-2.2a12.83,12.83,0,0,0-9.54-3.51c-6.34,0-10.26,3.6-10.26,9a7.58,7.58,0,0,0,2.43,6,11.77,11.77,0,0,0,5.9,2.43l3.73.58c2.34.36,3.15.63,4.19,1.53a5.18,5.18,0,0,1,1.53,4c0,3.73-2.88,5.94-7.56,5.94a11,11,0,0,1-8.73-3.51l-2.34,2.34c3,3,6.16,4.23,11,4.23,6.66,0,11.07-3.47,11.07-9.09M449.86,84.63h-3.42v32h3.42Zm-16.07,32v-32h-3.42v25.6l-17-25.6h-3.24v32h3.42V91l17,25.7Zm-36.31,0v-32h-3.42v25.6l-17-25.6h-3.24v32h3.42V91l17,25.7Zm-36.32-32h-3.42v32h3.42Zm-13,3.06V84.63H328.27v32h3.42V102.54h14V99.48h-14V87.69Z" transform="translate(-0.01 0)"/><path class="cls-4" d="M74.68,74C94.87,33.35,125.28-2.2,105.1.11A100.48,100.48,0,0,0,72.19,10.25,117.84,117.84,0,0,1,86.55,4.38S44.67,21.61,29,70.8A128.59,128.59,0,0,1,49.75,54.62c34.74-22-.61,22-8.37,77.65,7-9,15.8-23,25.84-38.29a111.36,111.36,0,0,1,7.46-20m109.56-5.64c-8.1-2.32-16.52,2.4-25,11.45-3,7.3-6.08,15.53-9.29,24.87-13.52,39.25-30.37,112-55,103a29.94,29.94,0,0,1-6.12-3c-3.69,6.11-7.11,10.92-10.21,13.87a32.61,32.61,0,0,1-9.28,6.34C116,270.81,202,268.86,197.1,211.77c-6-69.91-5.39-98.1-4.85-140.17a30.49,30.49,0,0,0-8-3.22M263,127.32a137.14,137.14,0,0,0-3.4-29.25c-8.12-35.61-39.41-77.59-57-74.85-3.71.58-10.19,1.8-19,12.2,3.17,3.94,6.41,8.3,9.68,12.91,6.45-64.24,45.68,15.84,56.06,84a11.77,11.77,0,0,0,5.61,2.62c6.86,1.43,8-6.29,8.09-7.6" transform="translate(-0.01 0)"/><path class="cls-5" d="M166,18.09C106.46-18.14,30.74,185.48,25.08,134.28,10.45,35.62,86.55,4.38,86.55,4.38,37.61,20.56-.84,70.33,0,127.79c.88,57.75,33.1,90.87,44.72,96.61,14.71,7.28,27.56.37,33.9-5.86C103,195.35,147.1,57.74,184.24,68.4c41.56,10,36,97.6,38.06,114.4,4,33.48,13.37,29.48,26.42,4.88,8.75-16.49,14.43-35.49,14.3-60.55,0,0-.62,9.38-8.11,7.81-6.73-1.4-9.25-5.25-26.19-31.74C211,75.46,183.86,29,166,18.12" transform="translate(-0.01 0)"/></g></svg>