<?xml version="1.0" encoding="UTF-8"?>
<svg xmlns="http://www.w3.org/2000/svg" width="50" height="50" viewBox="0 0 50 50" fill="none">
  <path d="M0.0914714 21.9791C0.195638 21.4583 0.247721 20.9114 0.430013 20.4166C0.807617 19.414 1.27637 18.4504 1.69303 17.4739C1.78418 17.2655 1.8623 17.0182 1.83626 16.8098C1.47168 14.3879 2.53939 12.3567 4.79199 11.3541C5.09147 11.2239 5.07845 11.0025 5.11751 10.7812C5.46908 8.05982 7.16178 6.01555 9.67481 5.32545C10.7816 5.01295 11.8883 5.01295 12.9951 5.33847C13.2295 5.40357 13.3857 5.42961 13.5811 5.19524C16.667 1.45826 21.2764 0.716071 25.3519 3.26815C25.404 3.30722 25.4691 3.32024 25.5342 3.3593C25.6383 3.26815 25.7295 3.19003 25.8206 3.09888C28.1253 1.00253 31.5759 1.40618 33.3597 3.97128C33.4639 4.12753 33.6982 4.27076 33.8805 4.27076C39.2581 4.20565 43.7113 7.77336 44.805 13.0598C44.8701 13.3853 45.0003 13.5025 45.3128 13.5807C48.1644 14.2187 49.8441 17.2135 48.9066 19.9999C48.8024 20.3124 48.8154 20.5338 48.9717 20.8072C50.5342 23.5286 50.2868 26.94 48.3988 29.44C48.2165 29.6744 48.0732 29.9609 47.9951 30.2473C47.2269 33.1119 45.5863 35.3254 43.0602 36.8879C42.9691 36.953 42.8649 37.0051 42.7347 37.0963C42.904 37.3437 43.0732 37.578 43.2295 37.8124C44.4925 39.7265 45.1175 41.8619 45.4821 44.0885C45.6123 44.8697 45.7035 45.664 45.7686 46.4583C45.8597 47.6692 45.1566 48.4114 43.9587 48.4244C43.1904 48.4244 42.4352 48.4374 41.667 48.4244C40.7555 48.4114 40.1305 47.9426 39.9352 47.0702C39.4404 44.8176 37.9691 43.4895 35.9118 42.6692C34.7139 42.1874 33.4899 41.7317 32.3441 41.1327C30.3389 40.1041 29.3102 38.4114 29.2061 36.1458C29.2061 36.0676 29.18 35.9895 29.18 35.9635C28.1514 35.7291 27.1618 35.4947 26.1592 35.2994C26.029 35.2734 25.8467 35.4166 25.7295 35.5338C22.891 38.0728 18.7373 38.2812 15.7295 36.0025C15.2217 35.6119 14.7529 35.1432 14.3363 34.6484C13.9326 34.1666 13.6201 33.6067 13.3076 33.151C12.1618 33.2291 11.042 33.3984 9.9222 33.3723C5.07845 33.2551 0.768555 29.2968 0.169596 24.4661C0.143555 24.3098 0.104492 24.1536 0.0654297 23.9973C0.0914714 23.3333 0.0914714 22.6562 0.0914714 21.9791ZM44.2061 46.7708C44.0238 45.5598 43.8805 44.401 43.6462 43.2551C43.2686 41.4062 42.6305 39.6614 41.4456 38.151C41.2373 37.8905 41.055 37.7864 40.7165 37.9166C40.3389 38.0598 39.9352 38.1249 39.5446 38.2161C38.9066 38.3463 38.4769 38.1249 38.3597 37.6041C38.2425 37.0963 38.555 36.7187 39.2061 36.5885C40.5602 36.315 41.8102 35.8072 42.93 34.9739C44.0628 34.1406 44.9743 33.0989 45.6644 31.7447C45.417 31.8359 45.2738 31.901 45.1305 31.953C42.279 33.0728 39.6227 32.6822 37.1878 30.8333C36.9014 30.6119 36.693 30.5468 36.3285 30.664C34.4274 31.3411 32.279 30.4687 31.3805 28.7239C31.042 28.0728 31.3675 27.4088 32.0316 27.4088C32.4352 27.4088 32.6696 27.6432 32.8649 27.9817C33.4118 28.8801 34.2191 29.3359 35.2738 29.2187C37.0055 29.0234 37.93 27.3958 37.305 25.7161C37.0837 25.1301 37.2269 24.6744 37.6956 24.4921C38.1774 24.2968 38.6071 24.5182 38.8415 25.0911C39.4014 26.4713 39.2842 27.7864 38.4769 29.0494C38.3857 29.1926 38.2816 29.3359 38.1904 29.4791C40.3519 31.4322 43.8675 31.3671 46.1722 29.3749C48.529 27.3437 48.8415 23.9973 47.6696 22.0182C47.266 22.2916 46.8753 22.5781 46.4587 22.8254C45.9248 23.1379 45.443 23.0208 45.1956 22.578C44.9482 22.1223 45.1175 21.6796 45.6514 21.3671C47.4222 20.3645 48.0081 18.3463 47.0186 16.6926C46.029 15.039 43.9587 14.5833 42.266 15.664C41.7321 16.0025 41.2764 15.9504 40.9769 15.5338C40.6904 15.1171 40.7946 14.6093 41.3285 14.2968C41.9014 13.9713 42.5134 13.7109 43.1253 13.4114C43.0212 9.68742 37.7607 5.2994 34.1279 5.97649C34.141 6.24993 34.18 6.52336 34.167 6.7968C34.1279 7.25253 33.7503 7.59107 33.3206 7.57805C32.904 7.56503 32.5785 7.23951 32.5264 6.7968C32.5133 6.70565 32.5133 6.60149 32.5133 6.51034C32.3441 4.84368 31.1462 3.61972 29.5055 3.4244C28.0472 3.25513 26.5758 4.17961 26.0811 5.62493C25.9508 5.98951 25.9248 6.38013 25.8727 6.77076C25.7946 7.27857 25.4561 7.60409 25.0133 7.59107C24.5446 7.56503 24.193 7.18742 24.2321 6.65357C24.2712 6.15878 24.3363 5.65097 24.4925 5.1692C24.6097 4.81763 24.5186 4.6744 24.2451 4.50513C22.6436 3.54159 20.9378 3.16399 19.1019 3.55461C16.3285 4.16659 14.5186 5.84628 13.6592 8.56763C13.4769 9.16659 13.0732 9.41399 12.5785 9.25774C12.1097 9.11451 11.9144 8.6718 12.0837 8.1119C12.2008 7.72128 12.3441 7.33065 12.4743 6.94003C9.70085 6.05461 6.78418 8.46347 6.86231 10.8853C6.87533 10.8984 6.88835 10.9114 6.90137 10.9114C6.99251 10.9244 7.09668 10.9244 7.18783 10.9374C8.63314 11.0937 9.81803 11.7187 10.7035 12.8905C11.1201 13.4374 10.8467 14.1536 10.2087 14.2447C9.80501 14.3098 9.53158 14.0885 9.2972 13.802C8.68522 13.0598 7.89095 12.6562 6.94043 12.6041C5.44303 12.5129 4.10189 13.4244 3.6071 14.8176C3.09928 16.2629 3.6071 17.7864 4.88314 18.6848C5.45606 19.1015 5.59928 19.5442 5.27376 19.9869C4.97428 20.4036 4.47949 20.4426 3.94564 20.039C3.52897 19.7265 3.15137 19.3489 2.76074 18.9973C0.963867 22.0963 1.64095 26.4322 4.27116 29.1406C6.87533 31.7968 10.7295 32.1874 12.7217 31.3801C12.6566 30.677 12.5915 29.9869 12.5264 29.2708C12.3831 29.2447 12.2269 29.2317 12.0576 29.2057C10.3649 28.9452 9.20606 28.0077 8.63314 26.3932C8.48991 25.9765 8.42481 25.5077 8.41178 25.052C8.39876 24.5963 8.77637 24.2447 9.20605 24.2187C9.63574 24.1926 9.98731 24.5182 10.0394 24.9999C10.0524 25.1301 10.0654 25.2603 10.0785 25.3905C10.2477 26.6275 11.1592 27.4869 12.3831 27.5781C12.6826 27.6041 12.8389 27.526 12.9561 27.2135C13.1514 26.6666 13.3988 26.1327 13.6722 25.6249C13.9066 25.1952 14.3623 25.0911 14.766 25.2864C15.1826 25.4947 15.3258 25.9635 15.1175 26.4192C15.0654 26.5364 14.9873 26.6536 14.9352 26.7577C14.2581 28.0728 14.0238 29.4661 14.3623 30.9244C14.9222 33.3463 16.3805 34.9869 18.7764 35.664C21.1722 36.3411 23.2686 35.7031 25.0003 33.9322C25.43 33.4895 25.8206 33.4244 26.3936 33.6067C27.1488 33.8541 27.917 34.0364 28.6982 34.1666C30.1696 34.401 31.6149 34.2187 33.0342 33.8411C33.2555 33.776 33.5811 33.7239 33.7373 33.8411C33.9717 34.0103 34.2061 34.3098 34.2581 34.5833C34.3232 34.9869 34.0498 35.2994 33.6331 35.3905C32.7347 35.5989 31.8363 35.7812 30.8857 35.9765C30.8857 36.0937 30.8988 36.2499 30.9118 36.4062C31.042 37.8645 31.7842 38.9583 33.0602 39.6223C34.0238 40.1171 35.0264 40.5598 36.042 40.9244C38.7764 41.901 40.7816 43.5807 41.5238 46.5103C41.5498 46.6145 41.7061 46.7447 41.8102 46.7577C42.5785 46.7838 43.3467 46.7708 44.2061 46.7708Z" fill="white"></path>
  <path d="M21.6667 14.6356C21.4323 15.8335 21.1849 17.0184 20.9506 18.2163C20.7813 19.0887 20.586 19.258 19.7266 19.258C17.9427 19.258 16.1589 19.258 14.362 19.258C13.711 19.258 13.3464 18.8674 13.4245 18.2944C13.4896 17.8517 13.8282 17.5913 14.3881 17.5913C15.8724 17.5913 17.3438 17.5913 18.8282 17.5913C19.0105 17.5913 19.1797 17.5913 19.375 17.5913C19.7396 15.7554 20.1042 13.9585 20.4688 12.1616C20.599 11.5106 20.7292 10.8595 20.8594 10.1955C20.9896 9.55746 21.25 9.271 21.7318 9.271C22.2006 9.271 22.474 9.54443 22.5912 10.1564C23.3203 13.7892 24.0365 17.422 24.7657 21.0548C24.8698 21.5757 24.974 22.1095 25.1042 22.7476C25.1823 22.5002 25.2214 22.37 25.2604 22.2267C26.0026 19.0496 26.7448 15.8726 27.5131 12.6955C27.5912 12.396 27.7735 12.0444 28.0209 11.8621C28.4896 11.5366 29.0495 11.8491 29.2318 12.4871C29.6745 13.9976 30.1172 15.508 30.5078 17.0314C30.625 17.4481 30.7813 17.6304 31.224 17.5783C31.6276 17.5392 32.0313 17.5653 32.4349 17.5783C33.0078 17.5913 33.3594 17.9299 33.3464 18.4377C33.3334 18.9325 33.0078 19.2319 32.4479 19.245C31.6667 19.258 30.8854 19.245 30.1042 19.245C29.6354 19.245 29.349 19.0236 29.2188 18.5679C28.9844 17.7606 28.75 16.9533 28.4245 16.12C28.3724 16.2762 28.3203 16.4194 28.2813 16.5757C27.487 19.9481 26.7058 23.3075 25.9115 26.6798C25.7683 27.2788 25.4948 27.5653 25.0391 27.5783C24.5703 27.5783 24.2839 27.2788 24.1667 26.6408C23.3855 22.7085 22.6042 18.7632 21.8099 14.8309C21.7969 14.7528 21.7578 14.6877 21.7318 14.6095C21.7188 14.6356 21.6927 14.6356 21.6667 14.6356Z" fill="white"></path>
  <path d="M36.6934 19.2448C36.4069 19.2448 36.1074 19.2578 35.821 19.2448C35.3652 19.2187 35.0527 18.8932 35.0397 18.4635C35.0137 18.0469 35.3001 17.6432 35.7428 17.6172C36.3678 17.5781 37.0059 17.5781 37.6309 17.6172C38.0736 17.6432 38.36 18.0339 38.334 18.4635C38.321 18.9062 37.9955 19.2318 37.5137 19.2578C37.2533 19.2708 36.9668 19.2578 36.6934 19.2448Z" fill="white"></path>
</svg>
