<?xml version="1.0" encoding="UTF-8"?>
<svg xmlns="http://www.w3.org/2000/svg" width="50" height="50" viewBox="0 0 50 50" fill="none">
  <path d="M30.5074 0.104004C31.2496 0.324898 32.0309 0.454835 32.721 0.792673C35.26 2.04007 36.6663 4.13207 36.7053 6.95172C36.7835 12.1882 36.7444 17.4377 36.7184 22.6872C36.7053 24.7662 35.247 26.3124 33.1897 26.5463C33.0855 26.5593 32.9684 26.5853 32.8121 26.6113C32.8121 26.8192 32.8121 27.0011 32.8121 27.196C32.8121 29.9507 32.8121 32.7184 32.8121 35.473C32.8121 35.603 32.8121 35.7329 32.8121 35.8628C32.7861 36.3826 32.4996 36.7204 32.0699 36.7204C31.6402 36.7204 31.3538 36.3956 31.3538 35.8628C31.3538 32.9912 31.3538 30.1196 31.3538 27.248C31.3538 27.0401 31.3538 26.8322 31.3538 26.5983C30.7809 26.5983 30.26 26.5983 29.7262 26.5983C29.7262 30.5484 29.7262 34.4595 29.7262 38.4226C32.096 38.1887 33.6454 39.2152 34.3355 41.4761C34.9605 41.5151 35.5595 41.5151 36.1454 41.5931C37.148 41.723 38.0335 42.1648 38.8017 42.8275C39.4658 43.3992 40.1168 43.9839 40.7678 44.5687C41.3798 45.1144 42.0829 45.3093 42.8902 45.2054C43.4241 45.1274 43.9449 45.0494 44.4788 44.9715C46.0022 44.7246 47.2522 45.4912 47.5777 46.8686C47.9033 48.2589 47.148 49.4543 45.6376 49.9221C45.5986 49.9351 45.5595 49.9741 45.5204 50.0001C40.1949 50.0001 34.8694 50.0001 29.5309 50.0001C29.1923 49.8961 28.8408 49.8051 28.5152 49.6752C26.0543 48.6747 25.1298 45.6991 26.5621 43.4512C26.6663 43.2823 26.7184 43.0354 26.6923 42.8275C26.5361 41.4372 26.9527 40.2677 27.9814 39.3192C28.1116 39.2022 28.2158 38.9684 28.2158 38.7864C28.2288 34.8623 28.2158 30.9252 28.2288 27.0011C28.2288 26.6633 28.1116 26.5723 27.7861 26.5333C25.859 26.3384 24.3876 24.8701 24.3355 22.934C24.2704 20.2833 24.3095 17.6456 24.3095 14.9949C24.3095 14.5011 24.609 14.1762 25.0256 14.1762C25.4553 14.1633 25.7678 14.5011 25.7678 15.0208C25.7809 16.866 25.7678 18.7241 25.7678 20.5692C25.7678 20.7641 25.7678 20.946 25.7678 21.1669C28.9579 21.1669 32.0699 21.1669 35.247 21.1669C35.247 20.959 35.247 20.7771 35.247 20.6082C35.247 16.1903 35.247 11.7724 35.247 7.35452C35.247 3.93716 32.8642 1.5723 29.4527 1.5723C20.898 1.5723 12.3303 1.5723 3.77565 1.5723C3.65846 1.5723 3.55429 1.5723 3.43711 1.5723C3.02044 1.59829 2.64283 1.53332 2.47356 1.07854C2.30429 0.623754 2.57773 0.350885 2.90325 0.104004C12.122 0.104004 21.3147 0.104004 30.5074 0.104004ZM27.5387 44.7636C26.8746 46.6737 28.1767 48.5188 30.1949 48.5318C35.0777 48.5448 39.9605 48.5318 44.8564 48.5318C44.9475 48.5318 45.0517 48.5318 45.1428 48.5188C45.7678 48.4538 46.2236 47.96 46.1845 47.3883C46.1454 46.7646 45.6637 46.3358 44.9866 46.3878C44.5829 46.4138 44.1793 46.4658 43.7887 46.5567C42.0699 46.9335 40.5855 46.5567 39.3355 45.2703C38.971 44.8935 38.5413 44.5947 38.1767 44.2308C37.096 43.1653 35.8069 42.8275 34.3355 43.0094C33.6715 45.959 30.0126 47.2584 27.5387 44.7636ZM25.8329 22.6742C25.7548 23.8436 26.6272 24.9221 27.7861 25.039C28.4892 25.117 29.2053 25.091 29.9215 25.091C31.0022 25.091 32.096 25.117 33.1767 25.039C34.3876 24.9481 35.3512 23.7656 35.1819 22.6612C32.0829 22.6742 28.971 22.6742 25.8329 22.6742ZM30.5074 39.8519C29.1793 39.8519 28.1246 40.9044 28.1246 42.2298C28.1246 43.5422 29.1793 44.6206 30.4944 44.6336C31.8095 44.6466 32.9293 43.5422 32.9163 42.2168C32.9033 40.9044 31.8355 39.8519 30.5074 39.8519Z" fill="white"></path>
  <path d="M5.46815 16.3981C4.93429 16.3981 4.15305 16.3981 3.38482 16.3981C2.78586 16.3981 2.4343 16.1123 2.46034 15.6445C2.47336 15.2027 2.8119 14.9298 3.38482 14.9298C6.5619 14.9428 9.71294 14.7349 12.851 14.3191C16.9135 13.7734 20.9109 12.9288 24.6609 11.2006C25.2208 10.9407 25.7546 10.6419 26.3015 10.356C26.7963 10.0962 27.239 10.1741 27.4473 10.5639C27.6556 10.9537 27.4864 11.3695 27.0046 11.6424C24.6869 12.9548 22.1999 13.8514 19.6348 14.514C15.6765 15.5275 11.64 16.0473 7.5645 16.2812C6.9395 16.3202 6.32752 16.3462 5.46815 16.3981Z" fill="white"></path>
  <path d="M30.5202 42.9574C30.1166 42.9574 29.7911 42.6065 29.8041 42.2037C29.8171 41.8009 30.1296 41.5021 30.5202 41.5151C30.9369 41.5151 31.2624 41.8529 31.2494 42.2557C31.2364 42.6325 30.8978 42.9704 30.5202 42.9574Z" fill="white"></path>
</svg>
