<svg xmlns="http://www.w3.org/2000/svg" width="193" height="66" viewBox="0 0 193 66" fill="none"><path fill-rule="evenodd" clip-rule="evenodd" d="M66.7131 14.0571C64.3096 8.34038 59.8054 5.5799 54.2226 5.24707C49.9076 5.34496 46.5201 6.75457 43.7381 9.63253C39.7198 13.7701 35.6831 17.9267 31.6644 22.0836C31.6138 22.1359 31.5631 22.1883 31.5125 22.2407C26.4534 27.4743 21.3943 32.7142 16.3352 37.9567C15.5401 38.7806 14.7451 39.6046 13.95 40.4286L16.2589 42.8171C21.4063 48.1029 26.5355 53.4286 31.6639 58.7535L33.9602 61.129C34.2781 60.7984 34.596 60.4678 34.914 60.1371C35.4202 59.6108 35.9264 59.0843 36.433 58.5578C40.8902 53.937 45.3521 49.3163 49.814 44.6955C54.2753 40.0755 58.7365 35.4555 63.193 30.8354C63.2852 30.7401 63.3789 30.6464 63.4723 30.5529C63.7052 30.32 63.9367 30.0884 64.1393 29.8369C68.0946 25.1187 69.1166 19.7739 66.7131 14.0571ZM58.2914 9.14308C62.7767 11.1204 64.9341 14.899 65.1802 19.3432C65.1234 23.1021 64.0636 25.8626 61.9061 28.1532C58.7646 31.4423 55.6041 34.6923 52.4247 37.9422C52.2922 38.0793 51.7812 38.0793 51.6488 37.9422C46.539 32.6953 41.4482 27.4289 36.3762 22.1428C36.2438 22.0058 36.2248 21.5163 36.3573 21.3793C37.1563 20.543 37.9517 19.7018 38.7474 18.8603C41.137 16.3332 43.5292 13.8033 46.028 11.3945C49.5859 7.94882 53.8251 7.16571 58.2914 9.14308ZM34.0296 56.8618C34.011 56.8786 33.992 56.8958 33.9728 56.9132C33.9184 56.864 33.864 56.8198 33.8114 56.7771C33.7175 56.7008 33.6292 56.6291 33.5564 56.5412C28.4845 51.3139 23.4315 46.0866 18.3974 40.8397C18.246 40.7027 18.246 40.1545 18.3785 40.0175C23.4315 34.751 28.5034 29.5041 33.5943 24.2768C33.7267 24.1202 34.2566 24.1398 34.3891 24.2768C39.461 29.4845 44.514 34.7118 49.5481 39.9587C49.6995 40.1154 49.6995 40.644 49.567 40.781C44.514 46.0475 39.4421 51.2943 34.3702 56.5412C34.2711 56.6438 34.1576 56.7463 34.0296 56.8618Z" fill="#F6F4F3"></path><path fill-rule="evenodd" clip-rule="evenodd" d="M1.28691 14.0571C3.69039 8.34038 8.19455 5.5799 13.7774 5.24707C18.0924 5.34496 21.4799 6.75457 24.2619 9.63253C28.3308 13.8222 32.4186 18.0315 36.4875 22.2407C42.3417 28.2968 48.1958 34.3612 54.05 40.4286L51.7411 42.8171C46.5937 48.1029 41.4645 53.4286 36.3361 58.7535L34.0398 61.129C33.7219 60.7984 33.404 60.4678 33.086 60.1371C32.5798 59.6108 32.0736 59.0843 31.567 58.5578C27.1098 53.937 22.6479 49.3163 18.186 44.6955C13.7247 40.0755 9.26348 35.4555 4.80697 30.8354C4.71483 30.7401 4.62114 30.6464 4.52768 30.5529C4.29478 30.32 4.0633 30.0884 3.86072 29.8369C-0.0946191 25.1187 -1.11657 19.7739 1.28691 14.0571ZM9.70855 9.14308C5.22332 11.1204 3.06586 14.899 2.81984 19.3432C2.87661 23.1021 3.93641 25.8626 6.09387 28.1532C9.23543 31.4423 12.3959 34.6923 15.5753 37.9422C15.7029 38.0742 16.1818 38.0791 16.3352 37.9567C16.341 37.9521 16.3464 37.9472 16.3512 37.9422C21.461 32.6953 26.5518 27.4289 31.6238 22.1428C31.6388 22.1273 31.6524 22.1072 31.6644 22.0836C31.7586 21.8992 31.7601 21.5008 31.6427 21.3793C30.8437 20.543 30.0483 19.7018 29.2526 18.8603C26.863 16.3332 24.4708 13.8033 21.972 11.3945C18.4141 7.94882 14.1749 7.16571 9.70855 9.14308ZM33.9704 56.8618C33.989 56.8786 34.008 56.8958 34.0272 56.9132C34.0816 56.864 34.136 56.8198 34.1886 56.7771C34.2825 56.7008 34.3708 56.6291 34.4436 56.5412C39.5155 51.3139 44.5685 46.0866 49.6026 40.8397C49.7539 40.7027 49.754 40.1545 49.6215 40.0175C44.5685 34.751 39.4966 29.5041 34.4057 24.2768C34.2733 24.1202 33.7434 24.1398 33.6109 24.2768C28.539 29.4845 23.486 34.7118 18.4519 39.9587C18.3005 40.1154 18.3005 40.644 18.433 40.781C23.486 46.0475 28.5579 51.2943 33.6298 56.5412C33.7289 56.6438 33.8424 56.7463 33.9704 56.8618Z" fill="#F6F4F3"></path><path d="M31.7018 35.6907C31.7208 36.7479 30.5096 38.0597 29.639 38.0597C28.7495 38.0597 28.2764 37.5506 28.2196 36.6696C28.1629 35.8082 29.5255 34.3986 30.3582 34.4573C31.1719 34.5161 31.6261 34.9859 31.7018 35.6907Z" fill="#F6F4F3"></path><path d="M36.2438 44.9706C36.2249 44.0896 37.4361 42.7779 38.2877 42.7583C39.1772 42.7388 39.6503 43.2674 39.726 44.1288C39.8017 44.9902 38.4391 46.3803 37.5875 46.3607C36.8683 46.3607 36.2627 45.7342 36.2438 44.9706Z" fill="#F6F4F3"></path><path d="M33.0072 50.9811C32.2881 50.942 31.796 50.4525 31.7582 49.5715C31.7014 48.7493 33.0262 47.3592 33.8399 47.3788C34.6916 47.418 35.2025 47.8878 35.2404 48.7884C35.2593 49.6694 34.0292 50.9616 33.0072 50.9811Z" fill="#F6F4F3"></path><path d="M25.9667 39.0973C26.7048 39.1365 27.1779 39.6259 27.2347 40.5069C27.2726 41.3488 25.9667 42.7388 25.153 42.6996C24.3203 42.6605 23.7904 42.1906 23.7714 41.2705C23.7336 40.3894 24.9637 39.1169 25.9667 39.0973Z" fill="#F6F4F3"></path><path d="M44.172 39.4106C44.1531 40.4482 42.923 41.7403 42.0713 41.7207C41.1819 41.7012 40.7276 41.153 40.6898 40.272C40.6519 39.4301 41.9956 38.0597 42.8094 38.1184C43.661 38.1576 44.1531 38.6666 44.172 39.4106Z" fill="#F6F4F3"></path><path d="M32.7051 32.1472C32.724 31.1095 33.9541 29.8174 34.8058 29.837C35.6952 29.8566 36.1494 30.3852 36.1873 31.2662C36.2251 32.108 34.9004 33.4589 34.0866 33.4393C33.2161 33.4002 32.7429 32.8911 32.7051 32.1472Z" fill="#F6F4F3"></path><path d="M40.1794 35.26C40.1794 36.2781 38.8736 37.6486 38.0409 37.5898C37.1893 37.5311 36.6972 37.0025 36.6783 36.1215C36.6594 35.2796 37.9652 33.9679 38.779 33.9875C39.6684 34.0071 40.1037 34.5357 40.1794 35.26Z" fill="#F6F4F3"></path><path d="M31.2472 44.7162C31.2093 45.6168 29.8656 46.9285 29.0329 46.8306C28.1813 46.7327 27.7271 46.2041 27.746 45.3231C27.765 44.4617 29.1086 43.1891 29.9035 43.2283C30.6605 43.2478 31.285 43.9526 31.2472 44.7162Z" fill="#F6F4F3"></path><path d="M33.4628 42.1906C32.7247 42.1123 32.2326 41.6424 32.2326 40.7418C32.2326 39.8608 33.5006 38.5687 34.3522 38.6078C35.2228 38.647 35.6959 39.156 35.6959 40.0566C35.6959 40.9572 34.4279 42.2102 33.4628 42.1906Z" fill="#F6F4F3"></path><path d="M31.5125 22.2407C31.5631 22.1883 31.6138 22.1359 31.6644 22.0836C31.7586 21.8992 31.7601 21.5008 31.6427 21.3793C30.8437 20.543 30.0483 19.7018 29.2526 18.8603C26.863 16.3332 24.4708 13.8033 21.972 11.3945C18.4141 7.94882 14.1749 7.16571 9.70855 9.14308C5.22332 11.1204 3.06586 14.899 2.81984 19.3432C2.87661 23.1021 3.93641 25.8626 6.09387 28.1532C9.23543 31.4423 12.3959 34.6923 15.5753 37.9422C15.7029 38.0742 16.1818 38.0791 16.3352 37.9567C21.3943 32.7142 26.4534 27.4743 31.5125 22.2407Z" fill="#F6F4F3"></path><path d="M84.564 29.0225L87.386 28.6825V7.53447L84.734 7.09248V5.42648H89.188C89.8227 5.42648 90.684 5.38114 91.772 5.29048C92.9053 5.19981 93.7893 5.15447 94.424 5.15447C97.756 5.15447 100.125 5.69848 101.53 6.78648C102.958 7.85181 103.672 9.54048 103.672 11.8525C103.672 13.4618 103.219 14.9351 102.312 16.2725C101.428 17.6098 100.204 18.5165 98.64 18.9925C99.3653 19.3778 100.034 20.0465 100.646 20.9985C101.281 21.9278 102.051 23.2311 102.958 24.9085C103.661 26.1778 104.193 27.1071 104.556 27.6965C104.941 28.2858 105.304 28.6145 105.644 28.6825L106.97 29.0225V30.6885H102.278C101.915 30.6885 101.507 30.3031 101.054 29.5325C100.601 28.7391 100 27.5265 99.252 25.8945C98.436 24.1038 97.722 22.6871 97.11 21.6445C96.5207 20.5791 95.9313 19.8991 95.342 19.6045C92.9167 19.6045 91.4773 19.5931 91.024 19.5705V28.6825L94.39 29.0225V30.6885H84.564V29.0225ZM95.07 17.7685C96.5207 17.7685 97.6653 17.2925 98.504 16.3405C99.3427 15.3885 99.762 13.9718 99.762 12.0905C99.762 10.4358 99.3313 9.17781 98.47 8.31647C97.6313 7.43248 96.1693 6.99048 94.084 6.99048C93.3587 6.99048 92.6333 7.03581 91.908 7.12648C91.4547 7.17181 91.16 7.19448 91.024 7.19448V17.7345C91.364 17.7571 92.0667 17.7685 93.132 17.7685H95.07ZM116.153 31.0625C113.411 31.0625 111.314 30.1671 109.863 28.3765C108.435 26.5858 107.721 24.1945 107.721 21.2025C107.721 19.2305 108.095 17.4965 108.843 16.0005C109.591 14.5045 110.634 13.3485 111.971 12.5325C113.331 11.7165 114.873 11.3085 116.595 11.3085C118.703 11.3085 120.335 11.8978 121.491 13.0765C122.67 14.2325 123.293 15.8985 123.361 18.0745C123.361 19.4571 123.282 20.5111 123.123 21.2365H111.427C111.473 23.4805 111.994 25.2938 112.991 26.6765C113.989 28.0365 115.405 28.7165 117.241 28.7165C118.148 28.7165 119.089 28.5578 120.063 28.2405C121.061 27.9005 121.831 27.5038 122.375 27.0505L123.021 28.5465C122.364 29.2265 121.389 29.8158 120.097 30.3145C118.805 30.8131 117.491 31.0625 116.153 31.0625ZM119.621 19.4345C119.689 18.9585 119.723 18.4711 119.723 17.9725C119.701 16.4991 119.383 15.3431 118.771 14.5045C118.182 13.6431 117.241 13.2125 115.949 13.2125C114.635 13.2125 113.581 13.6885 112.787 14.6405C112.017 15.5925 111.575 17.1905 111.461 19.4345H119.621ZM127.644 14.4365L125.196 13.8245V11.9885L130.058 11.3765H130.16L130.874 11.9885V13.4165L130.84 14.2325C131.656 13.5071 132.732 12.8498 134.07 12.2605C135.407 11.6711 136.688 11.3765 137.912 11.3765C139.34 11.3765 140.439 11.6485 141.21 12.1925C142.003 12.7365 142.558 13.5751 142.876 14.7085C143.193 15.8191 143.352 17.3265 143.352 19.2305V28.7505L145.732 28.9885V30.6885H137.674V29.0225L139.782 28.7505V19.1965C139.782 17.8591 139.691 16.8165 139.51 16.0685C139.328 15.2978 138.988 14.7311 138.49 14.3685C137.991 13.9831 137.266 13.7905 136.314 13.7905C135.498 13.7905 134.625 13.9945 133.696 14.4025C132.766 14.8105 131.939 15.2865 131.214 15.8305V28.7165L133.526 29.0225V30.6885H125.502V29.0225L127.644 28.7165V14.4365ZM155.866 31.0625C153.123 31.0625 151.026 30.1671 149.576 28.3765C148.148 26.5858 147.434 24.1945 147.434 21.2025C147.434 19.2305 147.808 17.4965 148.556 16.0005C149.304 14.5045 150.346 13.3485 151.684 12.5325C153.044 11.7165 154.585 11.3085 156.308 11.3085C158.416 11.3085 160.048 11.8978 161.204 13.0765C162.382 14.2325 163.006 15.8985 163.074 18.0745C163.074 19.4571 162.994 20.5111 162.836 21.2365H151.14C151.185 23.4805 151.706 25.2938 152.704 26.6765C153.701 28.0365 155.118 28.7165 156.954 28.7165C157.86 28.7165 158.801 28.5578 159.776 28.2405C160.773 27.9005 161.544 27.5038 162.088 27.0505L162.734 28.5465C162.076 29.2265 161.102 29.8158 159.81 30.3145C158.518 30.8131 157.203 31.0625 155.866 31.0625ZM159.334 19.4345C159.402 18.9585 159.436 18.4711 159.436 17.9725C159.413 16.4991 159.096 15.3431 158.484 14.5045C157.894 13.6431 156.954 13.2125 155.662 13.2125C154.347 13.2125 153.293 13.6885 152.5 14.6405C151.729 15.5925 151.287 17.1905 151.174 19.4345H159.334ZM163.548 11.8185H171.47V13.4165L168.886 13.8245L171.708 23.8205L172.694 28.1385L173.68 23.7865L176.944 11.8185H180.276L183.642 23.7865L184.628 28.1725L185.716 23.8205L188.47 13.8585L185.886 13.4165V11.8185H192.788V13.4165L190.986 13.8585L185.716 30.9605H182.52L178.916 18.9585L178.032 14.7425L177.318 18.9585L173.884 30.9605H170.722L165.282 13.8245L163.548 13.4165V11.8185Z" fill="white"></path><path d="M86.936 44.3445L84.32 44.0565V42.8565H90.68L94.064 53.6565L94.856 56.7045L95.576 53.6565L98.936 42.8565H105.248V44.0565L102.608 44.3445L104.528 59.2485L106.616 59.5125V60.6885H99.704V59.5125L101.888 59.2725L100.808 48.4965L100.304 43.8645L99.296 47.3205L95.288 59.8725H93.728L89.84 48.3765L88.424 43.8405L87.992 48.4965L87.032 59.2725L89.408 59.5125V60.6885H83.144V59.5125L85.184 59.2725L86.936 44.3445ZM113.27 60.9525C111.334 60.9525 109.854 60.3205 108.83 59.0565C107.822 57.7925 107.318 56.1045 107.318 53.9925C107.318 52.6005 107.582 51.3765 108.11 50.3205C108.638 49.2645 109.374 48.4485 110.318 47.8725C111.278 47.2965 112.366 47.0085 113.582 47.0085C115.07 47.0085 116.222 47.4245 117.038 48.2565C117.87 49.0725 118.31 50.2485 118.358 51.7845C118.358 52.7605 118.302 53.5045 118.19 54.0165H109.934C109.966 55.6005 110.334 56.8805 111.038 57.8565C111.742 58.8165 112.742 59.2965 114.038 59.2965C114.678 59.2965 115.342 59.1845 116.03 58.9605C116.734 58.7205 117.278 58.4405 117.662 58.1205L118.118 59.1765C117.654 59.6565 116.966 60.0725 116.054 60.4245C115.142 60.7765 114.214 60.9525 113.27 60.9525ZM115.718 52.7445C115.766 52.4085 115.79 52.0645 115.79 51.7125C115.774 50.6725 115.55 49.8565 115.118 49.2645C114.702 48.6565 114.038 48.3525 113.126 48.3525C112.198 48.3525 111.454 48.6885 110.894 49.3605C110.35 50.0325 110.038 51.1605 109.958 52.7445H115.718ZM125.124 60.9525C124.164 60.9525 123.284 60.7125 122.484 60.2325C121.684 59.7525 121.044 59.0165 120.564 58.0245C120.1 57.0325 119.868 55.8085 119.868 54.3525C119.868 52.9925 120.148 51.7525 120.708 50.6325C121.268 49.5125 122.068 48.6325 123.108 47.9925C124.164 47.3365 125.404 47.0085 126.828 47.0085C127.644 47.0085 128.388 47.0965 129.06 47.2725V42.7845L126.612 42.4965V41.4645L130.932 41.0325H131.004L131.532 41.4165V59.4645H132.924V60.5685C132.412 60.6805 131.964 60.7685 131.58 60.8325C131.212 60.8965 130.82 60.9285 130.404 60.9285C129.988 60.9285 129.692 60.8565 129.516 60.7125C129.34 60.5685 129.252 60.2645 129.252 59.8005V59.0325C128.804 59.5765 128.212 60.0325 127.476 60.4005C126.756 60.7685 125.972 60.9525 125.124 60.9525ZM126.084 59.2485C126.708 59.2485 127.292 59.1125 127.836 58.8405C128.38 58.5525 128.788 58.2245 129.06 57.8565V49.0725C128.932 48.8805 128.628 48.7125 128.148 48.5685C127.684 48.4085 127.188 48.3285 126.66 48.3285C125.412 48.3285 124.412 48.8085 123.66 49.7685C122.924 50.7125 122.556 52.1765 122.556 54.1605C122.556 55.8885 122.884 57.1685 123.54 58.0005C124.196 58.8325 125.044 59.2485 126.084 59.2485ZM137.199 44.9685C136.687 44.9685 136.303 44.8245 136.047 44.5365C135.791 44.2485 135.663 43.8805 135.663 43.4325C135.663 42.9205 135.815 42.4965 136.119 42.1605C136.439 41.8245 136.871 41.6565 137.415 41.6565C137.959 41.6565 138.359 41.8005 138.615 42.0885C138.871 42.3765 138.999 42.7445 138.999 43.1925C138.999 43.7365 138.839 44.1685 138.519 44.4885C138.215 44.8085 137.783 44.9685 137.223 44.9685H137.199ZM136.239 49.2165L134.415 48.7845V47.5125L138.135 47.0565H138.183L138.735 47.4885V59.3205L140.655 59.5125V60.6885H134.295V59.5125L136.239 59.2965V49.2165ZM141.591 54.1125C141.591 52.7845 141.847 51.5845 142.359 50.5125C142.887 49.4405 143.655 48.5925 144.663 47.9685C145.687 47.3285 146.911 47.0085 148.335 47.0085C149.023 47.0085 149.615 47.0725 150.111 47.2005C150.607 47.3285 151.199 47.5045 151.887 47.7285L151.791 51.4245H150.231L149.703 48.9765C149.607 48.5285 148.999 48.3045 147.879 48.3045C146.759 48.3045 145.871 48.7605 145.215 49.6725C144.575 50.5685 144.255 51.8485 144.255 53.5125C144.255 55.4005 144.615 56.8405 145.335 57.8325C146.071 58.8085 147.023 59.2965 148.191 59.2965C148.863 59.2965 149.495 59.1925 150.087 58.9845C150.695 58.7765 151.215 58.5285 151.647 58.2405L152.103 59.2005C151.671 59.6485 151.031 60.0565 150.183 60.4245C149.351 60.7765 148.503 60.9525 147.639 60.9525C146.327 60.9525 145.215 60.6565 144.303 60.0645C143.407 59.4725 142.727 58.6645 142.263 57.6405C141.815 56.6005 141.591 55.4245 141.591 54.1125ZM153.703 57.0885C153.703 55.5845 154.455 54.4805 155.959 53.7765C157.463 53.0565 159.367 52.6725 161.671 52.6245V51.9525C161.671 51.2005 161.591 50.6085 161.431 50.1765C161.271 49.7445 160.991 49.4325 160.591 49.2405C160.207 49.0325 159.655 48.9285 158.935 48.9285C158.119 48.9285 157.383 49.0485 156.727 49.2885C156.087 49.5125 155.447 49.7925 154.807 50.1285L154.207 48.8805C154.415 48.7045 154.799 48.4725 155.359 48.1845C155.919 47.8965 156.567 47.6405 157.303 47.4165C158.039 47.1925 158.775 47.0805 159.511 47.0805C160.647 47.0805 161.543 47.2405 162.199 47.5605C162.871 47.8645 163.351 48.3605 163.639 49.0485C163.927 49.7365 164.071 50.6565 164.071 51.8085V59.5125H165.487V60.5685C165.167 60.6485 164.759 60.7285 164.263 60.8085C163.783 60.8885 163.359 60.9285 162.991 60.9285C162.543 60.9285 162.239 60.8565 162.079 60.7125C161.919 60.5845 161.839 60.2885 161.839 59.8245V59.0325C161.359 59.5125 160.767 59.9525 160.063 60.3525C159.375 60.7525 158.591 60.9525 157.711 60.9525C156.559 60.9525 155.599 60.6245 154.831 59.9685C154.079 59.2965 153.703 58.3365 153.703 57.0885ZM158.743 59.3205C159.159 59.3205 159.639 59.1925 160.183 58.9365C160.727 58.6805 161.223 58.3765 161.671 58.0245V53.8965C159.927 53.8965 158.607 54.1685 157.711 54.7125C156.831 55.2405 156.391 55.9365 156.391 56.8005C156.391 57.6645 156.599 58.3045 157.015 58.7205C157.447 59.1205 158.023 59.3205 158.743 59.3205ZM168.429 42.7845L166.485 42.5205V41.4885L170.349 41.0325H170.397L170.925 41.3925V59.3205L172.965 59.5125V60.6885H166.485V59.5125L168.429 59.2965V42.7845Z" fill="white"></path></svg>