<?xml version="1.0" encoding="UTF-8"?>
<svg xmlns="http://www.w3.org/2000/svg" width="50" height="50" viewBox="0 0 50 50" fill="none">
  <path d="M0.0927734 35.3863C0.422502 34.041 1.58315 33.5926 2.65147 33.0518C3.02076 32.8672 3.36368 33.0122 3.56152 33.3683C3.75935 33.7244 3.68022 34.0806 3.3373 34.3048C2.95481 34.5554 2.54595 34.7532 2.15028 34.9774C1.60952 35.294 1.42488 35.7688 1.67547 36.2304C1.91287 36.6788 2.37449 36.7711 2.94163 36.5733C3.71978 36.2963 4.24735 35.8215 4.65621 35.0961C6.06745 32.5902 7.54463 30.137 8.95587 27.6311C9.41749 26.8133 9.95824 26.1407 10.776 25.6791C11.3299 25.3625 11.3299 25.2438 11.0002 24.7163C10.6573 24.1491 10.3012 23.5952 9.93187 22.9885C9.23284 23.5161 8.52063 23.9777 7.91393 24.558C7.50507 24.9537 7.17534 25.468 6.93793 25.9824C6.19934 27.6443 5.53989 29.3325 4.84086 31.0075C4.76173 31.1921 4.6694 31.4032 4.52432 31.5482C4.26054 31.7988 3.93081 31.812 3.62746 31.601C3.28454 31.3636 3.23179 31.0339 3.39006 30.6514C3.86487 29.4907 4.32649 28.3433 4.80129 27.1826C6.1334 23.9249 6.1334 23.9249 8.98225 21.841C10.3803 20.8123 11.8047 19.8099 13.1896 18.7548C14.1392 18.0294 15.1284 17.726 16.3286 18.1349C16.7375 17.0929 17.4892 16.1565 16.8825 14.9431C16.6583 15.141 16.4341 15.3784 16.1703 15.563C14.9965 16.3807 13.6248 16.0906 12.9126 14.8508C12.4246 14.0067 11.963 13.1494 11.5278 12.2789C10.8419 10.9072 11.6201 9.37731 13.1236 9.12671C14.9701 8.81017 16.8034 8.73104 18.5707 9.53558C18.6763 9.58833 18.8873 9.53558 18.9928 9.46963C20.1139 8.71785 21.2745 8.62553 22.5143 9.15309C23.4243 9.54877 24.3344 9.91806 25.2444 10.3269C26.6293 10.9468 27.236 12.4504 26.6425 13.8616C26.2732 14.7453 25.9039 15.629 25.5082 16.4994C24.8488 17.9239 23.4771 18.7548 21.934 18.6229C21.5251 18.5833 21.3405 18.6888 21.235 19.0713C21.169 19.3219 21.0371 19.5461 20.9448 19.7703C20.9844 19.8231 20.9975 19.8495 21.0239 19.8627C22.8704 20.3902 24.2816 21.6432 25.7984 22.7247C26.748 23.4105 27.7108 24.07 28.6209 24.8086C29.1352 25.2306 29.5705 25.323 30.1772 25.0064C30.8235 24.6503 31.5489 24.6767 32.2611 24.8482C32.9997 25.0196 33.5932 25.3889 34.068 26.0088C36.3629 28.9895 38.671 31.9703 40.9659 34.9642C41.1901 35.2544 41.4143 35.3863 41.7704 35.3731C42.7728 35.3599 43.7884 35.4127 44.7907 35.3995C45.0281 35.3995 45.3051 35.3071 45.4898 35.1621C46.2943 34.5554 47.0593 33.8959 47.8506 33.276C48.3782 32.854 48.8926 32.8012 49.3806 33.0914C49.8686 33.3815 50.0532 33.8827 49.9609 34.529C49.7103 36.1512 49.4597 37.7735 49.2223 39.3826C49.0245 40.7015 48.1804 41.4797 46.8482 41.4797C41.0978 41.4928 35.3473 41.4797 29.5969 41.4797C29.0034 41.4797 28.6472 41.1895 28.6604 40.7279C28.6736 40.2663 29.0165 40.0025 29.6232 40.0025C31.2323 40.0025 32.8414 40.0025 34.4505 40.0025C34.6219 40.0025 34.7934 40.0025 35.0044 40.0025C35.0044 38.8946 35.0044 37.8526 35.0044 36.7316C32.2347 36.6788 29.4913 36.6261 26.6953 36.5733C26.6821 36.7843 26.6689 36.9558 26.6689 37.1272C26.6689 38.2747 26.6689 39.4353 26.6689 40.5828C26.6689 41.2159 26.4051 41.4665 25.772 41.4797C21.8548 41.4797 17.9377 41.5324 14.0337 41.4665C10.3275 41.4137 7.50507 37.6812 8.32279 34.041C8.57339 32.9067 8.83717 31.7725 9.00863 30.5986C8.92949 30.7305 8.83717 30.8492 8.77122 30.9811C7.75566 32.6825 6.72691 34.3971 5.7641 36.1381C5.09145 37.3515 4.00995 37.8922 2.75698 38.1692C1.74141 38.3934 0.686284 37.7207 0.264232 36.7052C0.198286 36.5601 0.14553 36.4018 0.0927734 36.2568C0.0927734 35.9666 0.0927734 35.6764 0.0927734 35.3863ZM25.1653 36.4546C24.1102 36.4546 23.1078 36.4414 22.1054 36.4546C20.892 36.4678 19.8105 36.1117 18.8741 35.3203C17.6079 34.2388 16.2363 33.342 14.6668 32.7616C13.2819 32.2341 11.9366 31.6142 10.5122 31.0075C10.2616 32.1154 10.0242 33.1705 9.78679 34.2256C9.11414 37.1932 11.3167 39.9761 14.3634 39.9761C17.7926 39.9761 21.2086 39.9761 24.6377 39.9761C24.8092 39.9761 24.9807 39.9761 25.1653 39.9761C25.1653 38.8023 25.1653 37.7076 25.1653 36.4546ZM18.1619 20.3375C18.2938 21.8015 17.7398 22.8038 16.5924 23.5424C15.2603 24.3997 13.9546 25.323 12.6488 26.2198C12.5169 26.3122 12.3455 26.4045 12.2927 26.5364C11.8443 27.5387 11.4222 28.5543 10.9738 29.5831C12.8994 30.414 14.7723 31.2185 16.6583 32.0099C16.7638 32.0494 17.0144 31.9307 17.0936 31.812C18.2938 30.1106 19.494 28.4092 20.6414 26.6814C20.9184 26.2594 21.1426 25.745 21.2218 25.257C21.3668 24.281 21.4328 23.2918 21.446 22.3027C21.446 22.0257 21.2086 21.6168 20.9712 21.4981C20.0743 21.0629 19.1379 20.72 18.1619 20.3375ZM18.1487 32.8803C18.5839 33.2233 19.006 33.5002 19.3621 33.8431C20.2985 34.7136 21.38 35.0961 22.6594 34.9906C22.8836 34.9774 23.1078 35.0038 23.3452 34.9906C23.4771 34.9906 23.6222 34.9906 23.7145 34.9247C25.2576 34.0278 26.7876 33.1177 28.3571 32.1945C27.8427 30.7701 27.3283 29.3852 26.814 27.9608C24.4267 28.8972 22.0922 29.8205 19.771 30.7437C19.6786 30.7833 19.5863 30.836 19.5336 30.902C19.0587 31.5614 18.6103 32.2077 18.1487 32.8803ZM35.5452 30.2557C34.5955 29.0423 33.6855 27.8553 32.7359 26.721C32.3138 26.2066 31.6412 26.0747 31.0345 26.2726C30.0717 26.5891 29.1484 27.0244 28.1724 27.42C28.6736 28.7785 29.1484 30.0842 29.6496 31.4295C29.9398 31.2581 30.1772 31.1262 30.4146 30.9811C30.9422 30.6778 31.2455 30.7437 31.628 31.2317C31.8522 31.5219 32.0896 31.812 32.3402 32.1286C33.4085 31.5087 34.4505 30.8888 35.5452 30.2557ZM36.5607 36.7711C36.5607 37.8395 36.5607 38.8946 36.5607 39.9497C39.2777 39.9497 41.9683 39.9497 44.672 39.9497C44.672 38.921 44.672 37.9054 44.672 36.8371C43.9994 36.8371 43.3663 36.9162 42.7464 36.8239C41.6913 36.6656 40.9263 36.9558 40.5043 37.9713C40.4779 38.0241 40.4383 38.0769 40.3856 38.1296C40.0954 38.4725 39.6734 38.5385 39.3436 38.3143C39.0139 38.0769 38.948 37.668 39.1854 37.2723C39.2645 37.1272 39.3568 36.9822 39.4755 36.7843C38.4731 36.7711 37.5367 36.7711 36.5607 36.7711ZM18.4257 14.9036C19.0983 14.31 19.6918 13.7957 20.2721 13.2681C20.5623 13.0043 20.8657 12.9252 21.2481 13.0307C22.4088 13.3472 23.5826 13.3209 24.7696 13.0966C25.4555 12.9648 25.5874 12.6086 25.1257 12.0547C25.0202 11.9228 24.8752 11.7909 24.7169 11.725C23.6881 11.2765 22.6726 10.8149 21.6306 10.4192C20.8393 10.1159 19.916 10.3929 19.4808 11.1051C18.94 12.0019 18.4652 12.9516 18.3861 14.0331C18.3597 14.2837 18.3993 14.5343 18.4257 14.9036ZM12.5829 24.4657C13.7567 23.6611 14.9042 22.8962 16.0252 22.118C16.7638 21.6036 16.9089 20.7859 16.4341 20.0869C15.9329 19.3615 15.1152 19.2296 14.3634 19.7703C13.361 20.4826 12.3719 21.2211 11.3827 21.9465C11.3035 21.9993 11.2112 22.0389 11.1189 22.0784C11.6333 22.9225 12.0949 23.6743 12.5829 24.4657ZM24.6773 14.7585C23.5431 14.7057 22.4879 14.6398 21.4196 14.6002C21.2218 14.6002 20.9844 14.653 20.8261 14.7717C20.3117 15.1937 19.8501 15.6949 19.3093 16.0774C18.4652 16.6709 18.1751 17.5678 17.819 18.491C18.3993 18.7416 18.9664 18.979 19.5599 19.2428C19.7841 18.7152 20.0084 18.214 20.2194 17.7128C20.5623 16.9347 20.7338 16.8424 21.5647 17.0929C22.4879 17.3699 23.4903 17.027 23.9915 16.1961C24.2816 15.7213 24.4663 15.2069 24.6773 14.7585ZM17.9509 10.9336C17.7926 10.8413 17.7398 10.8149 17.6739 10.7885C17.5156 10.7358 17.3705 10.683 17.2123 10.6303C15.9593 10.2478 14.7063 10.4061 13.4534 10.5907C12.8335 10.683 12.6093 11.1315 12.8994 11.6854C13.3215 12.4899 13.7435 13.2945 14.192 14.0858C14.5085 14.653 15.0097 14.7189 15.4581 14.2309C15.9725 13.6902 16.5001 13.1626 16.9617 12.5691C17.331 12.0811 17.6079 11.5008 17.9509 10.9336ZM39.3041 35.2016C38.3413 33.9618 37.3916 32.7221 36.4288 31.4559C35.3341 32.089 34.279 32.7089 33.2107 33.3288C33.6195 33.9091 33.9757 34.4498 34.3581 34.9774C34.4373 35.0829 34.5824 35.1884 34.7011 35.1884C36.2178 35.2016 37.7477 35.2016 39.3041 35.2016ZM30.7443 32.4979C29.3331 33.342 27.9614 34.1465 26.5897 34.9642C26.6029 35.017 26.6293 35.0697 26.6425 35.1093C28.6209 35.1093 30.6124 35.1093 32.6436 35.1093C32.0105 34.252 31.4038 33.4079 30.7443 32.4979ZM46.1888 39.9761C46.3866 39.9761 46.5053 39.9761 46.6372 39.9761C47.4681 39.9761 47.6528 39.8178 47.7715 39.0001C47.8111 38.7099 47.8638 38.4198 47.9034 38.1428C48.0748 37.0349 48.2331 35.927 48.4178 34.7004C47.6528 35.3071 46.9933 35.8347 46.3339 36.3886C46.2547 36.4546 46.1888 36.5997 46.1888 36.7184C46.1888 37.7735 46.1888 38.8418 46.1888 39.9761ZM22.9364 22.4477C22.8836 23.1599 22.91 23.7798 22.7781 24.347C22.6198 25.0592 22.9759 25.3889 23.5694 25.6659C24.0047 25.0724 24.4267 24.4789 24.8883 23.8722C24.2289 23.3974 23.6222 22.9489 22.9364 22.4477ZM26.0754 24.7426C25.6269 25.3625 25.1917 25.9692 24.6905 26.6551C24.9675 26.7606 25.2181 26.9584 25.4027 26.9057C26.1809 26.6551 26.9327 26.3253 27.7768 25.9956C27.1569 25.5472 26.6293 25.1515 26.0754 24.7426ZM22.3824 26.6814C21.9735 27.3145 21.5911 27.908 21.1558 28.5939C22.0263 28.251 22.7913 27.9476 23.6222 27.6179C23.1606 27.2881 22.7781 26.998 22.3824 26.6814Z" fill="white"></path>
  <path d="M42.1006 29.8469C42.3117 28.8313 42.5359 27.6839 42.8128 26.5496C42.9052 26.1671 43.2481 25.9957 43.6569 26.088C44.0658 26.1935 44.29 26.4837 44.2109 26.8793C43.9999 28.0136 43.7625 29.1347 43.5119 30.2558C43.4195 30.6514 43.103 30.8361 42.6941 30.7833C42.3117 30.7306 42.0742 30.4008 42.1006 29.8469Z" fill="white"></path>
  <path d="M47.3622 29.5832C47.2699 29.8602 47.2303 30.0185 47.1512 30.1504C46.861 30.6384 46.5708 31.1264 46.2543 31.588C45.9905 31.9837 45.5553 32.0892 45.2124 31.8781C44.8562 31.6539 44.7639 31.2319 45.0145 30.823C45.3179 30.3086 45.608 29.7679 45.9773 29.3195C46.1356 29.1348 46.5181 29.0029 46.7687 29.0557C47.0061 29.0952 47.1775 29.4118 47.3622 29.5832Z" fill="white"></path>
  <path d="M38.7764 28.4358C38.7764 27.8818 39.027 27.5785 39.4226 27.5257C39.7919 27.473 40.1612 27.7368 40.2272 28.1456C40.3327 28.7523 40.425 29.359 40.5041 29.9657C40.5569 30.3746 40.2799 30.7175 39.9106 30.7835C39.5413 30.8626 39.1589 30.6252 39.0797 30.2163C38.9478 29.5832 38.8687 28.9502 38.7764 28.4358Z" fill="white"></path>
</svg>
