<svg xmlns="http://www.w3.org/2000/svg" width="167" height="55" viewBox="0 0 167 55" fill="none"><path fill-rule="evenodd" clip-rule="evenodd" d="M56.9023 11.1824C54.8523 6.30638 51.0105 3.95185 46.2486 3.66797C42.5683 3.75146 39.6789 4.95378 37.306 7.4085C33.8787 10.9376 30.4356 14.4829 27.0079 18.0285C26.9647 18.0732 26.9215 18.1179 26.8783 18.1625C22.5632 22.6265 18.2481 27.0958 13.933 31.5674C13.2548 32.2701 12.5767 32.9729 11.8986 33.6757L13.8679 35.713C18.2583 40.2215 22.6332 44.764 27.0074 49.3058L28.966 51.332C29.2372 51.05 29.5084 50.768 29.7796 50.486C30.2113 50.037 30.6431 49.5879 31.0752 49.1389C34.8769 45.1976 38.6827 41.2564 42.4884 37.3152C46.2936 33.3746 50.0988 29.4339 53.8999 25.4933C53.9785 25.412 54.0584 25.3321 54.1382 25.2524C54.3368 25.0537 54.5342 24.8562 54.707 24.6417C58.0807 20.6173 58.9524 16.0585 56.9023 11.1824ZM49.7192 6.99103C53.5448 8.67762 55.385 11.9005 55.5948 15.6911C55.5464 18.8973 54.6425 21.2518 52.8023 23.2056C50.1227 26.011 47.427 28.783 44.7152 31.555C44.6022 31.6719 44.1663 31.6719 44.0533 31.555C39.695 27.0797 35.3528 22.5877 31.0268 18.0791C30.9138 17.9622 30.8977 17.5447 31.0107 17.4278C31.6921 16.7145 32.3705 15.997 33.0492 15.2793C35.0874 13.1238 37.1279 10.9659 39.2592 8.9114C42.2939 5.97241 45.9097 5.30445 49.7192 6.99103ZM29.0253 47.6923C29.0094 47.7067 28.9932 47.7213 28.9768 47.7362C28.9304 47.6942 28.884 47.6565 28.8392 47.6201C28.7591 47.555 28.6837 47.4938 28.6216 47.4189C24.2956 42.9603 19.9857 38.5017 15.6919 34.0264C15.5628 33.9095 15.5628 33.442 15.6758 33.3251C19.9857 28.8331 24.3117 24.3578 28.6539 19.8992C28.7669 19.7656 29.2189 19.7823 29.3319 19.8992C33.6579 24.3411 37.9678 28.7997 42.2616 33.275C42.3907 33.4086 42.3907 33.8594 42.2777 33.9763C37.9678 38.4683 33.6418 42.9436 29.3157 47.4189C29.2312 47.5063 29.1344 47.5938 29.0253 47.6923Z" fill="#F6F4F3"></path><path fill-rule="evenodd" clip-rule="evenodd" d="M1.09766 11.1824C3.14768 6.30638 6.98947 3.95185 11.7513 3.66797C15.4317 3.75146 18.3211 4.95378 20.694 7.4085C24.1645 10.9821 27.6512 14.5723 31.1217 18.1625C36.1149 23.3281 41.1082 28.5007 46.1014 33.6757L44.1321 35.713C39.7417 40.2215 35.3668 44.764 30.9925 49.3058L29.034 51.332C28.7628 51.05 28.4916 50.768 28.2204 50.486C27.7887 50.037 27.3569 49.5879 26.9248 49.1389C23.1231 45.1976 19.3173 41.2564 15.5116 37.3152C11.7064 33.3746 7.9012 29.4339 4.10006 25.4933C4.02147 25.412 3.94156 25.3321 3.86184 25.2524C3.6632 25.0537 3.46575 24.8562 3.29296 24.6417C-0.0807045 20.6173 -0.952371 16.0585 1.09766 11.1824ZM8.28083 6.99103C4.45518 8.67762 2.615 11.9005 2.40516 15.6911C2.45358 18.8973 3.35753 21.2518 5.19771 23.2056C7.87728 26.011 10.573 28.783 13.2848 31.555C13.3937 31.6676 13.8021 31.6717 13.933 31.5674C13.9379 31.5634 13.9425 31.5593 13.9467 31.555C18.305 27.0797 22.6472 22.5877 26.9732 18.0791C26.986 18.0658 26.9976 18.0486 27.0079 18.0285C27.0882 17.8713 27.0895 17.5314 26.9893 17.4278C26.3079 16.7145 25.6295 15.997 24.9508 15.2793C22.9126 13.1238 20.8721 10.9659 18.7408 8.9114C15.7061 5.97241 12.0903 5.30445 8.28083 6.99103ZM28.9747 47.6923C28.9906 47.7067 29.0068 47.7213 29.0232 47.7362C29.0696 47.6942 29.116 47.6565 29.1608 47.6201C29.2409 47.555 29.3163 47.4938 29.3784 47.4189C33.7044 42.9603 38.0143 38.5017 42.3081 34.0264C42.4372 33.9095 42.4372 33.442 42.3242 33.3251C38.0143 28.8331 33.6883 24.3578 29.3461 19.8992C29.2331 19.7656 28.7811 19.7823 28.6681 19.8992C24.3421 24.3411 20.0322 28.7997 15.7384 33.275C15.6093 33.4086 15.6093 33.8594 15.7223 33.9763C20.0322 38.4683 24.3582 42.9436 28.6843 47.4189C28.7688 47.5063 28.8656 47.5938 28.9747 47.6923Z" fill="#F6F4F3"></path><path d="M27.0398 29.6346C27.0559 30.5364 26.0229 31.6552 25.2803 31.6552C24.5217 31.6552 24.1181 31.221 24.0697 30.4696C24.0213 29.7348 25.1835 28.5325 25.8937 28.5826C26.5878 28.6327 26.9752 29.0335 27.0398 29.6346Z" fill="#F6F4F3"></path><path d="M30.9138 37.5498C30.8977 36.7984 31.9308 35.6796 32.6572 35.6629C33.4158 35.6462 33.8194 36.097 33.884 36.8318C33.9485 37.5665 32.7863 38.7522 32.0599 38.7355C31.4465 38.7355 30.93 38.2011 30.9138 37.5498Z" fill="#F6F4F3"></path><path d="M28.1532 42.6764C27.5398 42.643 27.1201 42.2256 27.0879 41.4741C27.0394 40.7728 28.1694 39.5872 28.8635 39.6039C29.5899 39.6373 30.0257 40.038 30.058 40.8062C30.0741 41.5576 29.0249 42.6597 28.1532 42.6764Z" fill="#F6F4F3"></path><path d="M22.1481 32.5402C22.7776 32.5736 23.1812 32.9911 23.2296 33.7425C23.2619 34.4606 22.1481 35.6462 21.454 35.6128C20.7437 35.5794 20.2918 35.1786 20.2756 34.3938C20.2433 33.6423 21.2926 32.5569 22.1481 32.5402Z" fill="#F6F4F3"></path><path d="M37.6761 32.8074C37.66 33.6925 36.6108 34.7946 35.8844 34.7779C35.1257 34.7612 34.7383 34.2936 34.706 33.5422C34.6737 32.8241 35.8198 31.6552 36.5139 31.7053C37.2403 31.7387 37.66 32.1729 37.6761 32.8074Z" fill="#F6F4F3"></path><path d="M27.8955 26.6122C27.9116 25.7271 28.9609 24.625 29.6873 24.6417C30.4459 24.6584 30.8333 25.1093 30.8656 25.8607C30.8979 26.5788 29.768 27.731 29.0739 27.7143C28.3313 27.6809 27.9278 27.2467 27.8955 26.6122Z" fill="#F6F4F3"></path><path d="M34.2707 29.2673C34.2707 30.1356 33.1569 31.3045 32.4466 31.2544C31.7202 31.2043 31.3006 30.7535 31.2844 30.002C31.2683 29.284 32.3821 28.1652 33.0762 28.1819C33.8348 28.1985 34.2061 28.6494 34.2707 29.2673Z" fill="#F6F4F3"></path><path d="M26.652 37.3328C26.6197 38.101 25.4736 39.2198 24.7634 39.1363C24.037 39.0528 23.6496 38.6019 23.6657 37.8505C23.6819 37.1157 24.828 36.0303 25.5059 36.0637C26.1516 36.0804 26.6843 36.6816 26.652 37.3328Z" fill="#F6F4F3"></path><path d="M28.5418 35.1786C27.9122 35.1118 27.4925 34.7111 27.4925 33.9429C27.4925 33.1915 28.5741 32.0893 29.3004 32.1227C30.043 32.1561 30.4465 32.5903 30.4465 33.3585C30.4465 34.1266 29.365 35.1953 28.5418 35.1786Z" fill="#F6F4F3"></path><path d="M26.8783 18.1625C26.9215 18.1179 26.9647 18.0732 27.0079 18.0285C27.0882 17.8713 27.0895 17.5314 26.9893 17.4278C26.3079 16.7145 25.6295 15.997 24.9508 15.2793C22.9126 13.1238 20.8721 10.9659 18.7408 8.9114C15.7061 5.97241 12.0903 5.30445 8.28083 6.99103C4.45518 8.67762 2.615 11.9005 2.40516 15.6911C2.45358 18.8973 3.35753 21.2518 5.19771 23.2056C7.87728 26.011 10.573 28.783 13.2848 31.555C13.3937 31.6676 13.8021 31.6717 13.933 31.5674C18.2481 27.0958 22.5632 22.6265 26.8783 18.1625Z" fill="#F6F4F3"></path><path d="M74.334 24.579L76.741 24.289V6.251L74.479 5.874V4.453H78.278C78.8193 4.453 79.554 4.41433 80.482 4.337C81.4487 4.25967 82.2027 4.221 82.744 4.221C85.586 4.221 87.6063 4.685 88.805 5.613C90.023 6.52167 90.632 7.962 90.632 9.934C90.632 11.3067 90.2453 12.5633 89.472 13.704C88.718 14.8447 87.674 15.618 86.34 16.024C86.9587 16.3527 87.529 16.923 88.051 17.735C88.5923 18.5277 89.2497 19.6393 90.023 21.07C90.6223 22.1527 91.0767 22.9453 91.386 23.448C91.7147 23.9507 92.024 24.231 92.314 24.289L93.445 24.579V26H89.443C89.1337 26 88.7857 25.6713 88.399 25.014C88.0123 24.3373 87.5 23.303 86.862 21.911C86.166 20.3837 85.557 19.1753 85.035 18.286C84.5323 17.3773 84.0297 16.7973 83.527 16.546C81.4583 16.546 80.2307 16.5363 79.844 16.517V24.289L82.715 24.579V26H74.334V24.579ZM83.295 14.98C84.5323 14.98 85.5087 14.574 86.224 13.762C86.9393 12.95 87.297 11.7417 87.297 10.137C87.297 8.72567 86.9297 7.65267 86.195 6.918C85.4797 6.164 84.2327 5.787 82.454 5.787C81.8353 5.787 81.2167 5.82567 80.598 5.903C80.2113 5.94167 79.96 5.961 79.844 5.961V14.951C80.134 14.9703 80.7333 14.98 81.642 14.98H83.295ZM101.278 26.319C98.9386 26.319 97.1503 25.5553 95.9129 24.028C94.6949 22.5007 94.0859 20.461 94.0859 17.909C94.0859 16.227 94.4049 14.748 95.0429 13.472C95.6809 12.196 96.5703 11.21 97.7109 10.514C98.8709 9.818 100.186 9.47 101.655 9.47C103.453 9.47 104.845 9.97267 105.831 10.978C106.836 11.964 107.368 13.385 107.426 15.241C107.426 16.4203 107.358 17.3193 107.223 17.938H97.2469C97.2856 19.852 97.7303 21.3987 98.5809 22.578C99.4316 23.738 100.64 24.318 102.206 24.318C102.979 24.318 103.782 24.1827 104.613 23.912C105.464 23.622 106.121 23.2837 106.585 22.897L107.136 24.173C106.575 24.753 105.744 25.2557 104.642 25.681C103.54 26.1063 102.419 26.319 101.278 26.319ZM104.236 16.401C104.294 15.995 104.323 15.5793 104.323 15.154C104.304 13.8973 104.033 12.9113 103.511 12.196C103.008 11.4613 102.206 11.094 101.104 11.094C99.9826 11.094 99.0836 11.5 98.4069 12.312C97.7496 13.124 97.3726 14.487 97.2759 16.401H104.236ZM111.078 12.138L108.99 11.616V10.05L113.137 9.528H113.224L113.833 10.05V11.268L113.804 11.964C114.5 11.3453 115.419 10.7847 116.559 10.282C117.7 9.77933 118.792 9.528 119.836 9.528C121.054 9.528 121.992 9.76 122.649 10.224C123.326 10.688 123.8 11.4033 124.07 12.37C124.341 13.3173 124.476 14.603 124.476 16.227V24.347L126.506 24.55V26H119.633V24.579L121.431 24.347V16.198C121.431 15.0573 121.354 14.168 121.199 13.53C121.045 12.8727 120.755 12.3893 120.329 12.08C119.904 11.7513 119.285 11.587 118.473 11.587C117.777 11.587 117.033 11.761 116.24 12.109C115.448 12.457 114.742 12.863 114.123 13.327V24.318L116.095 24.579V26H109.251V24.579L111.078 24.318V12.138ZM135.15 26.319C132.811 26.319 131.023 25.5553 129.785 24.028C128.567 22.5007 127.958 20.461 127.958 17.909C127.958 16.227 128.277 14.748 128.915 13.472C129.553 12.196 130.443 11.21 131.583 10.514C132.743 9.818 134.058 9.47 135.527 9.47C137.325 9.47 138.717 9.97267 139.703 10.978C140.709 11.964 141.24 13.385 141.298 15.241C141.298 16.4203 141.231 17.3193 141.095 17.938H131.119C131.158 19.852 131.603 21.3987 132.453 22.578C133.304 23.738 134.512 24.318 136.078 24.318C136.852 24.318 137.654 24.1827 138.485 23.912C139.336 23.622 139.993 23.2837 140.457 22.897L141.008 24.173C140.448 24.753 139.616 25.2557 138.514 25.681C137.412 26.1063 136.291 26.319 135.15 26.319ZM138.108 16.401C138.166 15.995 138.195 15.5793 138.195 15.154C138.176 13.8973 137.905 12.9113 137.383 12.196C136.881 11.4613 136.078 11.094 134.976 11.094C133.855 11.094 132.956 11.5 132.279 12.312C131.622 13.124 131.245 14.487 131.148 16.401H138.108ZM141.703 9.905H148.46V11.268L146.256 11.616L148.663 20.142L149.504 23.825L150.345 20.113L153.129 9.905H155.971L158.842 20.113L159.683 23.854L160.611 20.142L162.96 11.645L160.756 11.268V9.905H166.643V11.268L165.106 11.645L160.611 26.232H157.885L154.811 15.995L154.057 12.399L153.448 15.995L150.519 26.232H147.822L143.182 11.616L141.703 11.268V9.905Z" fill="white"></path><path d="M76.116 37.061L74.045 36.833V35.883H79.08L81.759 44.433L82.386 46.846L82.956 44.433L85.616 35.883H90.613V36.833L88.523 37.061L90.043 48.86L91.696 49.069V50H86.224V49.069L87.953 48.879L87.098 40.348L86.699 36.681L85.901 39.417L82.728 49.354H81.493L78.415 40.253L77.294 36.662L76.952 40.348L76.192 48.879L78.073 49.069V50H73.114V49.069L74.729 48.879L76.116 37.061ZM96.9635 50.209C95.4308 50.209 94.2591 49.7087 93.4485 48.708C92.6505 47.7073 92.2515 46.371 92.2515 44.699C92.2515 43.597 92.4605 42.628 92.8785 41.792C93.2965 40.956 93.8791 40.31 94.6265 39.854C95.3865 39.398 96.2478 39.17 97.2105 39.17C98.3885 39.17 99.3005 39.4993 99.9465 40.158C100.605 40.804 100.953 41.735 100.991 42.951C100.991 43.7237 100.947 44.3127 100.858 44.718H94.3225C94.3478 45.972 94.6391 46.9853 95.1965 47.758C95.7538 48.518 96.5455 48.898 97.5715 48.898C98.0781 48.898 98.6038 48.8093 99.1485 48.632C99.7058 48.442 100.136 48.2203 100.44 47.967L100.801 48.803C100.434 49.183 99.8895 49.5123 99.1675 49.791C98.4455 50.0697 97.7108 50.209 96.9635 50.209ZM98.9015 43.711C98.9395 43.445 98.9585 43.1727 98.9585 42.894C98.9458 42.0707 98.7685 41.4247 98.4265 40.956C98.0971 40.4747 97.5715 40.234 96.8495 40.234C96.1148 40.234 95.5258 40.5 95.0825 41.032C94.6518 41.564 94.4048 42.457 94.3415 43.711H98.9015ZM106.348 50.209C105.588 50.209 104.892 50.019 104.258 49.639C103.625 49.259 103.118 48.6763 102.738 47.891C102.371 47.1057 102.187 46.1367 102.187 44.984C102.187 43.9073 102.409 42.9257 102.852 42.039C103.296 41.1523 103.929 40.4557 104.752 39.949C105.588 39.4297 106.57 39.17 107.697 39.17C108.343 39.17 108.932 39.2397 109.464 39.379V35.826L107.526 35.598V34.781L110.946 34.439H111.003L111.421 34.743V49.031H112.523V49.905C112.118 49.9937 111.763 50.0633 111.459 50.114C111.168 50.1647 110.858 50.19 110.528 50.19C110.199 50.19 109.965 50.133 109.825 50.019C109.686 49.905 109.616 49.6643 109.616 49.297V48.689C109.262 49.1197 108.793 49.4807 108.21 49.772C107.64 50.0633 107.02 50.209 106.348 50.209ZM107.108 48.86C107.602 48.86 108.065 48.7523 108.495 48.537C108.926 48.309 109.249 48.0493 109.464 47.758V40.804C109.363 40.652 109.122 40.519 108.742 40.405C108.375 40.2783 107.982 40.215 107.564 40.215C106.576 40.215 105.785 40.595 105.189 41.355C104.607 42.1023 104.315 43.2613 104.315 44.832C104.315 46.2 104.575 47.2133 105.094 47.872C105.614 48.5307 106.285 48.86 107.108 48.86ZM115.907 37.555C115.502 37.555 115.198 37.441 114.995 37.213C114.793 36.985 114.691 36.6937 114.691 36.339C114.691 35.9337 114.812 35.598 115.052 35.332C115.306 35.066 115.648 34.933 116.078 34.933C116.509 34.933 116.826 35.047 117.028 35.275C117.231 35.503 117.332 35.7943 117.332 36.149C117.332 36.5797 117.206 36.9217 116.952 37.175C116.712 37.4283 116.37 37.555 115.926 37.555H115.907ZM115.147 40.918L113.703 40.576V39.569L116.648 39.208H116.686L117.123 39.55V48.917L118.643 49.069V50H113.608V49.069L115.147 48.898V40.918ZM119.384 44.794C119.384 43.7427 119.587 42.7927 119.992 41.944C120.41 41.0953 121.018 40.424 121.816 39.93C122.627 39.4233 123.596 39.17 124.723 39.17C125.268 39.17 125.737 39.2207 126.129 39.322C126.522 39.4233 126.991 39.5627 127.535 39.74L127.459 42.666H126.224L125.806 40.728C125.73 40.3733 125.249 40.196 124.362 40.196C123.476 40.196 122.773 40.557 122.253 41.279C121.747 41.9883 121.493 43.0017 121.493 44.319C121.493 45.8137 121.778 46.9537 122.348 47.739C122.931 48.5117 123.685 48.898 124.609 48.898C125.141 48.898 125.642 48.8157 126.11 48.651C126.592 48.4863 127.003 48.29 127.345 48.062L127.706 48.822C127.364 49.1767 126.858 49.4997 126.186 49.791C125.528 50.0697 124.856 50.209 124.172 50.209C123.134 50.209 122.253 49.9747 121.531 49.506C120.822 49.0373 120.284 48.3977 119.916 47.587C119.562 46.7637 119.384 45.8327 119.384 44.794ZM128.974 47.15C128.974 45.9593 129.569 45.0853 130.76 44.528C131.95 43.958 133.458 43.654 135.282 43.616V43.084C135.282 42.4887 135.218 42.02 135.092 41.678C134.965 41.336 134.743 41.089 134.427 40.937C134.123 40.7723 133.686 40.69 133.116 40.69C132.47 40.69 131.887 40.785 131.368 40.975C130.861 41.1523 130.354 41.374 129.848 41.64L129.373 40.652C129.537 40.5127 129.841 40.329 130.285 40.101C130.728 39.873 131.241 39.6703 131.824 39.493C132.406 39.3157 132.989 39.227 133.572 39.227C134.471 39.227 135.18 39.3537 135.7 39.607C136.232 39.8477 136.612 40.2403 136.84 40.785C137.068 41.3297 137.182 42.058 137.182 42.97V49.069H138.303V49.905C138.049 49.9683 137.726 50.0317 137.334 50.095C136.954 50.1583 136.618 50.19 136.327 50.19C135.972 50.19 135.731 50.133 135.605 50.019C135.478 49.9177 135.415 49.6833 135.415 49.316V48.689C135.035 49.069 134.566 49.4173 134.009 49.734C133.464 50.0507 132.843 50.209 132.147 50.209C131.235 50.209 130.475 49.9493 129.867 49.43C129.271 48.898 128.974 48.138 128.974 47.15ZM132.964 48.917C133.293 48.917 133.673 48.8157 134.104 48.613C134.534 48.4103 134.927 48.1697 135.282 47.891V44.623C133.901 44.623 132.856 44.8383 132.147 45.269C131.45 45.687 131.102 46.238 131.102 46.922C131.102 47.606 131.266 48.1127 131.596 48.442C131.938 48.7587 132.394 48.917 132.964 48.917ZM140.631 35.826L139.092 35.617V34.8L142.151 34.439H142.189L142.607 34.724V48.917L144.222 49.069V50H139.092V49.069L140.631 48.898V35.826Z" fill="white"></path></svg>