<svg width="174" height="61" viewBox="0 0 174 61" fill="none" xmlns="http://www.w3.org/2000/svg">
<path fill-rule="evenodd" clip-rule="evenodd" d="M1.17336 13.0571C3.36477 7.84479 7.4715 5.32787 12.5618 5.02441C16.496 5.11367 19.5846 6.3989 22.1212 9.02292C25.831 12.8429 29.5581 16.6808 33.268 20.5186C38.6056 26.0404 43.9432 31.5697 49.2809 37.1017L47.1757 39.2794C42.4825 44.0988 37.8059 48.9546 33.13 53.8097L31.0363 55.9756C30.7464 55.6742 30.4566 55.3727 30.1666 55.0712C29.7051 54.5913 29.2435 54.1113 28.7817 53.6312C24.7178 49.4182 20.6495 45.2052 16.5813 40.9921C12.5137 36.7797 8.44611 32.5674 4.38282 28.355C4.29882 28.2681 4.21339 28.1826 4.12818 28.0974C3.91583 27.885 3.70477 27.6739 3.52006 27.4446C-0.0862703 23.1426 -1.01805 18.2695 1.17336 13.0571ZM30.973 52.0849C30.9819 52.093 30.9909 52.1011 31 52.1093C31.0082 52.1168 31.0165 52.1242 31.0248 52.1318C31.0744 52.0869 31.124 52.0467 31.1719 52.0077C31.2576 51.9381 31.3381 51.8727 31.4044 51.7926C36.0288 47.0266 40.636 42.2605 45.2259 37.4766C45.3639 37.3516 45.3639 36.8518 45.2431 36.7268C40.636 31.9251 36.0116 27.1411 31.3699 22.3751C31.3085 22.3025 31.1535 22.2714 31 22.2748C30.8516 22.2781 30.7046 22.3136 30.6452 22.3751C26.0208 27.1233 21.4137 31.8894 16.8238 36.6733C16.6858 36.8161 16.6858 37.2981 16.8066 37.423C21.4137 42.2248 26.0381 47.0087 30.6625 51.7926C30.7528 51.8861 30.8563 51.9796 30.973 52.0849Z" fill="#A81874"/>
<path d="M28.9046 32.7819C28.9219 33.7458 27.8175 34.9418 27.0238 34.9418C26.2128 34.9418 25.7814 34.4777 25.7297 33.6744C25.6779 32.889 26.9203 31.6037 27.6795 31.6573C28.4215 31.7108 28.8356 32.1393 28.9046 32.7819Z" fill="#A81874"/>
<path d="M33.0458 41.243C33.0286 40.4397 34.1329 39.2437 34.9094 39.2259C35.7204 39.208 36.1518 39.69 36.2208 40.4754C36.2898 41.2608 35.0474 42.5282 34.2709 42.5104C33.6152 42.5104 33.0631 41.9391 33.0458 41.243Z" fill="#A81874"/>
<path d="M30.0948 46.7231C29.4391 46.6874 28.9905 46.2412 28.956 45.4379C28.9042 44.6882 30.1121 43.4208 30.8541 43.4386C31.6305 43.4743 32.0964 43.9028 32.1309 44.7239C32.1482 45.5271 31.0266 46.7053 30.0948 46.7231Z" fill="#A81874"/>
<path d="M23.6756 35.8879C24.3485 35.9236 24.7799 36.3698 24.8317 37.1731C24.8662 37.9407 23.6756 39.208 22.9336 39.1723C22.1744 39.1366 21.6912 38.7082 21.674 37.8693C21.6394 37.066 22.761 35.9057 23.6756 35.8879Z" fill="#A81874"/>
<path d="M40.2745 36.1735C40.2572 37.1195 39.1356 38.2977 38.3592 38.2798C37.5482 38.262 37.134 37.7622 37.0995 36.9589C37.065 36.1913 38.2901 34.9418 39.0321 34.9953C39.8086 35.031 40.2572 35.4952 40.2745 36.1735Z" fill="#A81874"/>
<path d="M29.8193 29.551C29.8366 28.6049 30.9582 27.4268 31.7347 27.4446C32.5457 27.4625 32.9598 27.9444 32.9943 28.7477C33.0288 29.5153 31.8209 30.747 31.079 30.7291C30.2852 30.6934 29.8538 30.2293 29.8193 29.551Z" fill="#A81874"/>
<path d="M36.6342 32.3892C36.6342 33.3174 35.4436 34.5669 34.6843 34.5134C33.9078 34.4598 33.4592 33.9779 33.442 33.1746C33.4247 32.407 34.6153 31.2111 35.3573 31.2289C36.1683 31.2468 36.5651 31.7287 36.6342 32.3892Z" fill="#A81874"/>
<path d="M28.4901 41.011C28.4556 41.8321 27.2304 43.0281 26.4712 42.9388C25.6947 42.8496 25.2806 42.3676 25.2979 41.5643C25.3151 40.7789 26.5402 39.6186 27.2649 39.6543C27.9552 39.6722 28.5246 40.3148 28.4901 41.011Z" fill="#A81874"/>
<path d="M30.5102 38.7082C29.8372 38.6368 29.3886 38.2084 29.3886 37.3873C29.3886 36.584 30.5447 35.4059 31.3212 35.4416C32.1149 35.4773 32.5463 35.9414 32.5463 36.7625C32.5463 37.5836 31.3902 38.7261 30.5102 38.7082Z" fill="#A81874"/>
<path d="M60.8266 13.0571C58.6352 7.84479 54.5285 5.32787 49.4382 5.02441C45.504 5.11367 42.4154 6.3989 39.8788 9.02292C36.9244 12.0651 33.9589 15.1186 31 18.1744C31.7103 18.908 32.4202 19.6417 33.1295 20.3753C33.0437 20.2072 33.0422 19.844 33.1493 19.7332C33.8778 18.9707 34.603 18.2037 35.3285 17.4365C37.5073 15.1324 39.6884 12.8257 41.9667 10.6295C45.2107 7.48778 49.0759 6.77376 53.1481 8.57666C57.2376 10.3796 59.2047 13.8247 59.429 17.8767C59.3772 21.304 58.4109 23.821 56.4438 25.9095C53.5795 28.9083 50.6978 31.8715 47.799 34.8347C47.6826 34.9551 47.246 34.9595 47.1061 34.8479C47.8135 35.5809 48.5208 36.3139 49.2281 37.047C52.0256 34.1496 54.8224 31.2523 57.6172 28.355C57.7012 28.2681 57.7866 28.1826 57.8718 28.0974C58.0842 27.885 58.2952 27.6739 58.4799 27.4446C62.0863 23.1426 63.0181 18.2695 60.8266 13.0571Z" fill="#00E1B7"/>
<path fill-rule="evenodd" clip-rule="evenodd" d="M47.0915 34.8347C47.0959 34.8393 47.1008 34.8437 47.1061 34.8479C42.4934 30.0679 37.8807 25.2905 33.268 20.5186L33.1295 20.3753C33.1405 20.3969 33.1529 20.4152 33.1666 20.4294C37.7522 25.2085 42.3547 29.9702 46.9742 34.7142L47.0915 34.8347Z" fill="#00E1B7"/>
<path d="M78.38 27.53L80.87 27.23V8.57L78.53 8.18V6.71H82.46C83.02 6.71 83.78 6.67 84.74 6.59C85.74 6.51 86.52 6.47 87.08 6.47C90.02 6.47 92.11 6.95 93.35 7.91C94.61 8.85 95.24 10.34 95.24 12.38C95.24 13.8 94.84 15.1 94.04 16.28C93.26 17.46 92.18 18.26 90.8 18.68C91.44 19.02 92.03 19.61 92.57 20.45C93.13 21.27 93.81 22.42 94.61 23.9C95.23 25.02 95.7 25.84 96.02 26.36C96.36 26.88 96.68 27.17 96.98 27.23L98.15 27.53V29H94.01C93.69 29 93.33 28.66 92.93 27.98C92.53 27.28 92 26.21 91.34 24.77C90.62 23.19 89.99 21.94 89.45 21.02C88.93 20.08 88.41 19.48 87.89 19.22C85.75 19.22 84.48 19.21 84.08 19.19V27.23L87.05 27.53V29H78.38V27.53ZM87.65 17.6C88.93 17.6 89.94 17.18 90.68 16.34C91.42 15.5 91.79 14.25 91.79 12.59C91.79 11.13 91.41 10.02 90.65 9.26C89.91 8.48 88.62 8.09 86.78 8.09C86.14 8.09 85.5 8.13 84.86 8.21C84.46 8.25 84.2 8.27 84.08 8.27V17.57C84.38 17.59 85 17.6 85.94 17.6H87.65ZM106.253 29.33C103.833 29.33 101.983 28.54 100.703 26.96C99.443 25.38 98.813 23.27 98.813 20.63C98.813 18.89 99.143 17.36 99.803 16.04C100.463 14.72 101.383 13.7 102.563 12.98C103.763 12.26 105.123 11.9 106.643 11.9C108.503 11.9 109.943 12.42 110.963 13.46C112.003 14.48 112.553 15.95 112.613 17.87C112.613 19.09 112.543 20.02 112.403 20.66H102.083C102.123 22.64 102.583 24.24 103.463 25.46C104.343 26.66 105.593 27.26 107.213 27.26C108.013 27.26 108.843 27.12 109.703 26.84C110.583 26.54 111.263 26.19 111.743 25.79L112.313 27.11C111.733 27.71 110.873 28.23 109.733 28.67C108.593 29.11 107.433 29.33 106.253 29.33ZM109.313 19.07C109.373 18.65 109.403 18.22 109.403 17.78C109.383 16.48 109.103 15.46 108.563 14.72C108.043 13.96 107.213 13.58 106.073 13.58C104.913 13.58 103.983 14 103.283 14.84C102.603 15.68 102.213 17.09 102.113 19.07H109.313ZM116.391 14.66L114.231 14.12V12.5L118.521 11.96H118.611L119.241 12.5V13.76L119.211 14.48C119.931 13.84 120.881 13.26 122.061 12.74C123.241 12.22 124.371 11.96 125.451 11.96C126.711 11.96 127.681 12.2 128.361 12.68C129.061 13.16 129.551 13.9 129.831 14.9C130.111 15.88 130.251 17.21 130.251 18.89V27.29L132.351 27.5V29H125.241V27.53L127.101 27.29V18.86C127.101 17.68 127.021 16.76 126.861 16.1C126.701 15.42 126.401 14.92 125.961 14.6C125.521 14.26 124.881 14.09 124.041 14.09C123.321 14.09 122.551 14.27 121.731 14.63C120.911 14.99 120.181 15.41 119.541 15.89V27.26L121.581 27.53V29H114.501V27.53L116.391 27.26V14.66ZM141.293 29.33C138.873 29.33 137.023 28.54 135.743 26.96C134.483 25.38 133.853 23.27 133.853 20.63C133.853 18.89 134.183 17.36 134.843 16.04C135.503 14.72 136.423 13.7 137.603 12.98C138.803 12.26 140.163 11.9 141.683 11.9C143.543 11.9 144.983 12.42 146.003 13.46C147.043 14.48 147.593 15.95 147.653 17.87C147.653 19.09 147.583 20.02 147.443 20.66H137.123C137.163 22.64 137.623 24.24 138.503 25.46C139.383 26.66 140.633 27.26 142.253 27.26C143.053 27.26 143.883 27.12 144.743 26.84C145.623 26.54 146.303 26.19 146.783 25.79L147.353 27.11C146.773 27.71 145.913 28.23 144.773 28.67C143.633 29.11 142.473 29.33 141.293 29.33ZM144.353 19.07C144.413 18.65 144.443 18.22 144.443 17.78C144.423 16.48 144.143 15.46 143.603 14.72C143.083 13.96 142.253 13.58 141.113 13.58C139.953 13.58 139.023 14 138.323 14.84C137.643 15.68 137.253 17.09 137.153 19.07H144.353ZM148.072 12.35H155.062V13.76L152.782 14.12L155.272 22.94L156.142 26.75L157.012 22.91L159.892 12.35H162.832L165.802 22.91L166.672 26.78L167.632 22.94L170.062 14.15L167.782 13.76V12.35H173.872V13.76L172.282 14.15L167.632 29.24H164.812L161.632 18.65L160.852 14.93L160.222 18.65L157.192 29.24H154.402L149.602 14.12L148.072 13.76V12.35Z" fill="#002333"/>
<path d="M80.28 40.38L78.1 40.14V39.14H83.4L86.22 48.14L86.88 50.68L87.48 48.14L90.28 39.14H95.54V40.14L93.34 40.38L94.94 52.8L96.68 53.02V54H90.92V53.02L92.74 52.82L91.84 43.84L91.42 39.98L90.58 42.86L87.24 53.32H85.94L82.7 43.74L81.52 39.96L81.16 43.84L80.36 52.82L82.34 53.02V54H77.12V53.02L78.82 52.82L80.28 40.38ZM102.225 54.22C100.611 54.22 99.378 53.6933 98.5247 52.64C97.6847 51.5867 97.2647 50.18 97.2647 48.42C97.2647 47.26 97.4847 46.24 97.9247 45.36C98.3647 44.48 98.978 43.8 99.7647 43.32C100.565 42.84 101.471 42.6 102.485 42.6C103.725 42.6 104.685 42.9467 105.365 43.64C106.058 44.32 106.425 45.3 106.465 46.58C106.465 47.3933 106.418 48.0133 106.325 48.44H99.4447C99.4714 49.76 99.778 50.8267 100.365 51.64C100.951 52.44 101.785 52.84 102.865 52.84C103.398 52.84 103.951 52.7467 104.525 52.56C105.111 52.36 105.565 52.1267 105.885 51.86L106.265 52.74C105.878 53.14 105.305 53.4867 104.545 53.78C103.785 54.0733 103.011 54.22 102.225 54.22ZM104.265 47.38C104.305 47.1 104.325 46.8133 104.325 46.52C104.311 45.6533 104.125 44.9733 103.765 44.48C103.418 43.9733 102.865 43.72 102.105 43.72C101.331 43.72 100.711 44 100.245 44.56C99.7914 45.12 99.5314 46.06 99.4647 47.38H104.265ZM112.104 54.22C111.304 54.22 110.57 54.02 109.904 53.62C109.237 53.22 108.704 52.6067 108.304 51.78C107.917 50.9533 107.724 49.9333 107.724 48.72C107.724 47.5867 107.957 46.5533 108.424 45.62C108.89 44.6867 109.557 43.9533 110.424 43.42C111.304 42.8733 112.337 42.6 113.524 42.6C114.204 42.6 114.824 42.6733 115.384 42.82V39.08L113.344 38.84V37.98L116.944 37.62H117.004L117.444 37.94V52.98H118.604V53.9C118.177 53.9933 117.804 54.0667 117.484 54.12C117.177 54.1733 116.85 54.2 116.504 54.2C116.157 54.2 115.91 54.14 115.764 54.02C115.617 53.9 115.544 53.6467 115.544 53.26V52.62C115.17 53.0733 114.677 53.4533 114.064 53.76C113.464 54.0667 112.81 54.22 112.104 54.22ZM112.904 52.8C113.424 52.8 113.91 52.6867 114.364 52.46C114.817 52.22 115.157 51.9467 115.384 51.64V44.32C115.277 44.16 115.024 44.02 114.624 43.9C114.237 43.7667 113.824 43.7 113.384 43.7C112.344 43.7 111.51 44.1 110.884 44.9C110.27 45.6867 109.964 46.9067 109.964 48.56C109.964 50 110.237 51.0667 110.784 51.76C111.33 52.4533 112.037 52.8 112.904 52.8ZM122.165 40.9C121.739 40.9 121.419 40.78 121.205 40.54C120.992 40.3 120.885 39.9933 120.885 39.62C120.885 39.1933 121.012 38.84 121.265 38.56C121.532 38.28 121.892 38.14 122.345 38.14C122.799 38.14 123.132 38.26 123.345 38.5C123.559 38.74 123.665 39.0467 123.665 39.42C123.665 39.8733 123.532 40.2333 123.265 40.5C123.012 40.7667 122.652 40.9 122.185 40.9H122.165ZM121.365 44.44L119.845 44.08V43.02L122.945 42.64H122.985L123.445 43V52.86L125.045 53.02V54H119.745V53.02L121.365 52.84V44.44ZM125.826 48.52C125.826 47.4133 126.039 46.4133 126.466 45.52C126.906 44.6267 127.546 43.92 128.386 43.4C129.239 42.8667 130.259 42.6 131.446 42.6C132.019 42.6 132.512 42.6533 132.926 42.76C133.339 42.8667 133.832 43.0133 134.406 43.2L134.326 46.28H133.026L132.586 44.24C132.506 43.8667 131.999 43.68 131.066 43.68C130.132 43.68 129.392 44.06 128.846 44.82C128.312 45.5667 128.046 46.6333 128.046 48.02C128.046 49.5933 128.346 50.7933 128.946 51.62C129.559 52.4333 130.352 52.84 131.326 52.84C131.886 52.84 132.412 52.7533 132.906 52.58C133.412 52.4067 133.846 52.2 134.206 51.96L134.586 52.76C134.226 53.1333 133.692 53.4733 132.986 53.78C132.292 54.0733 131.586 54.22 130.866 54.22C129.772 54.22 128.846 53.9733 128.086 53.48C127.339 52.9867 126.772 52.3133 126.386 51.46C126.012 50.5933 125.826 49.6133 125.826 48.52ZM135.92 51C135.92 49.7467 136.546 48.8267 137.8 48.24C139.053 47.64 140.64 47.32 142.56 47.28V46.72C142.56 46.0933 142.493 45.6 142.36 45.24C142.226 44.88 141.993 44.62 141.66 44.46C141.34 44.2867 140.88 44.2 140.28 44.2C139.6 44.2 138.986 44.3 138.44 44.5C137.906 44.6867 137.373 44.92 136.84 45.2L136.34 44.16C136.513 44.0133 136.833 43.82 137.3 43.58C137.766 43.34 138.306 43.1267 138.92 42.94C139.533 42.7533 140.146 42.66 140.76 42.66C141.706 42.66 142.453 42.7933 143 43.06C143.56 43.3133 143.96 43.7267 144.2 44.3C144.44 44.8733 144.56 45.64 144.56 46.6V53.02H145.74V53.9C145.473 53.9667 145.133 54.0333 144.72 54.1C144.32 54.1667 143.966 54.2 143.66 54.2C143.286 54.2 143.033 54.14 142.9 54.02C142.766 53.9133 142.7 53.6667 142.7 53.28V52.62C142.3 53.02 141.806 53.3867 141.22 53.72C140.646 54.0533 139.993 54.22 139.26 54.22C138.3 54.22 137.5 53.9467 136.86 53.4C136.233 52.84 135.92 52.04 135.92 51ZM140.12 52.86C140.466 52.86 140.866 52.7533 141.32 52.54C141.773 52.3267 142.186 52.0733 142.56 51.78V48.34C141.106 48.34 140.006 48.5667 139.26 49.02C138.526 49.46 138.16 50.04 138.16 50.76C138.16 51.48 138.333 52.0133 138.68 52.36C139.04 52.6933 139.52 52.86 140.12 52.86ZM148.19 39.08L146.57 38.86V38L149.79 37.62H149.83L150.27 37.92V52.86L151.97 53.02V54H146.57V53.02L148.19 52.84V39.08Z" fill="#002333"/>
</svg>
