<?xml version="1.0" encoding="UTF-8"?>
<svg xmlns="http://www.w3.org/2000/svg" width="50" height="50" viewBox="0 0 50 50" fill="none">
  <path d="M29.727 0.0913086C30.6384 0.234538 31.5499 0.351725 32.4613 0.534017C35.8468 1.23714 38.7244 2.95589 41.4197 5.05225C43.7895 6.88818 45.4952 9.19287 46.3155 12.0835C47.24 15.3647 47.6046 18.7111 46.8884 22.0965C46.4587 24.1798 45.378 25.9377 44.1541 27.6434C43.4119 28.672 42.6436 29.6877 42.0186 30.7814C40.4952 33.3986 40.0785 36.2502 40.4041 39.2319C40.6775 41.758 41.3416 44.1668 42.3442 46.4845C43.0863 48.2163 41.9015 49.9871 40.0265 49.9871C34.4666 50.0002 28.9197 50.0002 23.3598 49.9871C22.24 49.9871 21.4197 49.3621 20.9509 48.3335C20.4431 47.2007 19.8442 46.1069 19.2973 44.9871C19.2582 44.922 19.2061 44.8569 19.1541 44.7918C18.2426 43.62 18.1254 43.6199 16.7452 44.0496C14.8832 44.6226 13.0212 45.1825 11.1462 45.6903C9.40145 46.159 7.90406 45.2866 7.31812 43.5679C6.96656 42.5522 6.92749 41.5366 7.20093 40.508C7.40926 39.7137 7.29208 39.4533 6.57593 39.0236C6.4327 38.9455 6.28947 38.8673 6.15926 38.7762C5.48218 38.3465 5.28687 37.8387 5.50822 37.0705C5.54729 36.9142 5.61239 36.771 5.67749 36.6017C5.46916 36.4325 5.27385 36.2632 5.06552 36.1069C4.47958 35.6252 4.37541 35.2215 4.67489 34.5184C4.84416 34.1147 5.07854 33.7371 5.27385 33.3465C5.62541 32.6043 5.52124 32.2788 4.81812 31.8752C4.37541 31.6278 3.9327 31.3934 3.50302 31.133C2.26604 30.3517 1.97958 29.245 2.83895 28.0731C3.60718 27.0054 4.4926 26.0288 5.36499 25.0522C6.10718 24.2189 6.61499 23.2814 6.78426 22.1746C6.83635 21.8621 6.95354 21.5496 7.10979 21.2632C7.29208 20.9246 7.22697 20.6772 6.97958 20.4298C6.83635 20.2866 6.70614 20.1564 6.56291 20.0262C5.32593 18.9325 5.09156 18.021 5.67749 16.4715C5.87281 15.9767 6.17229 15.508 6.32854 15.0132C6.69312 13.8543 6.97958 12.6694 7.34416 11.5106C8.29468 8.41162 9.93531 5.72933 12.6436 3.81527C14.4796 2.5262 16.589 1.87516 18.7504 1.36735C21.1332 0.807454 23.5421 0.338704 25.99 0.169434C26.1072 0.156413 26.2113 0.11735 26.3155 0.0913086C27.4483 0.0913086 28.5942 0.0913086 29.727 0.0913086ZM19.7791 43.034C21.0551 44.4403 21.9405 46.0288 22.5134 47.7996C22.6567 48.2554 23.0603 48.3465 23.503 48.3465C28.9457 48.3465 34.3884 48.3465 39.8311 48.3465C40.7166 48.3465 41.0811 47.8127 40.7296 47.0054C39.6749 44.6095 39.0369 42.1095 38.7374 39.5184C38.3337 35.9637 38.9067 32.6173 40.7947 29.5575C41.589 28.2554 42.5395 27.0575 43.4119 25.8075C44.4145 24.3752 45.1306 22.8257 45.4041 21.0939C45.6775 19.3101 45.5994 17.5262 45.365 15.7554C45.1567 14.1929 44.8572 12.6564 44.2192 11.1981C43.2035 8.88037 41.4848 7.18766 39.4926 5.69027C35.8598 2.95589 31.8363 1.56266 27.2791 1.78402C23.5942 1.96631 20.0004 2.63037 16.4978 3.76318C14.2712 4.46631 12.4483 5.75537 11.0681 7.66943C9.94833 9.23193 9.1801 10.9377 8.65926 12.7866C8.29468 14.0887 7.85197 15.3778 7.38322 16.6538C6.79729 18.2033 6.84937 18.0731 7.90406 18.9976C8.8676 19.8439 9.08895 20.8986 8.54208 22.0575C8.48999 22.1616 8.42489 22.2658 8.41187 22.37C8.19051 24.1668 7.21395 25.547 5.98999 26.8101C5.33895 27.4871 4.79208 28.2554 4.19312 28.9845C3.97177 29.245 3.98479 29.4793 4.29729 29.6616C4.70093 29.896 5.09156 30.1564 5.50822 30.3778C7.17489 31.2892 7.55249 32.5392 6.6801 34.245C6.54989 34.4793 6.4327 34.7267 6.31552 34.9481C6.7452 35.3257 7.18791 35.6121 7.50041 36.0158C7.90406 36.5366 7.35718 36.9663 7.16187 37.4481C8.8676 38.2554 9.19312 39.5965 8.72437 41.2762C8.6202 41.6408 8.64624 42.0575 8.71135 42.4351C8.95874 43.8413 9.75302 44.3621 11.1332 43.9976C14.8962 43.021 18.5291 41.6798 22.1749 40.3908C22.9952 40.1043 23.7634 39.5965 24.5056 39.1017C25.0134 38.7632 25.3129 38.2293 25.352 37.5783C25.391 36.9923 25.7296 36.6798 26.2504 36.7189C26.7322 36.745 27.0317 37.1095 27.0056 37.6694C26.9796 38.4637 26.7061 39.1538 26.1983 39.7658C25.4561 40.6642 24.4796 41.2632 23.4249 41.6929C22.24 42.1746 21.0421 42.5783 19.7791 43.034Z" fill="white"></path>
  <path d="M21.5365 12.4609C21.3412 11.9661 21.185 11.4714 20.9506 11.0156C20.8725 10.8724 20.6251 10.8073 20.4297 10.7422C19.0235 10.2995 18.073 9.03646 18.073 7.56511C18.073 6.13281 19.0105 4.83073 20.3646 4.38802C21.9922 3.85417 23.7761 4.66146 24.4532 6.22396C25.1433 7.8125 24.5313 9.6224 23.0209 10.4688C22.8907 10.5339 22.7605 10.599 22.6042 10.6901C22.8907 11.5495 23.3594 12.2656 24.0235 12.8516C24.1277 12.9427 24.2839 12.9688 24.4271 12.9948C25.7162 13.3073 27.0183 13.6068 28.3073 13.9193C28.3855 13.9323 28.4636 13.9323 28.5417 13.9453C28.5417 12.9297 28.4376 11.9141 28.5678 10.9245C28.685 10.0521 28.6068 9.42708 27.9297 8.72396C26.8751 7.64323 26.9792 5.83333 27.9297 4.63542C28.8933 3.42448 30.5209 3.02083 31.9271 3.64583C33.3073 4.25781 34.1277 5.75521 33.8803 7.22656C33.6199 8.77604 32.3698 9.9349 30.8204 10.026C30.4558 10.0521 30.3256 10.1563 30.2735 10.5208C30.0782 11.7578 30.0001 12.9688 30.3777 14.1797C30.4948 14.5443 30.6641 14.7917 31.0287 14.9479C31.4714 15.1432 31.8751 15.4167 32.3178 15.6771C32.3698 15.612 32.4219 15.5339 32.474 15.4557C33.1641 14.5573 33.8542 13.6719 34.5313 12.7604C34.6355 12.6172 34.7396 12.3958 34.7136 12.2266C34.4402 10.2734 35.6511 8.56771 37.5652 8.24219C39.4141 7.92969 41.1589 9.14063 41.5365 11.0026C41.9011 12.8255 40.7292 14.6354 38.8672 15.0391C37.6433 15.3125 36.5626 14.9609 35.56 14.0234C35.1433 14.5443 34.7266 15.026 34.349 15.5339C34.1146 15.8464 33.9584 16.1979 33.7631 16.5365C33.5287 16.9271 33.5157 17.3047 33.5938 17.7734C33.711 18.4245 33.6199 19.1146 33.6199 19.8437C34.6615 19.9609 35.612 20.3516 36.4454 21.0547C36.5495 21.1458 36.836 21.0677 37.0183 21.0156C38.4245 20.638 39.6225 20.9896 40.586 22.0703C41.4714 23.0729 41.6277 24.5703 41.0287 25.7682C40.1954 27.4349 38.1511 28.099 36.4975 27.2656C34.8568 26.4453 34.1667 24.4271 34.987 22.7734C35.0652 22.6172 35.1563 22.4609 35.2605 22.2656C34.6876 21.7057 34.0105 21.4583 33.2292 21.5755C33.099 21.5885 32.9297 21.7188 32.8777 21.849C32.1355 23.3984 31.3672 24.9479 30.7162 26.5234C30.4428 27.2005 30.2995 27.9687 30.2865 28.6979C30.2735 29.1276 30.5079 29.7135 30.8334 29.987C32.6433 31.5365 33.4506 33.5937 33.9584 35.7943C34.7136 39.0885 34.8568 42.4479 34.6615 45.8203C34.6355 46.3411 34.2318 46.6927 33.7761 46.6536C33.3073 46.6146 33.0079 46.237 33.0079 45.7031C33.0079 44.1016 33.06 42.487 32.9818 40.8854C32.8646 38.5938 32.5521 36.3281 31.7318 34.1667C31.3152 33.0729 30.7162 32.1094 29.8047 31.3411C28.6198 30.3516 28.3204 29.0104 28.685 27.5781C28.9975 26.3802 29.4792 25.2214 29.961 24.0755C30.4949 22.8255 31.1459 21.6276 31.6667 20.3646C31.9011 19.7786 32.0053 19.1146 32.0573 18.4766C32.1094 17.9167 31.7969 17.4609 31.3542 17.1094C30.3126 16.276 29.0626 15.9245 27.8256 15.5078C27.5521 15.4167 27.2527 15.3776 26.9792 15.2734C26.2631 14.9609 25.6641 15.1693 25.0782 15.599C24.2579 16.1979 23.5157 16.862 22.9167 17.7214C23.4896 18.3984 23.8412 19.1536 23.8412 20.0651C23.8282 22.0182 22.2527 23.4896 20.2475 23.3854C18.3725 23.2813 16.9662 21.5365 17.2006 19.5833C17.4219 17.7474 19.2448 16.4323 21.0938 16.7839C21.3803 16.8359 21.5235 16.7708 21.7058 16.5625C22.3047 15.8854 22.9167 15.2214 23.5938 14.4922C21.3933 14.1927 19.2188 13.8932 17.0443 13.6068C16.9141 13.8542 16.823 14.0365 16.7188 14.2188C15.9245 15.5729 14.2969 16.1979 12.8126 15.7161C11.3412 15.2344 10.3386 13.737 10.5079 12.2656C10.6902 10.651 11.8881 9.40104 13.4115 9.24479C15.0782 9.07552 16.5365 9.97396 17.0053 11.5234C17.1225 11.9141 17.3047 12.0182 17.6563 12.0573C18.7891 12.1745 19.9089 12.3177 21.0417 12.4479C21.224 12.474 21.3672 12.4609 21.5365 12.4609ZM39.6876 11.7578C39.6876 10.8333 38.9584 10.0781 38.0339 10.0781C37.1225 10.0781 36.3542 10.8464 36.3672 11.7578C36.3803 12.6563 37.1094 13.3854 38.0079 13.4115C38.9323 13.4245 39.6876 12.6823 39.6876 11.7578ZM13.9323 14.2318C14.8438 14.2188 15.599 13.4505 15.586 12.5391C15.573 11.6406 14.8308 10.9115 13.9323 10.9115C12.9948 10.9115 12.2657 11.6406 12.2787 12.5781C12.2657 13.5156 13.0079 14.2448 13.9323 14.2318ZM20.56 18.4115C19.6355 18.4115 18.8933 19.1667 18.9063 20.0911C18.9193 20.9896 19.6615 21.7318 20.56 21.7318C21.4714 21.7448 22.2266 20.9896 22.2266 20.0651C22.2266 19.1276 21.4975 18.3984 20.56 18.4115ZM39.6876 24.2318C39.6876 23.3073 38.9584 22.5521 38.0339 22.5521C37.1225 22.5521 36.3542 23.3203 36.3672 24.2318C36.3803 25.1302 37.1094 25.8594 38.0079 25.8854C38.9323 25.8984 39.6876 25.1563 39.6876 24.2318ZM30.5469 8.39844C31.4714 8.39844 32.2136 7.65625 32.2006 6.73177C32.1876 5.83333 31.4584 5.09115 30.56 5.07813C29.6485 5.06511 28.8803 5.82031 28.8672 6.73177C28.8803 7.65625 29.6225 8.39844 30.5469 8.39844ZM21.3933 5.92448C20.4558 5.92448 19.7396 6.65365 19.7396 7.59115C19.7527 8.50261 20.4688 9.23177 21.3672 9.24479C22.2787 9.25781 23.0469 8.48958 23.06 7.59115C23.073 6.67969 22.3178 5.92448 21.3933 5.92448Z" fill="white"></path>
</svg>
