<svg width="272" height="87" viewBox="0 0 272 87" fill="none" xmlns="http://www.w3.org/2000/svg">
<g opacity="0.17">
<path d="M33.524 72.7291C38.556 77.7611 40.732 79.4611 45.628 79.4611C46.988 79.4611 47.464 79.2571 47.464 78.9171C47.464 78.3731 46.172 77.5571 44.744 77.0131C42.024 75.9931 38.896 73.3411 35.768 70.0091C39.168 65.2491 43.452 55.5931 43.452 54.0971C43.452 52.3971 40.8 51.4451 40.596 51.4451C39.508 51.4451 39.508 53.0771 39.304 54.0291C38.284 58.1771 36.108 63.2091 33.116 67.3571C28.22 62.3251 23.12 56.6131 19.516 52.1251C24.684 48.5211 29.92 43.6251 29.92 38.3891C29.92 32.9491 26.588 30.2971 20.876 30.2971C14.96 30.2971 10.064 34.5811 10.064 40.6331C10.064 43.6931 11.288 47.3651 14.484 51.3771C8.092 55.9331 3.672 61.0331 3.672 68.1731C3.672 75.1091 7.752 79.5971 17.884 79.5971C23.052 79.5971 28.764 77.8971 33.524 72.7291ZM17.272 49.4051C14.688 46.2091 13.804 43.4211 13.804 40.9051C13.804 36.4851 17.34 33.2891 20.876 33.2891C24.48 33.2891 26.18 35.1251 26.18 38.6611C26.18 41.8571 22.1 46.2771 17.272 49.4051ZM31.008 70.0771C26.656 74.9051 21.352 76.4691 17.748 76.4691C10.54 76.4691 7.412 73.0011 7.412 68.0371C7.412 61.9851 11.764 57.3611 16.66 54.0291C20.468 58.5851 26.044 64.8411 31.008 70.0771Z" fill="black"/>
<path d="M33.524 72.7291C38.556 77.7611 40.732 79.4611 45.628 79.4611C46.988 79.4611 47.464 79.2571 47.464 78.9171C47.464 78.3731 46.172 77.5571 44.744 77.0131C42.024 75.9931 38.896 73.3411 35.768 70.0091C39.168 65.2491 43.452 55.5931 43.452 54.0971C43.452 52.3971 40.8 51.4451 40.596 51.4451C39.508 51.4451 39.508 53.0771 39.304 54.0291C38.284 58.1771 36.108 63.2091 33.116 67.3571C28.22 62.3251 23.12 56.6131 19.516 52.1251C24.684 48.5211 29.92 43.6251 29.92 38.3891C29.92 32.9491 26.588 30.2971 20.876 30.2971C14.96 30.2971 10.064 34.5811 10.064 40.6331C10.064 43.6931 11.288 47.3651 14.484 51.3771C8.092 55.9331 3.672 61.0331 3.672 68.1731C3.672 75.1091 7.752 79.5971 17.884 79.5971C23.052 79.5971 28.764 77.8971 33.524 72.7291ZM17.272 49.4051C14.688 46.2091 13.804 43.4211 13.804 40.9051C13.804 36.4851 17.34 33.2891 20.876 33.2891C24.48 33.2891 26.18 35.1251 26.18 38.6611C26.18 41.8571 22.1 46.2771 17.272 49.4051ZM31.008 70.0771C26.656 74.9051 21.352 76.4691 17.748 76.4691C10.54 76.4691 7.412 73.0011 7.412 68.0371C7.412 61.9851 11.764 57.3611 16.66 54.0291C20.468 58.5851 26.044 64.8411 31.008 70.0771Z" fill="url(#paint0_linear_150_778)" fill-opacity="0.8"/>
</g>
<path d="M65.2511 30.768C65.345 31.8573 64.9319 32.8083 64.0118 33.621C63.0905 34.4205 61.9914 34.8648 60.7146 34.9541C59.451 35.0425 58.3788 34.79 57.498 34.1968C56.6161 33.5902 56.1499 32.9947 56.0995 32.4102C56.0652 32.0117 56.1677 31.8041 56.4071 31.7873C56.6199 31.7724 57.0664 32.062 57.7465 32.6559C58.0054 32.865 58.343 33.0552 58.7592 33.2265C59.1887 33.397 59.6295 33.4664 60.0818 33.4348C61.0128 33.3696 61.8169 33.0729 62.4939 32.5444C63.1842 32.015 63.5053 31.4714 63.4572 30.9135C63.4263 30.5548 63.1473 30.1132 62.6204 29.5888C62.0935 29.0643 61.5162 28.5768 60.8886 28.1262C60.2731 27.6614 59.7013 27.1602 59.1732 26.6224C58.6452 26.0847 58.3668 25.6498 58.3382 25.3177C58.3095 24.9856 58.3457 24.6289 58.4466 24.2477C58.5475 23.8664 58.6704 23.5838 58.8151 23.4C59.2846 22.7925 60.044 22.2115 61.0935 21.657C62.1562 21.1016 63.06 20.7978 63.8048 20.7458C64.1906 20.7188 64.5273 20.8222 64.8151 21.056C65.1029 21.2898 65.2588 21.5462 65.2829 21.8251C65.2943 21.958 65.1638 22.074 64.8914 22.1732C64.6189 22.2725 64.2025 22.4085 63.642 22.5814C63.0936 22.74 62.6075 22.921 62.1834 23.1244C60.7042 23.8158 59.9881 24.4339 60.0351 24.9785C60.0603 25.2708 60.9088 26.0333 62.5807 27.2662C63.2239 27.7424 63.8147 28.3092 64.3531 28.9665C64.9036 29.6095 65.203 30.21 65.2511 30.768ZM74.867 27.4695C74.9277 28.1736 74.5918 28.7784 73.8593 29.284C73.1389 29.7754 72.2933 30.055 71.3223 30.1229C70.3646 30.1899 69.4843 30.1445 68.6812 29.9869C68.5454 30.5844 68.4975 31.1156 68.5376 31.5806C68.5766 32.0322 68.7466 32.3745 69.0477 32.6073C69.362 32.8393 69.8451 32.9325 70.4968 32.8869C71.1619 32.8404 71.8305 32.68 72.5027 32.4058C73.187 32.1174 73.5624 31.9709 73.6289 31.9662C73.9747 31.9421 74.1591 32.0628 74.182 32.3285C74.2129 32.6872 73.841 33.1074 73.0663 33.5892C72.2905 34.0578 71.5169 34.319 70.7454 34.373C69.7079 34.4455 68.837 34.199 68.1326 33.6335C67.427 33.0548 67.0335 32.2938 66.9522 31.3506C66.8709 30.4075 67.0388 29.4068 67.4561 28.3486C67.8722 27.2771 68.4489 26.3614 69.1862 25.6015C69.9236 24.8417 70.6846 24.4343 71.4694 24.3794C72.2541 24.3245 72.9978 24.6467 73.7004 25.346C74.4163 26.0443 74.8051 26.7522 74.867 27.4695ZM71.7049 25.9466C71.2127 25.981 70.723 26.2759 70.2356 26.8311C69.7471 27.3731 69.3493 28.0358 69.0421 28.819C69.5845 28.9013 70.1948 28.9188 70.8732 28.8714C71.5515 28.8239 72.1342 28.6763 72.6214 28.4284C73.1073 28.1672 73.3348 27.8573 73.3039 27.4986C73.273 27.14 73.0752 26.7863 72.7106 26.4376C72.3593 26.0879 72.0241 25.9243 71.7049 25.9466ZM78.5181 31.8248C78.5399 32.0772 78.6971 32.1932 78.9897 32.1727C79.4951 32.1374 80.0949 31.9551 80.7891 31.6259C81.4955 31.2825 81.8885 31.108 81.9683 31.1024C82.2078 31.0857 82.3383 31.2035 82.3601 31.4559C82.3933 31.8412 82.0327 32.3141 81.2781 32.8747C80.5369 33.4344 79.8404 33.737 79.1887 33.7825C78.5503 33.8272 78.0033 33.6917 77.5479 33.3761C77.0914 33.0472 76.8471 32.6967 76.815 32.3248C76.7829 31.9528 76.8221 31.4757 76.9324 30.8933C77.0416 30.2976 77.2019 29.518 77.4132 28.5544C77.6366 27.5765 77.8079 26.7694 77.927 26.1329C77.3144 26.3228 76.9017 26.4251 76.6889 26.44C76.4761 26.4549 76.2541 26.3635 76.023 26.1658C75.804 25.954 75.6859 25.7484 75.6688 25.5491C75.6413 25.2303 76.4795 24.8643 78.1834 24.4512C78.3277 23.3319 78.3633 22.3471 78.2899 21.4969C78.2556 21.0984 78.3714 20.8898 78.6374 20.8712C78.8635 20.8554 79.1555 20.982 79.5132 21.251C79.8698 21.5067 80.0635 21.8139 80.0944 22.1726C80.1254 22.5313 80.0667 23.1702 79.9185 24.0893C80.6709 23.9699 81.2732 23.8943 81.7255 23.8627C82.5235 23.8069 82.9374 23.9517 82.9672 24.2971C82.9844 24.4963 82.7792 24.6777 82.3518 24.8413C81.9376 25.0039 81.0509 25.273 79.6917 25.6487C79.5028 26.7177 79.254 27.9445 78.9452 29.3293C78.6353 30.7007 78.4929 31.5326 78.5181 31.8248ZM60.3759 59.1936C60.203 59.2057 60.0059 59.0925 59.7847 58.8541C59.5634 58.6156 59.4459 58.4167 59.4321 58.2573C59.4184 58.0979 59.458 57.7811 59.5509 57.3068C60.0098 54.8692 60.3148 53.1306 60.466 52.091C59.9055 52.2638 59.5189 52.3576 59.3061 52.3725C59.0933 52.3874 58.8724 52.3093 58.6436 52.1382C58.4147 51.9671 58.2906 51.7686 58.2711 51.5428C58.2516 51.317 58.5337 51.0968 59.1174 50.8823C59.8728 50.6423 60.3945 50.4856 60.6825 50.412C60.7606 49.765 60.8179 49.2666 60.8547 48.9165C61.0158 47.061 61.3341 45.709 61.8096 44.8605C62.2851 44.0121 62.9883 43.5553 63.9194 43.4902C64.5844 43.4437 65.1527 43.6712 65.6241 44.1728C66.0944 44.6612 66.3605 45.264 66.4223 45.9813C66.483 46.6854 66.3272 47.0504 65.9548 47.0765C65.6355 47.0988 65.3453 46.7583 65.0839 46.0549C64.9945 45.7938 64.8602 45.556 64.6811 45.3413C64.5021 45.1267 64.2995 45.0272 64.0734 45.043C63.8472 45.0588 63.6502 45.1795 63.4824 45.4051C63.3133 45.6174 63.1723 45.9213 63.0592 46.3167C62.7662 47.4197 62.585 48.4213 62.5154 49.3216L62.4159 50.0302C62.9023 49.9293 63.3849 49.8622 63.8638 49.8287C64.3559 49.7943 64.713 49.8228 64.9349 49.9142C65.1702 50.0046 65.2947 50.1296 65.3085 50.289C65.3302 50.5414 65.1274 50.7493 64.6999 50.9129C64.2724 51.0764 63.4294 51.3091 62.1709 51.6109C61.5564 55.5027 61.1077 57.8261 60.8249 58.5809C60.6719 58.9791 60.5222 59.1834 60.3759 59.1936ZM71.9024 51.8124C71.8635 51.3608 71.7537 50.9408 71.573 50.5525C71.3912 50.1509 71.1526 49.8669 70.8572 49.7005C69.9612 50.0171 69.2311 50.7831 68.6669 51.9986C68.1148 53.1999 67.8828 54.312 67.971 55.3348C68.0592 56.3577 68.3669 56.9777 68.8941 57.1947C69.8357 56.9418 70.591 56.2341 71.1598 55.0718C71.7408 53.8952 71.9883 52.8087 71.9024 51.8124ZM66.6707 52.3587C67.0469 51.29 67.5788 50.3975 68.2663 49.6812C68.9661 48.9507 69.7083 48.558 70.4931 48.5031C71.2911 48.4473 71.9854 48.7396 72.5758 49.3799C73.1651 50.0069 73.5016 50.8052 73.5852 51.775C73.6677 52.7314 73.5197 53.7307 73.1412 54.7728C72.7615 55.8017 72.188 56.6771 71.4207 57.3989C70.6654 58.1066 69.8289 58.4925 68.9112 58.5567C68.2328 58.6041 67.6406 58.3315 67.1346 57.7387C66.6285 57.146 66.3342 56.3714 66.2518 55.415C66.1682 54.4452 66.3078 53.4265 66.6707 52.3587ZM76.0322 50.5614L75.8434 49.0712C75.7896 48.4468 75.909 48.1244 76.2016 48.104C76.4543 48.0863 76.7081 48.2356 76.9628 48.5519C77.2297 48.854 77.3826 49.2308 77.4216 49.6825C77.4594 50.1209 77.4747 50.4539 77.4676 50.6816C78.4736 48.8472 79.4953 47.8937 80.5328 47.8211C81.1845 47.7756 81.5241 47.9122 81.5516 48.231C81.5654 48.3904 81.5048 48.5417 81.3699 48.6847C81.2351 48.8278 81.0155 48.9968 80.7112 49.1919C80.0326 49.5467 79.4747 50.0601 79.0375 50.7322C78.6125 51.39 78.2814 52.1281 78.0442 52.9466C77.8071 53.765 77.6188 54.4531 77.4796 55.0107C77.3536 55.5675 77.2573 56.0018 77.1905 56.3139C77.1238 56.6259 77.0431 56.9323 76.9486 57.2329C76.7816 57.7791 76.5585 58.062 76.2791 58.0815C76.053 58.0974 75.8559 57.9842 75.6879 57.742C75.5319 57.4856 75.4437 57.2379 75.4231 56.9988C75.4013 56.7464 75.472 56.247 75.6351 55.5005C76.0361 53.7886 76.1685 52.1422 76.0322 50.5614ZM176.287 51.0482C176.101 51.0613 175.869 50.9371 175.592 50.6758C175.314 50.4013 175.165 50.1378 175.143 49.8854C175.121 49.633 175.253 48.7551 175.538 47.2517C175.836 45.7474 176.102 43.9447 176.336 41.8436C176.582 39.7282 176.63 37.8071 176.481 36.0802C176.447 35.6816 176.576 35.4721 176.869 35.4517C177.082 35.4368 177.358 35.6179 177.699 35.995C178.038 36.3589 178.223 36.7268 178.255 37.0987C178.396 38.7327 178.238 41.0891 177.781 44.1681C179.179 41.9187 180.524 40.7489 181.814 40.6587C182.439 40.615 182.991 40.8838 183.469 41.4651C183.961 42.0454 184.243 42.7607 184.316 43.6109C184.389 44.4478 184.226 45.4281 183.827 46.5518C183.442 47.6746 182.871 48.6567 182.114 49.4981C181.356 50.3262 180.525 50.7719 179.62 50.8352C178.716 50.8984 177.785 50.5024 176.828 49.6472L176.81 49.6685C176.594 50.579 176.42 51.0389 176.287 51.0482ZM179.327 49.2921C180.191 49.2316 180.986 48.5881 181.709 47.3614C182.445 46.1206 182.757 44.8492 182.645 43.5474C182.577 42.7636 182.304 42.3885 181.825 42.4219C181.054 42.4759 180.236 43.0744 179.371 44.2173C178.519 45.3594 177.812 46.6985 177.248 48.2347C177.942 48.988 178.635 49.3405 179.327 49.2921ZM192.86 39.9464C193.073 39.9315 193.313 40.0751 193.579 40.3772C193.859 40.6651 194.015 41.0016 194.048 41.3869C194.071 41.6525 193.876 42.5749 193.464 44.154C193.051 45.7331 192.769 46.8086 192.618 47.3804C192.478 47.9381 192.282 48.6869 192.029 49.6267C191.787 50.5524 191.551 51.4576 191.319 52.3425C190.818 54.2886 189.902 55.3081 188.572 55.4012C187.814 55.4542 187.069 55.2724 186.338 54.8558C185.607 54.4525 185.221 54.0051 185.178 53.5136C185.162 53.3276 185.231 53.1157 185.384 52.8778C185.524 52.6408 185.654 52.5181 185.774 52.5097C185.894 52.5014 186.099 52.634 186.39 52.9076C187.237 53.7304 187.934 54.1228 188.479 54.0846C188.891 54.0558 189.232 53.6645 189.502 52.9106C189.772 52.17 190.015 51.3312 190.228 50.3941C190.456 49.4694 190.579 48.9596 190.598 48.8648C190.63 48.769 190.66 48.6466 190.687 48.4977C190.727 48.3479 190.763 48.2118 190.792 48.0894C189.959 49.444 189.083 50.1534 188.166 50.2176C187.607 50.2567 187.066 50.0339 186.542 49.5493C186.032 49.0638 185.747 48.469 185.686 47.7649C185.625 47.0609 185.716 46.099 185.959 44.8792C186.202 43.6595 186.518 42.595 186.908 41.6857C187.298 40.7764 187.639 40.3115 187.932 40.291C188.171 40.2743 188.401 40.3718 188.62 40.5837C188.851 40.7814 188.976 40.9931 188.995 41.219C189.015 41.4448 188.883 41.9285 188.599 42.67C187.711 44.9505 187.321 46.7018 187.426 47.9239C187.444 48.1365 187.526 48.3111 187.672 48.448C187.816 48.5715 187.982 48.6268 188.168 48.6137C188.647 48.5803 189.182 48.1152 189.774 47.2185C190.365 46.3218 190.89 45.2694 191.348 44.0614C191.729 43.0458 192.106 41.7565 192.48 40.1935C192.52 40.0437 192.647 39.9613 192.86 39.9464ZM210.665 42.0291C210.725 42.7331 210.389 43.3379 209.657 43.8435C208.937 44.3349 208.091 44.6146 207.12 44.6825C206.162 44.7494 205.282 44.7041 204.479 44.5464C204.343 45.1439 204.295 45.6752 204.335 46.1401C204.374 46.5918 204.544 46.934 204.845 47.1669C205.16 47.3988 205.643 47.492 206.295 47.4464C206.96 47.3999 207.628 47.2396 208.3 46.9654C208.985 46.677 209.36 46.5304 209.427 46.5258C209.772 46.5016 209.957 46.6224 209.98 46.888C210.011 47.2467 209.639 47.667 208.864 48.1488C208.088 48.6173 207.315 48.8786 206.543 48.9325C205.506 49.0051 204.635 48.7586 203.93 48.1931C203.225 47.6143 202.831 46.8533 202.75 45.9102C202.669 44.967 202.837 43.9663 203.254 42.9081C203.67 41.8366 204.247 40.9209 204.984 40.1611C205.721 39.4012 206.482 38.9938 207.267 38.939C208.052 38.8841 208.795 39.2063 209.498 39.9055C210.214 40.6039 210.603 41.3117 210.665 42.0291ZM207.503 40.5062C207.01 40.5406 206.521 40.8354 206.033 41.3907C205.545 41.9327 205.147 42.5953 204.84 43.3785C205.382 43.4609 205.993 43.4784 206.671 43.4309C207.349 43.3835 207.932 43.2358 208.419 42.9879C208.905 42.7268 209.133 42.4168 209.102 42.0582C209.071 41.6995 208.873 41.3458 208.508 40.9971C208.157 40.6475 207.822 40.4838 207.503 40.5062ZM219.459 32.4735C219.672 32.4586 219.948 32.6397 220.289 33.0169C220.641 33.3798 220.832 33.7339 220.862 34.0793C220.892 34.4247 220.81 35.4193 220.617 37.0632C220.423 38.6939 220.181 40.388 219.891 42.1456C219.268 46.0915 218.804 48.0752 218.498 48.0966C218.312 48.1096 218.096 48.0111 217.85 47.8011C217.617 47.5768 217.492 47.3784 217.478 47.2057C217.463 47.033 217.479 46.6843 217.528 46.1598C216.339 47.5793 215.259 48.323 214.288 48.3909C213.703 48.4319 213.148 48.2034 212.623 47.7055C212.112 47.2067 211.832 46.6717 211.782 46.1005C211.711 45.2769 211.847 44.2851 212.188 43.1253C212.542 41.9512 213.098 40.87 213.855 39.8815C214.613 38.893 215.464 38.3658 216.409 38.2997C217.353 38.2337 218.06 38.7522 218.53 39.8553C218.965 36.9917 219.146 34.7406 219.072 33.102C219.037 32.7034 219.166 32.494 219.459 32.4735ZM218.108 42.4107C218.046 41.6933 217.868 41.0977 217.572 40.6239C217.291 40.1491 216.977 39.9238 216.631 39.948C216.059 39.988 215.504 40.381 214.966 41.1269C214.429 41.8728 214.02 42.7166 213.739 43.6583C213.472 44.5858 213.366 45.3816 213.424 46.0458C213.444 46.285 213.547 46.4715 213.733 46.6056C213.918 46.7396 214.131 46.7982 214.37 46.7815C214.889 46.7452 215.555 46.3244 216.369 45.5192C217.196 44.7129 217.765 43.7911 218.077 42.7536L218.116 42.5103L218.108 42.4107ZM223.667 34.9456C223.644 34.6799 223.729 34.4201 223.921 34.1661C224.113 33.9121 224.315 33.7777 224.528 33.7628C224.754 33.747 225.044 34.0007 225.397 34.524C225.748 35.0339 225.94 35.4683 225.971 35.8269C225.982 35.9598 225.933 36.0835 225.822 36.1981C225.712 36.3128 225.59 36.3748 225.457 36.3841C225.138 36.4064 224.762 36.2389 224.33 35.8815C223.911 35.5233 223.69 35.2113 223.667 34.9456ZM223.811 37.7821C224.064 37.7644 224.316 37.9005 224.569 38.1902C224.821 38.4799 224.96 38.7709 224.985 39.0631C225.01 39.3554 224.893 40.2456 224.633 41.7338C224.373 43.2088 224.027 44.87 223.598 46.7176C223.429 47.3976 223.172 47.7497 222.826 47.7739C222.64 47.7869 222.474 47.725 222.328 47.5882C222.181 47.438 222.1 47.27 222.084 47.084C222.067 46.8848 222.087 46.576 222.145 46.1577C222.214 45.7251 222.313 45.157 222.439 44.4532C222.578 43.7352 222.682 43.1533 222.75 42.7074C222.832 42.2607 222.91 41.7608 222.982 41.2078C223.054 40.6415 223.109 40.19 223.147 39.8532C223.197 39.5023 223.253 39.1508 223.317 38.7989C223.447 38.135 223.612 37.7961 223.811 37.7821ZM229.026 45.3557C229.048 45.6081 229.205 45.7241 229.498 45.7036C230.003 45.6683 230.603 45.486 231.297 45.1568C232.003 44.8134 232.396 44.6389 232.476 44.6334C232.716 44.6166 232.846 44.7344 232.868 44.9868C232.901 45.3721 232.541 45.845 231.786 46.4056C231.045 46.9653 230.348 47.2679 229.697 47.3135C229.058 47.3581 228.511 47.2226 228.056 46.907C227.599 46.5781 227.355 46.2277 227.323 45.8557C227.291 45.4838 227.33 45.0066 227.44 44.4242C227.549 43.8286 227.71 43.0489 227.921 42.0853C228.144 41.1074 228.316 40.3003 228.435 39.6639C227.822 39.8537 227.41 39.9561 227.197 39.9709C226.984 39.9858 226.762 39.8944 226.531 39.6968C226.312 39.4849 226.194 39.2793 226.177 39.0801C226.149 38.7612 226.987 38.3953 228.691 37.9821C228.836 36.8628 228.871 35.878 228.798 35.0278C228.763 34.6293 228.879 34.4208 229.145 34.4022C229.371 34.3864 229.663 34.5129 230.021 34.7819C230.378 35.0377 230.571 35.3448 230.602 35.7035C230.633 36.0622 230.575 36.7011 230.426 37.6202C231.179 37.5008 231.781 37.4252 232.233 37.3936C233.031 37.3378 233.445 37.4826 233.475 37.828C233.492 38.0273 233.287 38.2086 232.86 38.3722C232.445 38.5348 231.559 38.8039 230.199 39.1796C230.011 40.2486 229.762 41.4755 229.453 42.8602C229.143 44.2316 229.001 45.0635 229.026 45.3557ZM236.136 34.0737C236.113 33.808 236.198 33.5481 236.39 33.2942C236.582 33.0402 236.785 32.9057 236.998 32.8908C237.224 32.875 237.513 33.1288 237.866 33.652C238.218 34.162 238.409 34.5963 238.44 34.955C238.452 35.0878 238.402 35.2115 238.292 35.3262C238.181 35.4408 238.059 35.5028 237.926 35.5121C237.607 35.5344 237.231 35.3669 236.799 35.0096C236.38 34.6513 236.159 34.3393 236.136 34.0737ZM236.281 36.9101C236.533 36.8925 236.786 37.0285 237.038 37.3182C237.291 37.6079 237.43 37.8989 237.455 38.1912C237.48 38.4834 237.363 39.3737 237.103 40.8619C236.842 42.3368 236.497 43.9981 236.068 45.8456C235.899 46.5256 235.641 46.8777 235.296 46.9019C235.109 46.9149 234.943 46.853 234.798 46.7162C234.651 46.5661 234.57 46.398 234.554 46.2121C234.536 46.0128 234.557 45.704 234.614 45.2857C234.684 44.8532 234.782 44.285 234.909 43.5812C235.048 42.8632 235.151 42.2813 235.22 41.8355C235.302 41.3887 235.379 40.8889 235.452 40.3359C235.524 39.7696 235.578 39.318 235.616 38.9813C235.666 38.6303 235.723 38.2789 235.786 37.927C235.916 37.263 236.081 36.9241 236.281 36.9101ZM241.089 43.0288C242.179 40.7742 243.078 39.0943 243.786 37.989C244.505 36.8696 245.118 36.2922 245.623 36.2568C246.142 36.2206 246.651 36.4589 247.15 36.972C247.663 37.484 247.945 38.0456 247.998 38.6567C248.081 39.6131 247.962 40.7975 247.642 42.2097C247.064 44.8161 246.456 46.1416 245.817 46.1862C245.525 46.2067 245.361 46.0176 245.327 45.6191C245.303 45.3401 245.394 44.7658 245.6 43.8961C245.818 43.0122 246.011 42.15 246.179 41.3097C246.36 40.4551 246.433 39.8219 246.397 39.4101C246.36 38.985 246.267 38.6775 246.117 38.4876C245.98 38.2967 245.845 38.2059 245.712 38.2152C245.592 38.2235 245.469 38.2722 245.343 38.3612C245.217 38.4502 245.076 38.5938 244.919 38.7918C244.775 38.989 244.638 39.1857 244.508 39.3819C244.376 39.5648 244.212 39.8302 244.015 40.1781C243.83 40.5251 243.675 40.8233 243.55 41.0726C243.423 41.3087 243.239 41.6556 242.997 42.1135C242.756 42.5715 242.572 42.9184 242.445 43.1545C242.318 43.3906 242.151 43.7096 241.945 44.1116C241.739 44.5135 241.572 44.8259 241.444 45.0487C241.329 45.2705 241.196 45.5137 241.045 45.7782C240.755 46.2929 240.51 46.5573 240.311 46.5713C240.124 46.5843 239.892 46.4535 239.614 46.1789C239.335 45.8911 239.186 45.6342 239.167 45.4084C239.161 45.342 239.192 45.1594 239.26 44.8606C239.446 44.0725 239.644 43.1031 239.852 41.9526C240.06 40.7888 240.114 39.482 240.016 38.0321C239.972 37.0596 240.07 36.565 240.309 36.5482C240.602 36.5278 240.908 36.6601 241.227 36.9451C241.546 37.2302 241.721 37.5587 241.753 37.9307C241.784 38.2894 241.732 39.0013 241.596 40.0666C241.473 41.1176 241.304 42.105 241.089 43.0288ZM257.508 39.9562C257.553 40.4876 257.373 41.1083 256.966 41.8183C256.676 42.6538 256.392 43.8498 256.111 45.4063C255.829 46.9495 255.577 48.0563 255.354 48.7267C254.912 50.1208 254.112 50.8583 252.955 50.9392C252.011 51.0052 251.19 50.802 250.494 50.3295C249.812 49.8693 249.449 49.3869 249.406 48.8821C249.387 48.6695 249.436 48.4523 249.55 48.2305C249.652 48.0096 249.769 47.8945 249.902 47.8852C250.048 47.8749 250.216 47.9634 250.406 48.1506C250.596 48.3377 250.774 48.5391 250.94 48.7547C251.12 48.9827 251.372 49.1856 251.695 49.3634C252.032 49.5404 252.346 49.6186 252.639 49.5982C252.931 49.5777 253.147 49.5159 253.285 49.4126C253.425 49.3227 253.552 49.1735 253.668 48.9649C253.785 48.7696 253.881 48.5691 253.957 48.3633C254.034 48.1708 254.111 47.8915 254.186 47.5254C254.276 47.1717 254.343 46.8663 254.388 46.6092C254.433 46.3522 254.496 45.9936 254.576 45.5336C254.656 45.0603 254.724 44.6814 254.779 44.3968C253.808 45.2398 252.997 45.6841 252.345 45.7297C251.694 45.7753 251.106 45.5558 250.582 45.0712C250.058 44.5733 249.766 43.979 249.706 43.2882C249.645 42.5842 249.825 41.6361 250.244 40.4441C250.676 39.2512 251.298 38.1653 252.11 37.1864C252.923 36.2075 253.754 35.6883 254.606 35.6287C255.151 35.5906 255.627 35.7644 256.035 36.1502C256.706 36.7849 257.095 37.7266 257.202 38.9753C257.216 39.1347 257.219 39.2481 257.212 39.3154C257.391 39.5301 257.489 39.7437 257.508 39.9562ZM251.339 43.3745C251.359 43.6003 251.448 43.7812 251.607 43.917C251.765 44.0397 251.957 44.0931 252.183 44.0772C252.848 44.0307 253.599 43.584 254.436 42.737C255.271 41.8767 255.83 40.9088 256.112 39.8333C256.044 39.6644 255.975 39.4019 255.904 39.046C255.833 38.6902 255.768 38.4073 255.71 38.1976C255.652 37.9878 255.547 37.7813 255.396 37.5781C255.243 37.3616 255.061 37.2607 254.848 37.2756C254.329 37.3119 253.776 37.7248 253.188 38.5143C252.601 39.3037 252.134 40.1717 251.787 41.118C251.44 42.0644 251.291 42.8165 251.339 43.3745ZM63.0605 81.0166C63.0822 81.269 63.2394 81.385 63.532 81.3645C64.0375 81.3292 64.6373 81.1469 65.3315 80.8177C66.0378 80.4743 66.4309 80.2998 66.5107 80.2942C66.7501 80.2775 66.8807 80.3953 66.9025 80.6477C66.9357 81.033 66.575 81.5059 65.8205 82.0665C65.0793 82.6262 64.3828 82.9288 63.7311 82.9744C63.0926 83.019 62.5457 82.8835 62.0903 82.5679C61.6337 82.239 61.3894 81.8885 61.3574 81.5166C61.3253 81.1446 61.3644 80.6675 61.4748 80.0851C61.584 79.4894 61.7443 78.7098 61.9555 77.7462C62.179 76.7683 62.3503 75.9612 62.4693 75.3247C61.8568 75.5146 61.4441 75.6169 61.2313 75.6318C61.0185 75.6467 60.7965 75.5553 60.5654 75.3577C60.3464 75.1458 60.2283 74.9402 60.2111 74.7409C60.1836 74.4221 61.0219 74.0561 62.7258 73.643C62.8701 72.5237 62.9056 71.5389 62.8323 70.6887C62.798 70.2902 62.9138 70.0817 63.1798 70.063C63.4059 70.0472 63.6978 70.1738 64.0556 70.4428C64.4121 70.6985 64.6059 71.0057 64.6368 71.3644C64.6677 71.7231 64.6091 72.362 64.4609 73.2811C65.2133 73.1617 65.8156 73.0861 66.2678 73.0545C67.0659 72.9987 67.4798 73.1435 67.5096 73.4889C67.5268 73.6881 67.3216 73.8695 66.8941 74.0331C66.48 74.1957 65.5933 74.4648 64.234 74.8405C64.0452 75.9095 63.7964 77.1363 63.4876 78.5211C63.1776 79.8925 63.0353 80.7244 63.0605 81.0166ZM69.8013 67.7758C69.7566 67.2577 69.8939 66.9875 70.2131 66.9652C70.4658 66.9476 70.749 67.1282 71.0627 67.5072C71.3897 67.8853 71.5692 68.2603 71.6013 68.6322C71.6757 69.4957 71.5834 70.9856 71.3243 73.1018C71.0774 75.2039 70.6974 77.3153 70.1845 79.436C71.3072 76.9386 72.2684 75.1273 73.0679 74.0023C73.8796 72.863 74.6046 72.2711 75.2431 72.2264C75.5889 72.2023 76.0137 72.4732 76.5175 73.0394C77.0345 73.6046 77.3188 74.1861 77.3704 74.7839C77.4219 75.3817 77.333 76.29 77.1036 77.5088C76.5378 80.5687 75.8891 82.1242 75.1575 82.1753C74.8649 82.1958 74.7014 82.0068 74.6671 81.6082C74.6327 81.2097 74.7345 80.5277 74.9724 79.5622C75.4998 77.4539 75.7326 76.0411 75.6707 75.3237C75.6501 75.0846 75.5731 74.8896 75.4396 74.7385C75.3061 74.5875 75.153 74.518 74.9801 74.5301C74.8071 74.5422 74.6023 74.6501 74.3657 74.8537C74.129 75.0574 73.8511 75.4042 73.5321 75.8943C73.1314 76.5237 72.7171 77.2275 72.2891 78.0058C71.8744 78.7832 71.6207 79.2554 71.5281 79.4222C71.4476 79.5748 71.2981 79.8593 71.0798 80.2754C70.8747 80.6907 70.7209 81.0022 70.6184 81.2098C70.5147 81.4041 70.3862 81.6203 70.2327 81.8582C69.9646 82.318 69.7507 82.5534 69.5911 82.5646C69.4315 82.5757 69.2061 82.4445 68.9149 82.1708C68.6225 81.8839 68.4678 81.6408 68.4506 81.4416C68.4323 81.229 68.4716 80.832 68.5687 80.2506C69.0138 77.6535 69.2822 75.8774 69.3737 74.9221C69.7676 71.4199 69.9101 69.0378 69.8013 67.7758ZM86.8034 74.7457C86.8641 75.4498 86.5282 76.0546 85.7957 76.5602C85.0754 77.0516 84.2297 77.3312 83.2587 77.3991C82.3011 77.4661 81.4207 77.4208 80.6176 77.2631C80.4818 77.8606 80.4339 78.3918 80.474 78.8568C80.513 79.3084 80.683 79.6507 80.9841 79.8836C81.2985 80.1155 81.7815 80.2087 82.4333 80.1631C83.0983 80.1166 83.7669 79.9562 84.4391 79.6821C85.1234 79.3936 85.4988 79.2471 85.5653 79.2425C85.9112 79.2183 86.0955 79.339 86.1184 79.6047C86.1494 79.9634 85.7775 80.3836 85.0028 80.8655C84.2269 81.334 83.4533 81.5952 82.6818 81.6492C81.6444 81.7217 80.7734 81.4753 80.069 80.9098C79.3634 80.331 78.97 79.57 78.8886 78.6269C78.8073 77.6837 78.9753 76.683 79.3925 75.6248C79.8086 74.5533 80.3853 73.6376 81.1227 72.8777C81.86 72.1179 82.621 71.7105 83.4058 71.6556C84.1905 71.6008 84.9342 71.923 85.6368 72.6222C86.3527 73.3206 86.7415 74.0284 86.8034 74.7457ZM83.6413 73.2228C83.1491 73.2572 82.6594 73.5521 82.172 74.1074C81.6835 74.6494 81.2857 75.312 80.9786 76.0952C81.5209 76.1776 82.1313 76.195 82.8096 76.1476C83.4879 76.1002 84.0707 75.9525 84.5578 75.7046C85.0437 75.4434 85.2713 75.1335 85.2403 74.7748C85.2094 74.4162 85.0116 74.0625 84.6471 73.7138C84.2958 73.3642 83.9605 73.2005 83.6413 73.2228ZM99.6117 80.4653C98.8403 80.5193 98.0896 80.2711 97.3597 79.7207C96.6287 79.1571 96.2277 78.4635 96.1567 77.6399C96.0845 76.803 96.2808 75.8203 96.7455 74.692C97.2102 73.5636 97.8483 72.5835 98.6597 71.7517C99.4844 70.9189 100.316 70.4732 101.154 70.4146C101.699 70.3765 102.199 70.5887 102.654 71.0514C103.108 71.5141 103.352 71.9314 103.384 72.3033C103.393 72.4096 103.368 72.5049 103.308 72.5893C103.247 72.6604 103.151 72.7005 103.018 72.7098C102.898 72.7182 102.668 72.614 102.328 72.3972C101.988 72.1804 101.692 72.0809 101.439 72.0985C100.721 72.1488 99.9376 72.8383 99.0888 74.1673C98.2399 75.4962 97.8562 76.6323 97.9375 77.5755C97.973 77.9873 98.1274 78.3039 98.4007 78.5253C98.6874 78.7459 99.1167 78.8361 99.6886 78.7961C100.274 78.7552 100.8 78.6516 101.268 78.4852C101.747 78.3047 102.114 78.1387 102.369 77.9873C102.622 77.8226 102.822 77.7351 102.968 77.7248C103.221 77.7072 103.358 77.8245 103.38 78.0769C103.413 78.4622 102.987 78.9464 102.1 79.5296C101.226 80.0985 100.396 80.4105 99.6117 80.4653ZM106.372 65.2185C106.327 64.7005 106.465 64.4303 106.784 64.4079C107.037 64.3903 107.32 64.5709 107.634 64.9499C107.961 65.328 108.14 65.703 108.172 66.0749C108.247 66.9384 108.154 68.4283 107.895 70.5446C107.648 72.6466 107.268 74.758 106.755 76.8787C107.878 74.3813 108.839 72.57 109.639 71.445C110.45 70.3057 111.175 69.7138 111.814 69.6692C112.16 69.645 112.585 69.916 113.088 70.4821C113.605 71.0473 113.89 71.6289 113.941 72.2266C113.993 72.8244 113.904 73.7327 113.674 74.9515C113.109 78.0114 112.46 79.5669 111.728 79.6181C111.436 79.6385 111.272 79.4495 111.238 79.051C111.204 78.6524 111.305 77.9704 111.543 77.0049C112.071 74.8966 112.303 73.4838 112.242 72.7665C112.221 72.5273 112.144 72.3323 112.01 72.1812C111.877 72.0302 111.724 71.9607 111.551 71.9728C111.378 71.9849 111.173 72.0928 110.937 72.2964C110.7 72.5001 110.422 72.8469 110.103 73.337C109.702 73.9664 109.288 74.6702 108.86 75.4486C108.445 76.2259 108.192 76.6981 108.099 76.8649C108.018 77.0176 107.869 77.302 107.651 77.7182C107.446 78.1334 107.292 78.4449 107.189 78.6525C107.086 78.8468 106.957 79.063 106.804 79.3009C106.535 79.7607 106.322 79.9961 106.162 80.0073C106.002 80.0185 105.777 79.8872 105.486 79.6136C105.193 79.3266 105.039 79.0835 105.021 78.8843C105.003 78.6717 105.042 78.2747 105.14 77.6933C105.585 75.0963 105.853 73.3201 105.945 72.3648C106.338 68.8626 106.481 66.4805 106.372 65.2185ZM121.446 72.4035C121.407 71.9518 121.297 71.5318 121.116 71.1436C120.935 70.742 120.696 70.458 120.401 70.2915C119.505 70.6081 118.775 71.3741 118.21 72.5896C117.658 73.7909 117.426 74.903 117.514 75.9259C117.603 76.9487 117.91 77.5687 118.438 77.7858C119.379 77.5328 120.134 76.8252 120.703 75.6628C121.284 74.4862 121.532 73.3998 121.446 72.4035ZM116.214 72.9497C116.59 71.881 117.122 70.9885 117.81 70.2722C118.51 69.5417 119.252 69.149 120.037 69.0942C120.835 69.0384 121.529 69.3306 122.119 69.9709C122.709 70.5979 123.045 71.3963 123.129 72.366C123.211 73.3224 123.063 74.3217 122.685 75.3639C122.305 76.3927 121.731 77.2681 120.964 77.99C120.209 78.6976 119.372 79.0835 118.455 79.1477C117.776 79.1951 117.184 78.9225 116.678 78.3298C116.172 77.737 115.878 76.9625 115.795 76.006C115.712 75.0363 115.851 74.0175 116.214 72.9497ZM129.875 68.4062C130.327 68.3746 130.775 68.5972 131.217 69.0741C131.659 69.5377 131.895 69.9555 131.927 70.3274C131.947 70.5533 131.85 70.6736 131.637 70.6885C131.491 70.6987 131.255 70.6016 130.93 70.3972C130.603 70.1795 130.28 70.0818 129.961 70.1041C129.642 70.1264 129.153 70.3477 128.493 70.7681C127.847 71.1874 127.541 71.603 127.577 72.0148C127.603 72.3204 128.26 72.8023 129.548 73.4607C130.039 73.7204 130.49 74.0697 130.903 74.5085C131.328 74.9332 131.563 75.4113 131.609 75.9426C131.653 76.4607 131.332 76.9977 130.644 77.5537C129.968 78.0954 129.144 78.4002 128.173 78.4681C127.216 78.5351 126.344 78.3621 125.56 77.9493C124.788 77.5355 124.384 77.1227 124.349 76.7109C124.334 76.5382 124.362 76.4026 124.434 76.304C124.518 76.1912 124.627 76.1302 124.76 76.1209C124.893 76.1116 125.086 76.1849 125.341 76.3408C126.103 76.8087 126.871 77.0156 127.642 76.9617C128.427 76.9068 128.985 76.781 129.316 76.5841C129.645 76.3739 129.798 76.1227 129.772 75.8305C129.746 75.5249 129.526 75.2196 129.111 74.9145C128.696 74.5961 128.244 74.3203 127.756 74.0872C127.28 73.8531 126.833 73.5569 126.414 73.1987C125.995 72.8404 125.769 72.462 125.734 72.0635C125.674 71.3594 126.163 70.5902 127.201 69.7558C128.252 68.9072 129.143 68.4574 129.875 68.4062ZM140.91 70.9623C140.97 71.6663 140.634 72.2711 139.902 72.7767C139.182 73.2681 138.336 73.5478 137.365 73.6157C136.407 73.6826 135.527 73.6373 134.724 73.4796C134.588 74.0771 134.54 74.6084 134.58 75.0733C134.619 75.525 134.789 75.8672 135.09 76.1001C135.405 76.332 135.888 76.4252 136.539 76.3796C137.204 76.3331 137.873 76.1728 138.545 75.8986C139.23 75.6102 139.605 75.4636 139.671 75.459C140.017 75.4348 140.202 75.5556 140.225 75.8212C140.256 76.1799 139.884 76.6002 139.109 77.082C138.333 77.5505 137.559 77.8118 136.788 77.8657C135.751 77.9383 134.88 77.6918 134.175 77.1263C133.47 76.5475 133.076 75.7865 132.995 74.8434C132.913 73.9002 133.081 72.8995 133.499 71.8413C133.915 70.7698 134.491 69.8541 135.229 69.0943C135.966 68.3344 136.727 67.927 137.512 67.8722C138.297 67.8173 139.04 68.1395 139.743 68.8388C140.459 69.5371 140.848 70.2449 140.91 70.9623ZM137.747 69.4394C137.255 69.4738 136.766 69.7686 136.278 70.3239C135.79 70.8659 135.392 71.5285 135.085 72.3117C135.627 72.3941 136.237 72.4116 136.916 72.3641C137.594 72.3167 138.177 72.169 138.664 71.9211C139.15 71.66 139.377 71.35 139.346 70.9914C139.316 70.6327 139.118 70.279 138.753 69.9303C138.402 69.5807 138.067 69.417 137.747 69.4394ZM144.154 73.8626C145.244 71.608 146.143 69.9281 146.851 68.8228C147.571 67.7034 148.183 67.126 148.689 67.0906C149.207 67.0544 149.716 67.2927 150.215 67.8057C150.728 68.3178 151.011 68.8794 151.063 69.4905C151.146 70.4469 151.027 71.6313 150.707 73.0435C150.129 75.6499 149.521 76.9753 148.882 77.02C148.59 77.0405 148.426 76.8514 148.392 76.4529C148.368 76.1739 148.459 75.5996 148.665 74.7299C148.883 73.846 149.076 72.9838 149.245 72.1435C149.425 71.2889 149.498 70.6557 149.462 70.2439C149.426 69.8188 149.332 69.5113 149.182 69.3213C149.045 69.1305 148.91 69.0397 148.777 69.049C148.657 69.0573 148.535 69.106 148.408 69.195C148.282 69.284 148.141 69.4276 147.984 69.6256C147.84 69.8228 147.703 70.0194 147.573 70.2157C147.442 70.3986 147.277 70.664 147.08 71.0119C146.896 71.3589 146.741 71.6571 146.615 71.9064C146.488 72.1425 146.304 72.4894 146.062 72.9473C145.821 73.4052 145.637 73.7522 145.51 73.9883C145.383 74.2243 145.217 74.5434 145.01 74.9453C144.804 75.3473 144.637 75.6597 144.509 75.8825C144.394 76.1043 144.261 76.3475 144.11 76.612C143.82 77.1267 143.575 77.3911 143.376 77.405C143.19 77.4181 142.958 77.2873 142.68 77.0127C142.401 76.7249 142.251 76.468 142.232 76.2422C142.226 76.1758 142.257 75.9932 142.325 75.6944C142.511 74.9063 142.709 73.9369 142.917 72.7864C143.125 71.6226 143.179 70.3157 143.081 68.8659C143.037 67.8934 143.135 67.3988 143.375 67.382C143.667 67.3616 143.973 67.4939 144.292 67.7789C144.611 68.064 144.787 68.3925 144.819 68.7645C144.85 69.1231 144.797 69.8351 144.662 70.9004C144.538 71.9514 144.369 72.9388 144.154 73.8626ZM165.998 65.8803C166.45 65.8486 166.897 66.0713 167.34 66.5482C167.781 67.0118 168.018 67.4295 168.05 67.8015C168.07 68.0273 167.973 68.1477 167.76 68.1626C167.614 68.1728 167.378 68.0757 167.053 67.8713C166.726 67.6535 166.403 67.5558 166.084 67.5782C165.765 67.6005 165.275 67.8218 164.616 68.2421C163.969 68.6615 163.664 69.0771 163.7 69.4889C163.726 69.7944 164.383 70.2764 165.671 70.9347C166.162 71.1944 166.613 71.5437 167.026 71.9826C167.45 72.4073 167.686 72.8853 167.731 73.4167C167.776 73.9347 167.454 74.4718 166.766 75.0277C166.091 75.5694 165.267 75.8743 164.296 75.9422C163.338 76.0091 162.467 75.8362 161.682 75.4233C160.911 75.0095 160.507 74.5967 160.472 74.1849C160.457 74.0122 160.485 73.8766 160.557 73.778C160.641 73.6653 160.749 73.6042 160.882 73.5949C161.015 73.5856 161.209 73.6589 161.463 73.8149C162.226 74.2827 162.993 74.4897 163.765 74.4358C164.55 74.3809 165.107 74.255 165.438 74.0581C165.768 73.848 165.92 73.5968 165.895 73.3045C165.869 72.999 165.649 72.6937 165.234 72.3885C164.819 72.0701 164.367 71.7943 163.878 71.5612C163.403 71.3272 162.956 71.031 162.537 70.6727C162.118 70.3145 161.892 69.9361 161.857 69.5375C161.796 68.8335 162.285 68.0643 163.324 67.2299C164.375 66.3813 165.266 65.9314 165.998 65.8803ZM177.698 66.1446C177.708 66.2642 177.17 66.9299 176.084 68.1418C175.681 68.5976 175.319 69.1308 174.997 69.7413C174.687 70.3376 174.553 70.8749 174.594 71.3531C174.635 71.8314 174.813 72.2666 175.128 72.6589C175.455 73.0369 175.794 73.3206 176.145 73.5099C176.508 73.685 176.838 73.8624 177.134 74.0421C177.444 74.2209 177.605 74.3767 177.616 74.5096C177.645 74.8417 177.393 75.0263 176.861 75.0635C176.342 75.0998 175.692 74.8513 174.91 74.3179C174.14 73.7704 173.637 73.1373 173.402 72.4188C173.324 72.2906 173.259 72.1681 173.209 72.0514C172.41 73.3367 171.825 74.233 171.454 74.74C171.095 75.2329 170.816 75.4863 170.616 75.5002C170.417 75.5142 170.184 75.3767 169.918 75.0879C169.652 74.7859 169.509 74.5352 169.492 74.3359C169.474 74.1234 169.613 73.2517 169.909 71.7208C170.217 70.1758 170.493 68.3323 170.737 66.1903C170.994 64.0475 171.05 62.1458 170.907 60.4853C170.889 60.2727 170.903 60.1248 170.949 60.0413C171.009 59.957 171.139 59.9078 171.338 59.8939C171.538 59.8799 171.801 60.062 172.128 60.44C172.454 60.8048 172.633 61.1732 172.665 61.5451C172.767 62.7274 172.67 64.398 172.374 66.557C172.079 68.7159 171.681 70.775 171.181 72.7345C172.499 70.4906 173.647 68.673 174.624 67.2816C175.614 65.876 176.235 65.1644 176.488 65.1467C176.754 65.1281 177.017 65.2366 177.279 65.4723C177.54 65.708 177.679 65.9321 177.698 66.1446ZM180.448 62.0232C180.426 61.7575 180.51 61.4977 180.702 61.2437C180.895 60.9897 181.097 60.8552 181.31 60.8404C181.536 60.8246 181.826 61.0783 182.178 61.6015C182.53 62.1115 182.721 62.5458 182.752 62.9045C182.764 63.0373 182.714 63.1611 182.604 63.2757C182.493 63.3904 182.371 63.4523 182.238 63.4616C181.919 63.484 181.543 63.3164 181.111 62.9591C180.692 62.6008 180.471 62.2889 180.448 62.0232ZM180.593 64.8597C180.845 64.842 181.098 64.978 181.35 65.2677C181.603 65.5575 181.742 65.8485 181.767 66.1407C181.792 66.433 181.675 67.3232 181.415 68.8114C181.154 70.2863 180.809 71.9476 180.38 73.7951C180.211 74.4751 179.953 74.8272 179.608 74.8514C179.421 74.8644 179.256 74.8025 179.11 74.6657C178.963 74.5156 178.882 74.3476 178.866 74.1616C178.849 73.9623 178.869 73.6535 178.926 73.2352C178.996 72.8027 179.094 72.2345 179.221 71.5307C179.36 70.8127 179.463 70.2308 179.532 69.785C179.614 69.3383 179.691 68.8384 179.764 68.2854C179.836 67.7191 179.89 67.2676 179.928 66.9308C179.978 66.5798 180.035 66.2284 180.098 65.8765C180.228 65.2126 180.393 64.8736 180.593 64.8597ZM185.401 70.9783C186.491 68.7237 187.39 67.0438 188.098 65.9386C188.817 64.8191 189.43 64.2417 189.936 64.2064C190.454 64.1701 190.963 64.4085 191.462 64.9215C191.975 65.4336 192.257 65.9952 192.31 66.6062C192.393 67.5627 192.274 68.747 191.954 70.1592C191.376 72.7656 190.768 74.0911 190.129 74.1357C189.837 74.1562 189.673 73.9672 189.639 73.5686C189.615 73.2897 189.706 72.7153 189.912 71.8456C190.13 70.9617 190.323 70.0996 190.492 69.2592C190.672 68.4046 190.745 67.7715 190.709 67.3597C190.673 66.9346 190.579 66.627 190.429 66.4371C190.292 66.2462 190.157 66.1554 190.024 66.1647C189.904 66.1731 189.781 66.2218 189.655 66.3108C189.529 66.3998 189.388 66.5433 189.231 66.7414C189.087 66.9385 188.95 67.1352 188.82 67.3314C188.689 67.5143 188.524 67.7797 188.327 68.1276C188.142 68.4746 187.988 68.7728 187.862 69.0221C187.735 69.2582 187.551 69.6052 187.309 70.0631C187.068 70.521 186.884 70.868 186.757 71.104C186.63 71.3401 186.463 71.6591 186.257 72.0611C186.051 72.4631 185.884 72.7754 185.756 72.9982C185.641 73.2201 185.508 73.4632 185.357 73.7277C185.067 74.2425 184.822 74.5068 184.623 74.5208C184.437 74.5338 184.204 74.403 183.927 74.1284C183.647 73.8406 183.498 73.5837 183.479 73.3579C183.473 73.2915 183.504 73.1089 183.572 72.8101C183.758 72.022 183.956 71.0527 184.164 69.9021C184.372 68.7383 184.426 67.4315 184.328 65.9817C184.284 65.0091 184.382 64.5145 184.622 64.4978C184.914 64.4773 185.22 64.6096 185.539 64.8947C185.858 65.1797 186.033 65.5083 186.066 65.8802C186.096 66.2389 186.044 66.9508 185.908 68.0161C185.785 69.0671 185.616 70.0545 185.401 70.9783ZM195.277 71.6309C195.479 71.3361 195.693 71.1808 195.919 71.165C196.145 71.1492 196.446 71.4556 196.821 72.0841C197.195 72.6995 197.396 73.1665 197.423 73.4853C197.432 73.5783 197.374 73.6893 197.251 73.8181C197.129 73.947 197.008 74.0156 196.888 74.024C196.555 74.0472 196.165 73.8673 195.717 73.4844C195.268 73.0881 195.032 72.7571 195.009 72.4915C194.985 72.2125 195.074 71.9256 195.277 71.6309ZM196.668 57.7417C196.921 57.7241 197.28 57.8593 197.747 58.1474C198.213 58.4356 198.455 58.6726 198.471 58.8586C198.568 59.9877 198.447 61.9941 198.106 64.8779C197.78 67.7606 197.443 69.2141 197.097 69.2383C196.885 69.2532 196.676 69.1609 196.471 68.9613C196.266 68.7485 196.153 68.5226 196.132 68.2835C196.112 68.2047 196.15 67.7209 196.248 66.832C196.358 65.9423 196.445 64.7 196.508 63.1053C196.57 61.4972 196.532 59.8895 196.394 58.2821C196.364 57.9368 196.455 57.7566 196.668 57.7417Z" fill="#151515"/>
<path d="M100.055 26.6904C100.313 26.8862 100.45 27.0705 100.464 27.2432C100.479 27.4159 100.43 27.7801 100.318 28.3359C100.205 28.8917 100.135 29.3242 100.109 29.6335C100.081 29.9295 100.054 30.1652 100.029 30.3407C100.017 30.5152 100.009 30.6561 100.005 30.7633C100 30.8572 99.9837 30.9786 99.9564 31.1276C99.9424 31.2755 99.9261 31.397 99.9075 31.4918C99.9011 31.5724 99.883 31.6739 99.8534 31.7963C99.836 31.9044 99.8102 31.9931 99.776 32.0623C99.7407 32.1182 99.6993 32.1813 99.6518 32.2514C99.5812 32.3632 99.4528 32.4257 99.2666 32.4387C99.0803 32.4517 98.8315 32.282 98.5201 31.9296C98.2221 31.5763 97.9836 31.1385 97.8048 30.6165C96.6645 31.9792 95.6687 32.6903 94.8174 32.7498C94.2455 32.7898 93.6001 32.5209 92.8812 31.943C92.1612 31.3519 91.7742 30.7442 91.7204 30.1198C91.6654 29.4822 91.8735 28.5589 92.3447 27.3499C92.8158 26.1409 93.5005 25.0038 94.3989 23.9387C95.3106 22.8726 96.2519 22.3057 97.2228 22.2378C97.7815 22.1987 98.4546 22.4791 99.2423 23.0788C100.03 23.6786 100.447 24.2508 100.494 24.7954C100.54 25.3268 100.394 25.9585 100.055 26.6904ZM94.5211 30.2447C95.0532 30.2075 95.7272 29.7995 96.5432 29.0208C97.3713 28.2279 97.8443 27.2727 97.962 26.1552C97.9616 25.9949 98.0666 25.894 98.2772 25.8526C98.172 25.0981 98.013 24.7284 97.8002 24.7433C97.2681 24.7805 96.6994 25.1677 96.0939 25.905C95.5017 26.6413 95.0266 27.4163 94.6685 28.2298C94.3238 29.0424 94.1675 29.6347 94.1995 30.0066C94.2087 30.1129 94.2283 30.185 94.2583 30.223C94.3005 30.2468 94.3881 30.254 94.5211 30.2447ZM108.69 21.4359C109.382 21.3875 110.014 21.6574 110.586 22.2455C111.171 22.8193 111.494 23.4583 111.555 24.1623C111.652 25.2915 111.568 26.4868 111.302 27.7482C111.048 28.9955 110.73 29.9666 110.349 30.6615C109.98 31.3554 109.57 31.7182 109.118 31.7498C108.679 31.7805 108.432 31.4837 108.379 30.8594C108.337 30.3811 108.474 29.4027 108.788 27.924C109.017 26.7052 109.11 25.8368 109.065 25.3187C109.02 24.8006 108.932 24.5462 108.799 24.5555C108.626 24.5676 108.46 24.6661 108.302 24.8508C108.157 25.0347 108.038 25.1968 107.943 25.337C107.848 25.4773 107.736 25.6589 107.608 25.8816C107.492 26.0902 107.389 26.2845 107.297 26.4647C107.218 26.6306 107.11 26.852 106.973 27.1288C106.849 27.3914 106.747 27.6124 106.669 27.7916C106.59 27.9575 106.488 28.1784 106.365 28.4543C105.327 30.8522 104.456 32.0758 103.751 32.1251C103.472 32.1447 103.099 31.9302 102.632 31.4817C102.164 31.02 101.92 30.6762 101.9 30.4504C101.888 30.3042 101.954 29.9856 102.099 29.4943C102.256 28.9889 102.364 28.6071 102.422 28.3492C102.492 28.077 102.541 27.7929 102.569 27.4969C102.61 27.2 102.637 26.8841 102.648 26.5492C102.658 26.2011 102.662 25.9335 102.659 25.7466C102.67 25.5588 102.671 25.2647 102.663 24.8643C102.634 23.129 102.651 22.1656 102.715 21.974C102.792 21.7815 102.884 21.6815 102.99 21.6741C103.496 21.6388 104 21.8174 104.502 22.2099C105.003 22.5891 105.268 22.9515 105.298 23.2969C105.369 24.1205 105.258 25.3176 104.965 26.8883C105.699 25.3135 106.378 24.0232 107 23.0175C107.635 21.9975 108.198 21.4703 108.69 21.4359ZM119.88 21.1546C119.931 20.8169 120.136 20.6355 120.496 20.6104C120.855 20.5853 121.24 20.7855 121.651 21.2111C122.076 21.6358 122.313 22.1338 122.362 22.705C122.391 23.0371 122.316 23.5702 122.139 24.3043C121.961 25.0383 121.832 25.5619 121.752 25.8748C121.686 26.1869 121.582 26.6151 121.442 27.1595C121.3 27.6906 121.169 28.1875 121.048 28.6504C120.94 29.099 120.785 29.7045 120.583 30.467C120.394 31.2286 120.221 31.9357 120.063 32.5882C119.754 33.8126 119.328 34.7711 118.786 35.4639C118.256 36.1558 117.52 36.5347 116.575 36.6007C115.631 36.6668 114.765 36.4734 113.976 36.0207C113.189 35.5813 112.774 35.1092 112.73 34.6044C112.704 34.2989 112.808 33.9508 113.042 33.5603C113.289 33.1688 113.506 32.9665 113.692 32.9535C113.891 32.9396 114.157 33.0747 114.489 33.3588C114.836 33.6553 115.189 33.9447 115.548 34.227C115.908 34.5225 116.214 34.6615 116.467 34.6438C116.64 34.6317 116.773 34.5422 116.865 34.3754C116.971 34.2076 117.052 34.055 117.107 33.9175C117.176 33.7923 117.241 33.6141 117.301 33.3827C117.363 33.1645 117.419 32.9602 117.469 32.7695C117.52 32.5789 117.579 32.3276 117.645 32.0155C117.712 31.7035 117.768 31.4256 117.814 31.1818C117.978 30.4487 118.116 29.7975 118.228 29.2285C117.838 29.8304 117.425 30.3203 116.99 30.6982C116.553 31.0629 116.135 31.2592 115.736 31.2871C115.35 31.314 114.839 31.0557 114.204 30.5122C113.58 29.9544 113.238 29.3234 113.178 28.6194C113.116 27.9021 113.186 26.9349 113.389 25.718C113.605 24.5001 113.906 23.4099 114.291 22.4475C114.677 21.485 115.049 20.9913 115.408 20.9661C115.82 20.9373 116.221 21.0897 116.612 21.4232C117.014 21.7426 117.229 22.0683 117.258 22.4004C117.285 22.7192 117.164 23.2489 116.893 23.9895C116.636 24.7292 116.377 25.5357 116.118 26.4091C115.859 27.2826 115.755 28.0182 115.807 28.616C115.813 28.6957 115.85 28.7332 115.917 28.7285C116.09 28.7165 116.428 28.3721 116.932 27.6954C117.434 27.0054 117.98 26.0451 118.57 24.8144C119.172 23.5696 119.608 22.3496 119.88 21.1546ZM131.054 27.0687C130.974 26.1388 131.178 25.0954 131.667 23.9387C132.156 22.7819 132.839 21.7719 133.714 20.9089C134.603 20.0449 135.507 19.5808 136.424 19.5166C136.89 19.484 137.395 19.7561 137.94 20.3327C138.483 20.8961 138.776 21.4169 138.817 21.8951C138.847 22.2405 138.702 22.4244 138.383 22.4467C138.223 22.4578 137.998 22.4001 137.706 22.2735C137.414 22.1469 137.122 22.0939 136.829 22.1143C136.536 22.1348 136.139 22.4165 135.637 22.9594C135.148 23.4881 134.72 24.1194 134.355 24.8532C134.003 25.5728 133.843 26.1319 133.878 26.5304C133.912 26.9289 134.008 27.1829 134.164 27.2922C134.334 27.4006 134.712 27.4343 135.297 27.3934C135.896 27.3515 136.43 27.2607 136.899 27.121C137.382 26.9803 137.732 26.8489 137.949 26.7268C138.178 26.5905 138.386 26.5159 138.572 26.5028C138.945 26.4768 139.145 26.6232 139.172 26.942C139.222 27.5265 138.762 28.1601 137.79 28.8428C136.818 29.5122 135.819 29.8827 134.795 29.9543C134.144 29.9999 133.368 29.6933 132.468 29.0345C131.58 28.3616 131.109 27.7063 131.054 27.0687ZM147.244 19.2411C147.322 18.9015 147.521 18.7206 147.84 18.6983C148.159 18.676 148.548 18.9227 149.008 19.4385C149.48 19.9534 149.734 20.4101 149.768 20.8086C149.781 20.9548 149.559 21.9525 149.103 23.8019C148.647 25.6514 148.298 27.1124 148.056 28.1851C147.918 28.756 147.629 29.0569 147.19 29.0876C146.924 29.1062 146.69 29.029 146.488 28.856C146.298 28.6689 146.185 28.3694 146.149 27.9576C146.114 27.5458 146.143 26.9557 146.238 26.1873C145.037 28.2492 144.031 29.3085 143.22 29.3652C142.794 29.395 142.259 29.1584 141.613 28.6556C140.967 28.1396 140.621 27.6225 140.576 27.1044C140.466 25.8292 140.685 24.1767 141.233 22.1472C141.793 20.1167 142.393 19.0792 143.032 19.0345C143.417 19.0075 143.771 19.1565 144.094 19.4814C144.429 19.8054 144.615 20.1733 144.651 20.5851C144.664 20.7445 144.536 21.2012 144.267 21.9551C143.445 24.2176 143.073 25.8005 143.151 26.7039C143.158 26.7836 143.195 26.8211 143.261 26.8164C143.461 26.8025 143.806 26.4643 144.298 25.8018C144.801 25.1251 145.342 24.1785 145.919 22.9621C146.509 21.7315 146.951 20.4911 147.244 19.2411ZM156.268 18.129C156.773 18.0937 157.298 18.3577 157.841 18.921C158.385 19.4844 158.677 20.0052 158.719 20.4834C158.746 20.8023 158.62 20.9714 158.341 20.991C158.181 21.0021 157.943 20.9586 157.627 20.8605C157.31 20.749 156.991 20.7044 156.672 20.7268C156.366 20.7482 155.917 20.8865 155.323 21.1418C154.743 21.3962 154.468 21.6961 154.497 22.0415C154.509 22.1744 154.705 22.3544 155.086 22.5817C155.467 22.809 155.882 23.0406 156.33 23.2765C156.779 23.5124 157.203 23.857 157.603 24.3101C158.003 24.7499 158.226 25.2488 158.274 25.8067C158.321 26.3513 157.963 26.931 157.2 27.5457C156.45 28.1594 155.53 28.5044 154.439 28.5807C153.362 28.656 152.416 28.4749 151.602 28.0373C150.788 27.5998 150.359 27.1219 150.314 26.6039C150.27 26.0858 150.46 25.8119 150.886 25.7821C151.059 25.77 151.271 25.822 151.522 25.9381C152.22 26.2769 153.061 26.4118 154.045 26.343C155.043 26.2732 155.53 26.1055 155.507 25.8398C155.484 25.5741 155.266 25.2954 154.853 25.0035C154.452 24.6975 154.013 24.4208 153.537 24.1734C153.074 23.9252 152.633 23.6153 152.213 23.2437C151.805 22.8579 151.584 22.4724 151.551 22.0872C151.489 21.3699 152.074 20.5472 153.305 19.6191C154.535 18.6778 155.523 18.1811 156.268 18.129ZM164.586 19.9128C164.511 20.2789 164.395 20.7948 164.238 21.4606C164.094 22.1122 163.91 22.9336 163.688 23.9247C163.479 24.9149 163.377 25.4432 163.383 25.5096C163.388 25.5627 163.496 25.5819 163.709 25.567C163.935 25.5512 164.448 25.3683 165.247 25.0184C166.046 24.6552 166.518 24.4685 166.664 24.4583C166.997 24.435 167.183 24.6492 167.222 25.1009C167.261 25.5525 166.862 26.1283 166.026 26.8283C165.188 27.5149 164.284 27.8922 163.313 27.9601C162.888 27.9899 162.362 27.7928 161.737 27.3687C161.112 26.9447 160.778 26.4936 160.737 26.0154C160.703 25.6169 160.83 24.766 161.119 23.4628C161.42 22.1455 161.623 21.2425 161.729 20.7541C161.222 20.9365 160.836 21.037 160.57 21.0556C160.304 21.0742 160.009 20.9144 159.686 20.5762C159.361 20.2247 159.185 19.8829 159.156 19.5508C159.119 19.1257 160.119 18.6949 162.156 18.2585C162.302 17.0054 162.336 15.9272 162.258 15.0239C162.224 14.6254 162.406 14.4122 162.805 14.3843C163.151 14.3601 163.608 14.542 164.177 14.9298C164.758 15.3035 165.066 15.6963 165.101 16.1081C165.136 16.5066 165.098 17.0772 164.988 17.8199C165.624 17.7487 166.109 17.7015 166.441 17.6782C167.439 17.6085 167.957 17.7994 167.996 18.2511C168.021 18.5433 167.75 18.8162 167.183 19.0696C166.628 19.3089 165.763 19.5899 164.586 19.9128ZM171.74 25.3261C172.431 24.9571 173.001 24.2691 173.449 23.2622C173.898 22.2552 174.085 21.3267 174.012 20.4765C173.939 19.6263 173.768 19.0502 173.502 18.7481C172.958 19.1202 172.446 19.8576 171.966 20.9603C171.499 22.0621 171.301 23.0182 171.37 23.8285C171.439 24.6255 171.563 25.1247 171.74 25.3261ZM168.714 24.2147C168.571 22.5542 168.947 20.9442 169.843 19.3848C170.752 17.8244 171.712 17.0089 172.723 16.9382C173.734 16.8675 174.616 17.1667 175.37 17.8357C176.122 18.4913 176.542 19.324 176.629 20.3336C176.715 21.3299 176.563 22.3628 176.174 23.4325C175.784 24.5021 175.187 25.4126 174.382 26.1638C173.576 26.9017 172.681 27.3051 171.696 27.3739C170.965 27.4251 170.305 27.1438 169.717 26.5301C169.129 25.9164 168.794 25.1446 168.714 24.2147ZM190.742 15.6983C191.261 15.662 191.723 15.9772 192.128 16.6437C192.534 17.3103 192.761 17.9292 192.81 18.5004C192.86 19.0717 192.82 19.9297 192.691 21.0747C192.574 22.2054 192.322 23.3123 191.934 24.3952C191.557 25.4639 191.097 26.0173 190.551 26.0555C190.112 26.0861 189.867 25.8026 189.816 25.2048C189.764 24.607 189.853 23.6186 190.082 22.2394C190.311 20.8603 190.407 19.9581 190.37 19.533C190.334 19.108 190.249 18.9001 190.116 18.9094C189.836 18.9289 189.53 19.2577 189.197 19.8957C188.864 20.5338 188.469 21.3833 188.012 22.4443C187.568 23.5044 187.292 24.1852 187.185 24.4867C187.077 24.7883 186.984 25.0287 186.905 25.2079C186.841 25.3861 186.763 25.572 186.673 25.7654C186.308 26.4992 185.742 26.5387 184.977 25.884C184.587 25.5504 184.379 25.2375 184.354 24.9453C184.349 24.8921 184.412 24.3799 184.542 23.4086C184.685 22.423 184.703 21.3125 184.596 20.0771C184.552 19.559 184.47 19.3042 184.35 19.3126C184.19 19.3237 184.018 19.4962 183.832 19.8298C183.647 20.1635 183.371 20.7642 183.004 21.6318C182.638 22.4994 182.318 23.2166 182.046 23.7836C181.092 25.7614 180.323 26.7707 179.738 26.8116C179.445 26.8321 179.058 26.6119 178.577 26.1511C178.109 25.6893 177.864 25.3323 177.842 25.0799C177.819 24.8142 177.912 24.1796 178.12 23.1761C178.34 22.1584 178.441 21.0889 178.425 19.9674C178.422 18.8451 178.427 17.9694 178.439 17.3404C178.465 16.7104 178.598 16.3871 178.837 16.3704C179.343 16.335 179.847 16.5136 180.349 16.9061C180.863 17.2845 181.135 17.6463 181.165 17.9917C181.233 18.7755 181.065 20.1637 180.661 22.1565C181.401 19.8729 182.056 18.317 182.627 17.4886C183.235 16.6308 183.852 16.1801 184.477 16.1363C184.823 16.1122 185.276 16.4012 185.837 17.0035C186.41 17.6049 186.721 18.1845 186.77 18.7424C186.816 19.2871 186.851 19.7658 186.873 20.1785C187.196 19.1135 187.739 18.1134 188.501 17.178C189.264 16.2427 190.011 15.7494 190.742 15.6983ZM201.955 22.1108C201.875 21.1809 202.079 20.1376 202.568 18.9808C203.057 17.824 203.74 16.8141 204.615 15.951C205.504 15.087 206.408 14.6229 207.325 14.5587C207.791 14.5261 208.296 14.7982 208.841 15.3748C209.385 15.9382 209.677 16.459 209.718 16.9372C209.748 17.2826 209.603 17.4665 209.284 17.4888C209.125 17.5 208.899 17.4422 208.607 17.3157C208.315 17.1891 208.023 17.136 207.73 17.1565C207.437 17.1769 207.04 17.4586 206.538 18.0015C206.049 18.5303 205.621 19.1615 205.257 19.8953C204.904 20.6149 204.745 21.174 204.779 21.5725C204.813 21.971 204.909 22.225 205.065 22.3343C205.235 22.4427 205.613 22.4764 206.198 22.4355C206.797 22.3936 207.331 22.3028 207.8 22.1631C208.283 22.0224 208.633 21.891 208.85 21.7689C209.079 21.6326 209.287 21.558 209.473 21.545C209.846 21.5189 210.046 21.6653 210.073 21.9841C210.124 22.5686 209.663 23.2022 208.692 23.8849C207.719 24.5543 206.721 24.9248 205.696 24.9964C205.045 25.042 204.269 24.7354 203.369 24.0767C202.481 23.4037 202.01 22.7484 201.955 22.1108ZM214.624 22.3274C215.315 21.9584 215.884 21.2704 216.333 20.2634C216.781 19.2565 216.969 18.3279 216.895 17.4778C216.822 16.6276 216.652 16.0515 216.385 15.7494C215.842 16.1215 215.33 16.8589 214.85 17.9616C214.383 19.0634 214.184 20.0194 214.254 20.8298C214.323 21.6268 214.446 22.126 214.624 22.3274ZM211.598 21.216C211.455 19.5555 211.831 17.9455 212.727 16.3861C213.636 14.8257 214.596 14.0102 215.607 13.9395C216.618 13.8688 217.5 14.168 218.253 14.8369C219.006 15.4926 219.425 16.3253 219.513 17.3349C219.598 18.3312 219.447 19.3641 219.057 20.4338C218.668 21.5034 218.07 22.4138 217.265 23.1651C216.459 23.903 215.564 24.3064 214.58 24.3752C213.848 24.4264 213.188 24.1451 212.6 23.5314C212.012 22.9177 211.678 22.1459 211.598 21.216ZM222.531 7.86247C222.85 7.84014 223.287 8.10356 223.843 8.65271C224.399 9.20187 224.7 9.74213 224.746 10.2735C224.791 10.8049 224.793 11.7602 224.752 13.1397C224.709 14.5058 224.636 15.6001 224.533 16.4225C223.844 21.3085 223.28 23.7669 222.841 23.7976C222.548 23.818 222.162 23.6111 221.683 23.1769C221.216 22.7284 220.97 22.3514 220.943 22.0459C220.941 22.0193 221.061 21.316 221.303 19.9359C221.546 18.5558 221.755 16.7905 221.931 14.6399C222.119 12.4752 222.129 10.423 221.962 8.48357C221.929 8.09833 222.118 7.8913 222.531 7.86247ZM229.022 21.3206C229.713 20.9515 230.283 20.2635 230.731 19.2566C231.18 18.2497 231.367 17.3211 231.294 16.4709C231.221 15.6207 231.05 15.0446 230.784 14.7425C230.24 15.1146 229.728 15.852 229.248 16.9548C228.781 18.0566 228.583 19.0126 228.652 19.8229C228.721 20.62 228.845 21.1192 229.022 21.3206ZM225.996 20.2091C225.853 18.5486 226.229 16.9387 227.125 15.3792C228.034 13.8189 228.994 13.0034 230.005 12.9327C231.016 12.862 231.898 13.1611 232.652 13.8301C233.404 14.4858 233.824 15.3184 233.911 16.328C233.997 17.3243 233.845 18.3573 233.456 19.4269C233.066 20.4966 232.469 21.407 231.664 22.1582C230.858 22.8962 229.963 23.2996 228.978 23.3684C228.247 23.4195 227.587 23.1383 226.999 22.5245C226.411 21.9108 226.076 21.139 225.996 20.2091ZM235.985 15.9224L235.671 13.6791C235.607 12.9352 235.807 12.547 236.273 12.5145C236.539 12.4958 236.807 12.5773 237.077 12.7589C237.36 12.9396 237.586 13.2378 237.756 13.6536C238.174 13.2235 238.638 12.8702 239.15 12.5939C239.673 12.3034 240.141 12.1437 240.554 12.1149C241.525 12.047 242.03 12.2455 242.07 12.7104C242.091 12.9495 242.06 13.1321 241.977 13.2582C241.906 13.3701 241.847 13.4544 241.798 13.5113C241.763 13.5672 241.689 13.6458 241.578 13.7472C241.478 13.8343 241.403 13.8997 241.354 13.9433C241.065 14.1639 240.858 14.3188 240.731 14.4078C240.165 14.8216 239.692 15.309 239.312 15.8702C238.931 16.418 238.674 17.1643 238.542 18.1091C238.314 19.6618 238.06 20.8289 237.78 21.6103C237.511 22.3774 237.164 22.7759 236.739 22.8057C236.326 22.8345 235.997 22.6571 235.749 22.2735C235.516 21.8889 235.384 21.5239 235.354 21.1785C235.323 20.8199 235.404 20.2797 235.596 19.5579C235.801 18.8353 235.928 18.2183 235.978 17.707C236.04 17.1815 236.042 16.5866 235.985 15.9224ZM97.9672 50.8919C98.2249 51.0877 98.3613 51.2719 98.3761 51.4446C98.391 51.6173 98.3422 51.9816 98.2295 52.5374C98.1169 53.0932 98.0471 53.5257 98.0203 53.835C97.9922 54.1309 97.9657 54.3667 97.9407 54.5422C97.929 54.7167 97.9211 54.8576 97.917 54.9648C97.9117 55.0587 97.8954 55.1801 97.8681 55.329C97.8541 55.477 97.8378 55.5984 97.8192 55.6933C97.8128 55.7739 97.7948 55.8754 97.7652 55.9978C97.7477 56.1059 97.7219 56.1946 97.6877 56.2638C97.6524 56.3197 97.611 56.3827 97.5635 56.4529C97.4929 56.5647 97.3645 56.6272 97.1783 56.6402C96.9921 56.6532 96.7433 56.4835 96.4319 56.1311C96.1338 55.7777 95.8953 55.34 95.7165 54.818C94.5762 56.1807 93.5804 56.8918 92.7291 56.9513C92.1572 56.9913 91.5118 56.7224 90.7929 56.1445C90.0729 55.5534 89.686 54.9457 89.6321 54.3213C89.5771 53.6837 89.7852 52.7604 90.2564 51.5514C90.7275 50.3424 91.4123 49.2053 92.3106 48.1402C93.2223 47.0741 94.1636 46.5071 95.1345 46.4393C95.6932 46.4002 96.3663 46.6805 97.154 47.2803C97.9417 47.8801 98.359 48.4523 98.406 48.9969C98.4518 49.5283 98.3055 50.1599 97.9672 50.8919ZM92.4328 54.4462C92.9649 54.409 93.6389 54.001 94.4549 53.2223C95.2831 52.4294 95.756 51.4742 95.8738 50.3567C95.8733 50.1964 95.9784 50.0955 96.1889 50.054C96.0837 49.2996 95.9247 48.9299 95.7119 48.9447C95.1798 48.982 94.6111 49.3692 94.0056 50.1065C93.4134 50.8428 92.9383 51.6177 92.5802 52.4313C92.2355 53.2439 92.0792 53.8361 92.1112 54.2081C92.1204 54.3144 92.14 54.3865 92.17 54.4245C92.2122 54.4483 92.2998 54.4555 92.4328 54.4462ZM106.602 45.6374C107.293 45.589 107.926 45.8589 108.498 46.4469C109.083 47.0208 109.406 47.6598 109.466 48.3638C109.564 49.493 109.479 50.6883 109.214 51.9497C108.96 53.197 108.642 54.168 108.26 54.8629C107.892 55.5569 107.482 55.9197 107.03 55.9513C106.591 55.982 106.344 55.6852 106.29 55.0608C106.249 54.5826 106.386 53.6042 106.7 52.1255C106.929 50.9067 107.021 50.0382 106.977 49.5202C106.932 49.0021 106.843 48.7477 106.71 48.757C106.537 48.7691 106.372 48.8675 106.214 49.0523C106.069 49.2362 105.949 49.3982 105.854 49.5385C105.759 49.6788 105.648 49.8603 105.52 50.0831C105.404 50.2917 105.3 50.486 105.209 50.6661C105.13 50.8321 105.022 51.0534 104.885 51.3303C104.76 51.5929 104.659 51.8138 104.581 51.993C104.501 52.159 104.4 52.3799 104.277 52.6558C103.239 55.0537 102.368 56.2773 101.663 56.3266C101.383 56.3461 101.01 56.1317 100.543 55.6832C100.075 55.2215 99.8316 54.8777 99.8121 54.6518C99.7995 54.5057 99.8657 54.187 100.011 53.6958C100.168 53.1903 100.275 52.8086 100.333 52.5506C100.404 52.2784 100.453 51.9944 100.481 51.6984C100.522 51.4015 100.548 51.0856 100.56 50.7507C100.57 50.4025 100.573 50.135 100.571 49.9481C100.581 49.7602 100.583 49.4661 100.575 49.0658C100.546 47.3305 100.563 46.367 100.627 46.1755C100.704 45.983 100.796 45.883 100.902 45.8756C101.407 45.8402 101.911 46.0188 102.413 46.4114C102.914 46.7906 103.18 47.1529 103.21 47.4983C103.281 48.3219 103.17 49.5191 102.877 51.0898C103.611 49.515 104.289 48.2247 104.912 47.2189C105.546 46.199 106.11 45.6718 106.602 45.6374ZM117.792 45.3561C117.843 45.0184 118.048 44.837 118.407 44.8119C118.766 44.7868 119.152 44.987 119.563 45.4126C119.988 45.8373 120.225 46.3353 120.274 46.9065C120.302 47.2386 120.228 47.7717 120.05 48.5057C119.873 49.2398 119.744 49.7633 119.664 50.0763C119.597 50.3884 119.494 50.8166 119.353 51.361C119.212 51.8921 119.081 52.389 118.96 52.8518C118.851 53.3004 118.696 53.906 118.494 54.6685C118.306 55.4301 118.133 56.1371 117.975 56.7896C117.666 58.014 117.24 58.9726 116.697 59.6654C116.168 60.3572 115.431 60.7362 114.487 60.8022C113.543 60.8683 112.676 60.6749 111.888 60.2222C111.101 59.7828 110.685 59.3107 110.642 58.8059C110.616 58.5003 110.719 58.1523 110.953 57.7617C111.201 57.3703 111.417 57.168 111.603 57.155C111.803 57.141 112.069 57.2761 112.401 57.5603C112.748 57.8568 113.101 58.1462 113.459 58.4284C113.82 58.724 114.126 58.8629 114.379 58.8453C114.551 58.8332 114.684 58.7437 114.777 58.5769C114.883 58.4091 114.963 58.2565 115.018 58.119C115.088 57.9938 115.153 57.8156 115.213 57.5841C115.275 57.366 115.331 57.1616 115.381 56.971C115.432 56.7804 115.49 56.5291 115.557 56.217C115.624 55.905 115.68 55.6271 115.726 55.3833C115.89 54.6501 116.028 53.999 116.14 53.4299C115.75 54.0318 115.337 54.5218 114.901 54.8997C114.465 55.2644 114.047 55.4606 113.648 55.4885C113.262 55.5155 112.751 55.2572 112.116 54.7136C111.492 54.1558 111.15 53.5249 111.089 52.8209C111.027 52.1035 111.098 51.1364 111.301 49.9194C111.517 48.7015 111.818 47.6114 112.203 46.6489C112.588 45.6865 112.961 45.1927 113.32 45.1676C113.732 45.1388 114.133 45.2912 114.523 45.6247C114.925 45.9441 115.141 46.2698 115.169 46.6019C115.197 46.9207 115.075 47.4504 114.805 48.191C114.547 48.9306 114.289 49.7372 114.03 50.6106C113.771 51.4841 113.667 52.2197 113.718 52.8174C113.725 52.8971 113.762 52.9347 113.828 52.93C114.001 52.9179 114.34 52.5735 114.843 51.8968C115.346 51.2069 115.892 50.2465 116.482 49.0159C117.083 47.771 117.52 46.5511 117.792 45.3561ZM126.044 46.6633C125.969 47.0294 125.853 47.5454 125.696 48.2112C125.551 48.8628 125.368 49.6841 125.146 50.6753C124.937 51.6655 124.835 52.1938 124.841 52.2602C124.845 52.3133 124.954 52.3325 125.167 52.3176C125.393 52.3018 125.906 52.1189 126.705 51.769C127.504 51.4058 127.976 51.2191 128.122 51.2088C128.455 51.1856 128.64 51.3998 128.679 51.8515C128.718 52.3031 128.32 52.8789 127.483 53.5789C126.646 54.2655 125.742 54.6428 124.771 54.7107C124.345 54.7405 123.82 54.5433 123.195 54.1193C122.569 53.6953 122.236 53.2442 122.195 52.766C122.16 52.3674 122.288 51.5166 122.577 50.2134C122.878 48.896 123.081 47.9931 123.186 47.5047C122.68 47.6871 122.294 47.7876 122.028 47.8062C121.762 47.8248 121.467 47.665 121.144 47.3268C120.819 46.9753 120.642 46.6335 120.614 46.3014C120.577 45.8763 121.577 45.4455 123.613 45.0091C123.76 43.756 123.794 42.6778 123.716 41.7745C123.681 41.376 123.864 41.1628 124.263 41.1349C124.609 41.1107 125.066 41.2925 125.635 41.6804C126.215 42.0541 126.524 42.4468 126.559 42.8586C126.593 43.2572 126.556 43.8278 126.446 44.5705C127.082 44.4993 127.566 44.4521 127.899 44.4288C128.896 44.359 129.415 44.55 129.454 45.0016C129.479 45.2939 129.208 45.5668 128.641 45.8202C128.086 46.0595 127.221 46.3405 126.044 46.6633ZM131.759 39.1072C131.711 38.5493 131.906 38.255 132.345 38.2243C132.704 38.1992 133.142 38.4692 133.659 39.0345C134.176 39.5997 134.453 40.0949 134.49 40.52C134.527 40.945 134.492 41.5489 134.385 42.3314C134.279 43.114 134.16 43.8306 134.029 44.4813C133.911 45.131 133.723 46.0596 133.466 47.2669C133.208 48.4611 133.032 49.2952 132.939 49.7695C133.652 47.9555 134.44 46.4638 135.303 45.2942C136.179 44.1238 136.943 43.5157 137.594 43.4702C138.007 43.4413 138.51 43.7736 139.105 44.467C139.699 45.1472 140.022 45.7795 140.072 46.364C140.121 46.9352 140.087 47.7795 139.969 48.897C139.851 50.0145 139.571 51.1032 139.127 52.1633C138.683 53.2234 138.182 53.7729 137.623 53.812C137.184 53.8427 136.938 53.5459 136.884 52.9215C136.845 52.4699 136.914 51.7233 137.092 50.6818C137.346 49.1272 137.459 48.1838 137.43 47.8517C137.402 47.5196 137.334 47.3573 137.228 47.3647C136.456 47.4187 135.436 48.7796 134.168 51.4476C133.738 52.3597 133.368 53.0404 133.059 53.4897C132.763 53.938 132.462 54.1729 132.156 54.1943C131.851 54.2157 131.457 53.996 130.976 53.5351C130.508 53.0734 130.262 52.7097 130.239 52.444C130.215 52.165 130.233 51.7561 130.294 51.2173C130.368 50.6776 130.476 49.9083 130.617 48.9095C130.772 47.9097 131.004 46.1027 131.314 43.4884C131.636 40.8599 131.784 39.3995 131.759 39.1072ZM142.656 40.6104C142.627 40.265 142.749 39.9023 143.024 39.5223C143.311 39.128 143.601 38.9206 143.894 38.9002C144.2 38.8788 144.59 39.2123 145.064 39.9008C145.538 40.5893 145.79 41.0996 145.818 41.4317C145.846 41.7506 145.76 42.0037 145.563 42.1913C145.365 42.3789 145.153 42.4806 144.926 42.4964C144.541 42.5234 144.073 42.3021 143.524 41.8327C142.975 41.3632 142.686 40.9558 142.656 40.6104ZM143.17 43.0803C143.636 43.0477 144.071 43.2846 144.476 43.7908C144.894 44.2961 145.125 44.7945 145.167 45.286C145.189 45.5384 145.034 46.4647 144.704 48.0647C144.386 49.6506 144.061 51.1568 143.729 52.5832C143.614 53.1124 143.31 53.3943 142.818 53.4287C142.526 53.4491 142.257 53.361 142.013 53.1643C141.78 52.9533 141.649 52.6752 141.62 52.3298C141.589 51.9711 141.679 51.0827 141.892 49.6647C142.116 48.2324 142.272 47.0187 142.36 46.0236C142.461 45.0142 142.565 44.2786 142.672 43.8167C142.791 43.3406 142.958 43.0951 143.17 43.0803ZM153.441 42.3621C154.132 42.3137 154.764 42.5836 155.337 43.1717C155.922 43.7455 156.244 44.3845 156.305 45.0885C156.402 46.2177 156.318 47.413 156.052 48.6744C155.799 49.9217 155.481 50.8928 155.099 51.5877C154.731 52.2816 154.321 52.6444 153.868 52.676C153.429 52.7067 153.183 52.4099 153.129 51.7855C153.088 51.3073 153.224 50.3289 153.538 48.8502C153.768 47.6314 153.86 46.763 153.816 46.2449C153.771 45.7268 153.682 45.4724 153.549 45.4817C153.376 45.4938 153.211 45.5923 153.053 45.777C152.908 45.9609 152.788 46.123 152.693 46.2632C152.598 46.4035 152.487 46.585 152.359 46.8078C152.243 47.0164 152.139 47.2107 152.048 47.3909C151.968 47.5568 151.86 47.7782 151.724 48.055C151.599 48.3176 151.498 48.5385 151.419 48.7178C151.34 48.8837 151.239 49.1046 151.115 49.3805C150.078 51.7784 149.206 53.002 148.501 53.0513C148.222 53.0709 147.849 52.8564 147.382 52.4079C146.914 51.9462 146.67 51.6024 146.651 51.3766C146.638 51.2304 146.704 50.9118 146.849 50.4205C147.007 49.915 147.114 49.5333 147.172 49.2753C147.242 49.0032 147.292 48.7191 147.32 48.4231C147.361 48.1262 147.387 47.8103 147.398 47.4754C147.409 47.1272 147.412 46.8597 147.409 46.6728C147.42 46.485 147.421 46.1909 147.414 45.7905C147.384 44.0552 147.402 43.0917 147.466 42.9002C147.543 42.7077 147.634 42.6077 147.741 42.6003C148.246 42.565 148.75 42.7436 149.252 43.1361C149.753 43.5153 150.019 43.8777 150.048 44.223C150.119 45.0467 150.009 46.2438 149.716 47.8145C150.45 46.2397 151.128 44.9494 151.75 43.9437C152.385 42.9237 152.948 42.3965 153.441 42.3621ZM165.398 45.856C165.617 46.0678 165.74 46.3332 165.767 46.652C165.795 46.9708 165.696 47.372 165.47 47.8555C165.206 48.6758 164.999 49.686 164.848 50.8859C164.697 52.0859 164.526 53.0467 164.334 53.7684C164.156 54.5025 163.943 55.1322 163.694 55.6574C163.458 56.1818 163.108 56.6272 162.645 56.9937C162.181 57.3602 161.63 57.5658 160.992 57.6104C160.101 57.6727 159.277 57.4363 158.522 56.9011C157.767 56.3659 157.371 55.8857 157.334 55.4607C157.299 55.0489 157.379 54.6623 157.575 54.3012C157.773 53.9532 157.965 53.7728 158.151 53.7598C158.35 53.7458 158.546 53.8391 158.737 54.0395C158.942 54.239 159.127 54.4532 159.294 54.6821C159.476 54.9233 159.702 55.1414 159.973 55.3363C160.244 55.5312 160.532 55.6179 160.838 55.5965C161.144 55.5751 161.406 55.3563 161.625 54.9401C161.843 54.5239 161.999 54.0787 162.092 53.6045C162.33 52.4919 162.469 51.7004 162.509 51.2299C161.653 51.851 160.939 52.1816 160.367 52.2216C159.808 52.2607 159.236 51.9933 158.652 51.4194C158.066 50.8323 157.749 50.2664 157.702 49.7217C157.654 49.1638 157.741 48.4628 157.963 47.6187C158.196 46.7604 158.51 45.9032 158.905 45.0471C159.312 44.1767 159.848 43.4175 160.515 42.7695C161.195 42.1205 161.901 41.7705 162.632 41.7193C163.125 41.6849 163.554 41.7818 163.922 42.01C164.288 42.225 164.569 42.5328 164.764 42.9334C165.105 43.6312 165.315 44.4318 165.393 45.3351C165.404 45.4679 165.406 45.6416 165.398 45.856ZM160.148 49.4505C160.163 49.6232 160.243 49.7044 160.39 49.6942C160.775 49.6672 161.37 49.2715 162.174 48.507C162.978 47.7425 163.496 47.0046 163.729 46.2934L163.697 45.9148C163.622 45.0513 163.497 44.5322 163.321 44.3573C163.234 44.2699 163.123 44.2309 162.99 44.2402C162.352 44.2848 161.705 45.005 161.049 46.4006C160.393 47.7962 160.093 48.8129 160.148 49.4505Z" fill="#FF5B90"/>
<defs>
<linearGradient id="paint0_linear_150_778" x1="57.5075" y1="53.5568" x2="-23.3126" y2="87.6901" gradientUnits="userSpaceOnUse">
<stop stop-color="#D0D0D0"/>
<stop offset="1" stop-color="#DCDCDC" stop-opacity="0.17"/>
</linearGradient>
</defs>
</svg>
