<?xml version="1.0" encoding="UTF-8"?>
<svg xmlns="http://www.w3.org/2000/svg" width="50" height="50" viewBox="0 0 50 50" fill="none">
  <g clip-path="url(#clip0_14486_571)">
    <path d="M21.2496 50.0001C20.9111 49.8572 20.5595 49.7403 20.234 49.5583C19.2444 48.9736 18.7887 48.0641 18.6975 46.8816C18.2157 46.8816 17.734 46.8816 17.2522 46.8816C15.846 46.8686 14.8043 45.9071 14.8043 44.5947C14.8043 43.2954 15.8329 42.3078 17.2522 42.2948C17.721 42.2948 18.1897 42.2948 18.5413 42.2948C18.8668 41.4892 19.1793 40.7486 19.5048 39.93C18.9059 39.4492 18.4762 38.7086 18.372 37.76C17.8772 37.799 17.3954 37.825 16.9137 37.877C15.5725 38.0199 14.4657 37.1883 14.2965 35.9019C14.1272 34.6155 14.9736 33.511 16.3017 33.3291C17.0699 33.2252 17.8512 33.1732 18.6324 33.1212C19.1793 33.0823 19.4397 33.3161 19.4918 33.8749C19.609 35.1093 19.7001 36.3307 19.8303 37.5651C19.9475 38.6826 20.6506 39.2283 21.7574 39.1244C24.2053 38.9165 26.6402 38.7086 29.0881 38.5007C30.4163 38.3837 30.9892 37.6691 30.846 36.3567C30.7027 35.0183 30.5986 33.68 30.4944 32.3286C30.3902 31.0422 29.6741 30.4575 28.385 30.5875C26.0152 30.8083 23.6324 31.0033 21.2496 31.2112C20.7288 31.2631 20.221 31.3671 19.7001 31.3671C18.398 31.3671 17.2392 30.5095 16.8225 29.2751C16.7704 29.1192 16.7314 28.9762 16.6663 28.7813C16.1975 28.8593 15.7418 28.9372 15.273 29.0282C13.8928 29.2881 12.6689 28.5214 12.4475 27.2351C12.2001 25.8967 13.0335 24.7533 14.4397 24.5064C14.8954 24.4284 15.3642 24.3504 15.7678 24.2725C15.885 23.5318 15.9892 22.8302 16.1064 22.0765C15.1689 21.7257 14.4527 21.024 14.1272 19.9066C13.5543 20.0495 12.9944 20.2054 12.4345 20.3354C11.523 20.5303 10.7548 20.2314 10.1819 19.5298C9.60898 18.8151 9.51783 17.9965 9.88242 17.1519C10.1819 16.4892 10.7027 16.0864 11.3928 15.8785C11.8876 15.7356 12.3824 15.6056 12.8121 15.4887C12.8642 14.7351 12.9163 14.0594 12.9553 13.3317C11.9006 13.0849 11.1194 12.4092 10.6897 11.3307C10.1689 11.5126 9.6871 11.6945 9.20533 11.8634C7.96835 12.2792 6.69231 11.7075 6.2496 10.5381C5.79387 9.34265 6.37981 8.05627 7.61679 7.56251C8.09856 7.3676 8.58033 7.19868 9.07512 7.01677C9.02304 6.66594 8.95794 6.34109 8.94491 6.02924C8.89283 4.69088 9.60898 3.52144 10.872 3.05367C13.4631 2.09213 16.0803 1.16957 18.6845 0.221029C18.7236 0.208035 18.7626 0.169054 18.8017 0.143066C19.1532 0.143066 19.5178 0.143066 19.8694 0.143066C21.0022 0.441923 21.8486 1.06562 22.2913 2.20907C22.8121 2.02716 23.2939 1.84525 23.7887 1.67633C25.0387 1.26053 26.3017 1.83226 26.7444 3.00169C27.1871 4.18413 26.6272 5.45752 25.4163 5.96427C24.9215 6.17217 24.4137 6.34109 23.9579 6.51001C23.984 7.04275 24.0881 7.54951 24.023 8.03028C23.9579 8.51105 23.7366 8.97883 23.5673 9.48558C24.9866 9.62851 26.0022 10.3692 26.484 11.8375C27.0178 11.7075 27.5256 11.5646 28.0465 11.4346C29.3095 11.1358 30.4814 11.7985 30.846 13.0069C31.1975 14.1763 30.5335 15.4367 29.3225 15.8395C28.8017 16.0085 28.2678 16.1384 27.747 16.2813C27.747 16.7491 27.8121 17.2169 27.734 17.6457C27.4996 18.932 26.7184 19.7507 25.4684 20.1275C24.7913 20.3354 24.1012 20.5043 23.4241 20.6862C24.023 22.7522 26.6272 24.5194 28.6454 24.2335C28.5282 23.5318 28.359 22.8432 28.2939 22.1285C28.2678 21.8686 28.4111 21.5178 28.5934 21.3359C28.7236 21.206 29.0881 21.2189 29.3095 21.2969C29.4918 21.3619 29.622 21.5958 29.8173 21.8037C30.2861 21.7257 30.8069 21.6347 31.3407 21.5568C32.6559 21.3749 33.7626 22.1805 33.984 23.4929C34.1793 24.6623 33.372 25.8057 32.135 26.0656C31.6142 26.1826 31.0803 26.2605 30.5986 26.3515C30.5335 26.8712 30.5465 27.391 30.4032 27.8588C30.26 28.3265 29.9605 28.7423 29.7131 29.2101C30.9762 29.6519 31.7704 30.5485 31.9527 31.9648C32.4475 31.9258 32.8902 31.8868 33.346 31.8478C34.7522 31.7049 35.898 32.5625 36.0543 33.9009C36.1975 35.1613 35.221 36.2657 33.8277 36.4217C33.359 36.4736 32.8902 36.5126 32.3824 36.5646C32.3954 37.747 31.9788 38.7215 30.9762 39.4492C32.109 40.0729 32.6819 41.0085 32.76 42.3208C33.3199 42.3208 33.8668 42.3078 34.4137 42.3208C35.5986 42.3598 36.5751 43.2824 36.6532 44.4258C36.7444 45.6212 35.9371 46.6607 34.7392 46.8556C34.3095 46.9206 33.8668 46.8946 33.4241 46.9076C33.2157 46.9076 33.0074 46.9076 32.9032 46.9076C32.6428 47.5573 32.4736 48.168 32.1741 48.7008C31.7574 49.4414 31.0022 49.7792 30.221 50.0391C27.2262 50.0001 24.2314 50.0001 21.2496 50.0001ZM25.7157 48.5318C26.9788 48.5318 28.2548 48.5318 29.5178 48.5318C30.6116 48.5318 31.2756 47.8692 31.2756 46.7647C31.2887 45.2834 31.2887 43.8151 31.2756 42.3338C31.2756 41.2813 30.6376 40.6056 29.596 40.5927C27.0309 40.5667 24.4657 40.5797 21.9006 40.5927C20.8329 40.6056 20.1949 41.2813 20.1949 42.3598C20.1819 43.8151 20.1949 45.2834 20.1949 46.7387C20.1949 47.8692 20.859 48.5318 21.9788 48.5318C23.2157 48.5318 24.4657 48.5318 25.7157 48.5318ZM13.7626 11.8894C13.8147 11.8764 13.997 11.8634 14.1663 11.7985C16.6402 10.9019 19.1012 10.0183 21.5621 9.10876C22.4345 8.78392 22.8251 7.92633 22.5126 7.04276C22.0048 5.57446 21.471 4.11916 20.9241 2.66386C20.5855 1.76729 19.7392 1.35149 18.8407 1.66334C16.3668 2.54691 13.9059 3.44348 11.4449 4.36604C10.5986 4.67789 10.2079 5.53548 10.5074 6.39307C11.0282 7.88735 11.5751 9.38163 12.135 10.8759C12.3694 11.5256 12.9553 11.8894 13.7626 11.8894ZM26.3147 17.0609C26.3147 17.009 26.3147 16.905 26.2887 16.8141C25.859 15.2028 25.4553 13.5786 24.9736 11.9804C24.7392 11.1878 23.9059 10.772 23.0986 10.9799C20.5595 11.6425 18.0204 12.3182 15.4944 13.0069C14.596 13.2538 14.1142 14.0594 14.3355 14.969C14.7262 16.5152 15.1428 18.0355 15.5725 19.5687C15.8199 20.4393 16.6272 20.8811 17.5126 20.6732C17.9293 20.5823 18.3329 20.4653 18.7366 20.3614C20.8069 19.8026 22.8642 19.2569 24.9345 18.6982C25.8329 18.4643 26.3147 17.8925 26.3147 17.0609ZM25.5335 25.1561C25.5335 25.195 25.5204 25.312 25.5074 25.4419C25.3512 26.6633 24.4527 27.5339 23.2939 27.5729C22.135 27.6119 21.1845 26.8193 20.9501 25.5978C20.859 25.1561 20.7809 24.7013 20.7027 24.2595C20.6116 23.7397 20.846 23.3629 21.2756 23.298C21.7184 23.22 22.0439 23.4799 22.148 23.9996C22.2392 24.4934 22.3173 24.9871 22.4345 25.4809C22.5517 25.9357 22.9814 26.1956 23.398 26.0916C23.8277 25.9877 24.1142 25.6108 24.0621 25.1431C23.971 24.4154 23.8928 23.6878 23.2418 23.194C23.0855 23.0771 22.9814 22.9081 22.8772 22.7392C22.5517 22.1805 22.2392 21.6218 21.9137 21.037C20.846 21.3229 19.7652 21.6088 18.6845 21.9206C17.747 22.1805 17.2262 22.9081 17.3694 23.8567C17.6168 25.4549 17.8902 27.0531 18.2157 28.6514C18.385 29.509 19.1793 29.9897 20.0517 29.8598C20.885 29.7299 21.7184 29.5739 22.5387 29.431C24.2314 29.1322 25.9241 28.8463 27.6168 28.5344C28.6845 28.3395 29.2053 27.6249 29.0621 26.5464C29.023 26.2735 28.971 26.0136 28.9449 25.8447C27.76 25.5978 26.6532 25.377 25.5335 25.1561ZM32.0569 33.3941C32.109 33.9788 32.1611 34.4856 32.2131 35.0573C32.8121 35.0053 33.372 34.9664 33.9319 34.8884C34.3355 34.8234 34.609 34.4336 34.5829 34.0438C34.5569 33.615 34.2053 33.2512 33.7496 33.2642C33.2027 33.2642 32.6559 33.3421 32.0569 33.3941ZM23.372 5.11968C23.9449 4.91178 24.4657 4.74286 24.9736 4.52196C25.3772 4.34005 25.5335 3.89826 25.3902 3.49546C25.234 3.07966 24.8173 2.85876 24.3616 2.9887C23.8407 3.15762 23.3329 3.35253 22.7991 3.54743C22.9944 4.08018 23.1767 4.56095 23.372 5.11968ZM13.3199 16.8401C12.76 16.996 12.2392 17.1129 11.7314 17.2688C11.3017 17.3988 11.0803 17.8016 11.1585 18.2044C11.2366 18.6332 11.6142 18.958 12.0309 18.8801C12.6038 18.7761 13.1767 18.5942 13.7626 18.4513C13.6064 17.8925 13.4762 17.3988 13.3199 16.8401ZM10.2079 9.91438C9.9996 9.35565 9.81731 8.86188 9.63502 8.34213C9.07512 8.55003 8.56731 8.70596 8.08554 8.91386C7.65585 9.09577 7.47356 9.53756 7.62981 9.96635C7.77304 10.3692 8.21575 10.603 8.65846 10.4731C9.15325 10.3042 9.64804 10.1093 10.2079 9.91438ZM26.8616 13.2148C27.0178 13.7735 27.148 14.2803 27.2913 14.826C27.8512 14.6831 28.372 14.5661 28.8668 14.3972C29.3355 14.2413 29.5569 13.7995 29.4267 13.3577C29.3095 12.9419 28.8798 12.695 28.4241 12.799C27.9293 12.9159 27.4345 13.0589 26.8616 13.2148ZM18.0986 34.6025C17.4866 34.6675 16.9397 34.6935 16.4059 34.7844C15.9631 34.8494 15.7418 35.1743 15.7418 35.616C15.7418 36.0318 16.0673 36.4087 16.51 36.4087C17.0829 36.4087 17.6559 36.3307 18.2548 36.2787C18.2027 35.681 18.1506 35.1743 18.0986 34.6025ZM30.247 24.8832C30.859 24.7662 31.3928 24.6883 31.9267 24.5583C32.3564 24.4544 32.6038 24.0256 32.5256 23.6358C32.4345 23.194 32.0569 22.8951 31.6012 22.9601C31.0803 23.0251 30.5595 23.142 29.9736 23.246C30.0647 23.7787 30.1559 24.2985 30.247 24.8832ZM16.1585 25.6628C15.5725 25.7668 15.0517 25.8317 14.5309 25.9487C14.0881 26.0396 13.8407 26.4294 13.8928 26.8453C13.9449 27.2481 14.2574 27.5989 14.6741 27.5599C15.26 27.5209 15.846 27.391 16.4579 27.3C16.3538 26.7413 16.2626 26.2345 16.1585 25.6628ZM18.6975 43.7371C18.1246 43.7371 17.6038 43.7241 17.096 43.7371C16.6142 43.7501 16.2887 44.088 16.2756 44.5298C16.2626 44.9456 16.5621 45.3354 16.9918 45.3744C17.5517 45.4133 18.1116 45.3873 18.6975 45.3873C18.6975 44.8286 18.6975 44.3089 18.6975 43.7371ZM32.76 45.4003C33.3329 45.4003 33.8538 45.4133 34.3616 45.4003C34.8173 45.3744 35.1298 45.0625 35.1689 44.6467C35.2079 44.2439 34.9475 43.8151 34.5569 43.7761C33.9579 43.7241 33.346 43.7631 32.747 43.7631C32.76 44.3219 32.76 44.8286 32.76 45.4003Z" fill="white"></path>
    <path d="M44.1789 20.8939C44.1789 21.2967 43.9575 21.5436 43.5929 21.6215C41.3143 22.1413 39.0487 22.661 36.77 23.1678C36.3403 23.2588 35.9627 23.0119 35.8846 22.6091C35.8065 22.2063 36.0278 21.8424 36.4705 21.7385C38.7492 21.2187 41.0148 20.699 43.2935 20.1922C43.7622 20.0883 44.1659 20.4261 44.1789 20.8939Z" fill="white"></path>
    <path d="M35.8854 25.1431C37.2525 25.364 38.6718 25.5849 40.0911 25.8317C40.4947 25.9097 40.677 26.2215 40.638 26.6374C40.5989 27.0142 40.2343 27.313 39.8307 27.2481C38.4244 27.0402 37.0182 26.8193 35.6119 26.5724C35.2083 26.5074 34.9609 26.1176 35.026 25.7538C35.0911 25.377 35.4036 25.1301 35.8854 25.1431Z" fill="white"></path>
    <path d="M34.2702 20.5304C34.101 20.3875 33.7755 20.2446 33.7103 20.0237C33.6452 19.7768 33.7234 19.348 33.8926 19.218C35.0515 18.3605 36.2494 17.5548 37.4473 16.7492C37.7859 16.5283 38.1374 16.6063 38.3978 16.9311C38.6452 17.243 38.6062 17.6718 38.2546 17.9187C37.0827 18.7503 35.8848 19.5689 34.6869 20.3745C34.6218 20.4395 34.4916 20.4525 34.2702 20.5304Z" fill="white"></path>
    <path d="M25.1299 37.1232C23.997 37.1102 23.0335 36.2656 22.8903 35.1351C22.8252 34.6024 22.7731 34.0696 22.734 33.5369C22.695 33.0561 22.9814 32.7053 23.3981 32.6663C23.8148 32.6273 24.1273 32.9132 24.1924 33.4069C24.2444 33.8877 24.2705 34.3815 24.3356 34.8622C24.4137 35.395 24.8043 35.7068 25.2601 35.6419C25.7288 35.5769 26.0283 35.1741 25.9892 34.6543C25.9502 34.1996 25.8981 33.7448 25.859 33.303C25.82 32.8092 26.0543 32.4714 26.484 32.4064C26.9398 32.3544 27.2653 32.6143 27.3043 33.1471C27.3564 33.8617 27.4606 34.5764 27.3825 35.278C27.2392 36.3695 26.2236 37.1362 25.1299 37.1232Z" fill="white"></path>
    <path d="M28.0592 43.8802C28.0332 44.2311 28.0332 44.5949 27.9811 44.9457C27.8118 46.0372 26.8353 46.8558 25.7285 46.8558C24.6217 46.8558 23.6191 46.0372 23.4889 44.9457C23.4108 44.283 23.4238 43.6204 23.4499 42.9577C23.4629 42.5159 23.7754 42.269 24.179 42.282C24.5827 42.295 24.8561 42.5419 24.8821 42.9967C24.9082 43.4774 24.8821 43.9712 24.8952 44.452C24.9082 45.0237 25.2467 45.4005 25.7285 45.4005C26.2103 45.4005 26.5488 45.0367 26.5618 44.452C26.5748 43.9842 26.5618 43.5164 26.5749 43.0356C26.5879 42.5549 26.8483 42.282 27.278 42.269C27.6946 42.256 27.9811 42.5289 28.0202 42.9967C28.0202 43.0226 28.0202 43.0616 28.0202 43.0876C28.0202 43.3475 28.0202 43.6074 28.0202 43.8672C28.0462 43.8802 28.0462 43.8802 28.0592 43.8802Z" fill="white"></path>
    <path d="M18.8018 6.43218C18.8148 7.75755 18.0726 8.71908 17.07 8.96597C16.0023 9.22584 14.8825 8.71908 14.4398 7.71857C14.1924 7.17283 14.0101 6.6011 13.8148 6.02938C13.6846 5.62657 13.8799 5.26274 14.2445 5.11981C14.6091 4.97688 14.9997 5.13281 15.169 5.52262C15.3643 5.9774 15.5075 6.47116 15.6898 6.92595C15.8982 7.45869 16.3409 7.67958 16.7966 7.49767C17.2393 7.32875 17.4216 6.88696 17.2523 6.36721C17.1091 5.93842 16.9398 5.52262 16.7966 5.09382C16.6273 4.58707 16.7706 4.19725 17.1742 4.04133C17.5778 3.8854 17.9685 4.08031 18.1508 4.57407C18.4242 5.27574 18.6456 5.9774 18.8018 6.43218Z" fill="white"></path>
    <path d="M20.2995 18.1262C19.3359 18.1262 18.4505 17.5155 18.151 16.593C17.9687 16.0343 17.8255 15.4755 17.6953 14.9038C17.6042 14.501 17.8255 14.1242 18.1901 14.0332C18.5807 13.9293 18.9583 14.1112 19.0885 14.501C19.2448 14.9818 19.3489 15.4755 19.4922 15.9563C19.6484 16.502 20.0781 16.7749 20.5469 16.632C21.0156 16.502 21.237 16.0602 21.0937 15.5015C20.9766 15.0467 20.8463 14.5919 20.7422 14.1372C20.625 13.6694 20.8463 13.3056 21.263 13.2016C21.6536 13.1107 22.0052 13.3186 22.1354 13.7733C22.2917 14.2801 22.4219 14.7998 22.5521 15.3196C22.8646 16.7749 21.7838 18.1262 20.2995 18.1262Z" fill="white"></path>
  </g>
  <defs>
    <clipPath id="clip0_14486_571">
      <rect width="50" height="50" fill="white"></rect>
    </clipPath>
  </defs>
</svg>
