<?xml version="1.0" encoding="UTF-8"?>
<svg xmlns="http://www.w3.org/2000/svg" width="50" height="50" viewBox="0 0 50 50" fill="none">
  <g clip-path="url(#clip0_14486_599)">
    <path d="M50.0002 25.5338C49.6754 26.5234 49.4805 27.6041 48.9867 28.5026C48.428 29.4921 47.9732 30.4947 47.5834 31.5625C46.7388 33.8411 45.2185 35.5989 43.1525 36.875C43.0356 36.9531 42.9186 37.0312 42.8797 37.0442C43.4644 38.2161 44.0881 39.3359 44.5689 40.5078C45.3485 42.4349 45.6603 44.4791 45.8033 46.5364C45.8812 47.6822 45.1666 48.4244 44.0231 48.4244C43.2435 48.4244 42.4639 48.4375 41.6842 48.4244C40.7877 48.4114 40.164 47.9427 39.9691 47.0572C39.4753 44.8307 38.02 43.5026 35.993 42.6822C34.7586 42.1875 33.5112 41.7187 32.3417 41.1067C30.3537 40.0911 29.3661 38.3854 29.2622 36.1588C29.2622 36.0937 29.2492 36.0286 29.2362 35.9505C28.5345 35.8203 27.8199 35.7682 27.1572 35.5468C26.4036 35.2994 25.8968 35.4557 25.2731 35.9505C21.4919 38.9322 15.9176 37.7474 13.5917 33.5156C13.5138 33.3724 13.4358 33.2291 13.4098 33.177C12.2274 33.2552 11.0969 33.4244 9.96646 33.3984C5.11979 33.2812 0.818851 29.3229 0.221138 24.5182C0.19515 24.3619 0.156169 24.2057 0.117188 24.0494C0.117188 23.3724 0.117188 22.6822 0.117188 22.0052C0.143175 21.914 0.19515 21.8229 0.208144 21.7317C0.390057 20.2474 0.88382 18.8541 1.68943 17.6041C1.88434 17.3046 1.92332 17.0442 1.87135 16.7057C1.50752 14.5572 2.599 12.4349 4.57405 11.5234C4.98985 11.3281 5.13278 11.1067 5.18476 10.677C5.58756 6.901 9.2518 4.41402 12.942 5.41662C13.2799 5.50777 13.4488 5.42964 13.6697 5.16923C15.9046 2.55204 18.7113 1.45829 22.1286 2.03121C23.363 2.23954 24.4675 2.76037 25.507 3.45048C25.572 3.39839 25.6239 3.35933 25.6759 3.32027C28.1967 1.06767 31.4322 1.41923 33.4072 4.14058C33.4982 4.27079 33.7191 4.36194 33.875 4.36194C39.2414 4.28381 43.7113 7.85152 44.8027 13.138C44.8677 13.4635 44.9976 13.5807 45.3095 13.6588C48.0252 14.2708 49.7274 17.0442 48.9867 19.7265C48.8308 20.2864 48.9218 20.7031 49.1427 21.2109C49.5065 22.0572 49.7274 22.9817 50.0002 23.8671C50.0002 24.427 50.0002 24.9869 50.0002 25.5338ZM30.9254 36.0026C30.8085 37.4349 31.5361 38.8151 33.0304 39.6354C34.0439 40.1953 35.1484 40.625 36.2398 41.0286C38.8776 42.0052 40.7877 43.6718 41.5283 46.4843C41.5543 46.6015 41.6842 46.7578 41.7752 46.7708C42.5548 46.7968 43.3215 46.7838 44.244 46.7838C43.9841 45.3515 43.7892 43.9713 43.4904 42.6171C43.1265 41.0026 42.4899 39.5052 41.4503 38.1901C41.2424 37.9296 41.0475 37.8385 40.7097 37.9687C40.3329 38.1119 39.9301 38.177 39.5273 38.2682C38.8906 38.3984 38.4618 38.177 38.3448 37.6562C38.2279 37.1614 38.5527 36.7708 39.2024 36.6406C40.8916 36.302 42.3989 35.5859 43.6723 34.414C44.4649 33.6979 45.1146 32.8645 45.6084 31.901C45.5434 31.875 45.5304 31.8619 45.5174 31.8619C45.4524 31.875 45.3875 31.901 45.3355 31.927C42.3339 33.1901 39.5792 32.7864 37.0195 30.7942C36.8895 30.6901 36.6297 30.664 36.4737 30.7161C35.7461 30.9505 35.0184 31.0546 34.2648 30.8984C32.9654 30.638 31.9909 29.9218 31.3542 28.75C31.1723 28.4244 31.1333 28.0599 31.4192 27.8125C31.6271 27.6302 31.9779 27.4869 32.2248 27.526C32.4587 27.5651 32.7055 27.8385 32.8485 28.0599C33.4332 28.9322 34.2258 29.401 35.2783 29.2838C36.9935 29.0885 37.929 27.4609 37.3183 25.8333C37.0844 25.2083 37.2144 24.7526 37.7081 24.5703C38.2019 24.375 38.6307 24.6093 38.8646 25.2213C39.3973 26.5885 39.2674 27.8906 38.4748 29.1276C38.3838 29.2708 38.2799 29.414 38.1889 29.5572C40.4108 31.5234 43.9452 31.4453 46.245 29.388C48.5579 27.3307 48.8048 24.0104 47.6614 22.1224C47.2586 22.3958 46.8687 22.6822 46.4529 22.9296C45.9202 23.2421 45.4394 23.125 45.1926 22.6822C44.9457 22.2265 45.1146 21.7838 45.6603 21.4843C47.4145 20.4817 47.9992 18.4765 47.0117 16.8229C46.0242 15.1692 43.9581 14.7265 42.256 15.8072C41.7232 16.1458 41.2684 16.0937 40.9696 15.664C40.6837 15.2474 40.8007 14.7395 41.3334 14.427C41.9051 14.1015 42.5158 13.8411 43.1265 13.5416C42.9576 9.76558 37.7081 5.41662 34.1219 6.11975C34.1349 6.38017 34.2258 6.66662 34.1479 6.88798C34.0569 7.16142 33.862 7.49996 33.6151 7.61714C33.3942 7.72131 32.9914 7.63017 32.7965 7.46089C32.6146 7.30464 32.5366 6.95308 32.5106 6.67964C32.3547 5.20829 31.4192 4.03642 30.0548 3.67183C28.7165 3.26819 27.2871 3.78902 26.4815 4.94787C26.0787 5.52079 25.9228 6.17183 25.8708 6.87496C25.8318 7.38277 25.455 7.70829 25.0132 7.68225C24.5455 7.65621 24.1946 7.2786 24.2336 6.74475C24.2726 6.26298 24.3246 5.76819 24.4805 5.31246C24.6104 4.93485 24.5065 4.76558 24.1946 4.58329C22.2456 3.43746 20.1926 3.17704 18.0746 3.95829C15.8266 4.7786 14.3584 6.38017 13.6567 8.68485C13.4748 9.27079 13.059 9.51819 12.5652 9.36194C12.0974 9.21871 11.9025 8.776 12.0714 8.2161C12.1884 7.82548 12.3313 7.44787 12.4743 7.01819C11.0839 6.64058 9.79754 6.901 8.65409 7.72131C7.54962 8.51558 6.92592 9.59631 6.79598 10.9895C8.38122 11.0677 9.65461 11.6666 10.6161 12.8515C11.006 13.3333 10.993 13.8151 10.5902 14.1406C10.2003 14.4661 9.73257 14.375 9.31677 13.9062C8.38122 12.8255 7.19879 12.4088 5.82145 12.8125C4.48309 13.1901 3.66449 14.1276 3.45658 15.5078C3.24868 16.888 3.78143 17.9817 4.92488 18.789C5.44463 19.1536 5.57457 19.5963 5.28871 20.026C5.00284 20.4557 4.48309 20.5338 3.97634 20.1432C3.54754 19.8177 3.15773 19.4401 2.75492 19.0885C0.948789 22.2526 1.65045 26.6015 4.37914 29.3099C6.97789 31.888 10.7981 32.2265 12.7211 31.4322C12.6562 30.7291 12.5912 30.039 12.5262 29.3359C12.3703 29.3099 12.2144 29.2968 12.0585 29.2708C10.3563 29.0104 9.21282 28.0729 8.6411 26.4583C8.49816 26.0416 8.4332 25.5729 8.4202 25.1171C8.40721 24.6614 8.78403 24.3099 9.22582 24.2968C9.6676 24.2838 10.0054 24.5963 10.0574 25.0781C10.0704 25.2083 10.0834 25.3385 10.0964 25.4687C10.2653 26.6927 11.1879 27.5651 12.4093 27.6432C12.7081 27.6692 12.8641 27.5781 12.968 27.2656C13.1629 26.7187 13.3838 26.1718 13.7087 25.6901C13.8516 25.4687 14.2414 25.2734 14.5013 25.2994C14.7352 25.3125 15.06 25.5989 15.151 25.8333C15.2419 26.0546 15.138 26.4062 15.021 26.6536C14.5533 27.5651 14.2544 28.5156 14.2284 29.5312C14.1634 32.1484 15.6967 34.4921 18.0876 35.4817C20.4784 36.4713 23.1811 35.9114 24.9743 33.9974C25.429 33.5156 25.8448 33.4505 26.4426 33.6588C27.1572 33.9062 27.9108 34.0755 28.6515 34.1927C30.1328 34.427 31.5881 34.2448 33.0434 33.8802C33.3292 33.802 33.758 33.8541 33.9919 34.0234C34.5507 34.427 34.3038 35.2474 33.5891 35.4296C32.7185 35.664 31.822 35.8072 30.9254 36.0026Z" fill="white"></path>
    <path d="M20.8809 22.643C19.7504 22.643 18.6979 22.6561 17.6454 22.643C16.9957 22.63 16.6059 22.1743 16.7618 21.6014C16.8008 21.4712 16.8788 21.341 16.9697 21.2238C19.6854 17.4217 22.4011 13.6196 25.1168 9.8045C25.3637 9.45294 25.6886 9.25763 26.1173 9.40086C26.5721 9.54408 26.7021 9.89565 26.7021 10.3514C26.6891 12.591 26.7021 14.8305 26.7021 17.0701C26.7021 17.2394 26.7021 17.4217 26.7021 17.6561C27.5856 17.6561 28.4172 17.6561 29.2618 17.6561C29.4697 17.6561 29.7036 17.604 29.8855 17.6691C30.1844 17.7733 30.5352 17.8904 30.7301 18.1118C30.99 18.4113 30.8471 18.7759 30.6132 19.0884C29.4957 20.6509 28.3913 22.2003 27.2738 23.7628C25.7145 25.9373 24.1553 28.1248 22.609 30.2993C22.5571 30.3774 22.4921 30.4555 22.4401 30.5337C22.1932 30.8592 21.8944 31.0415 21.4786 30.9113C21.0368 30.7811 20.8809 30.4425 20.8809 30.0128C20.8809 29.5962 20.8809 29.1665 20.8809 28.7498C20.8809 26.9139 20.8809 25.0779 20.8809 23.242C20.8809 23.0727 20.8809 22.9035 20.8809 22.643ZM22.5441 27.3566C22.583 27.3696 22.622 27.3826 22.661 27.3956C24.5581 24.7264 26.4682 22.0571 28.4302 19.3227C27.5856 19.3227 26.871 19.3227 26.1693 19.3227C25.3247 19.3227 25.0648 19.0623 25.0519 18.229C25.0519 16.7706 25.0519 15.3123 25.0519 13.841C25.0519 13.5415 25.0519 13.242 25.0519 12.9425C25.0129 12.9295 24.9869 12.9295 24.9479 12.9165C23.0508 15.5727 21.1407 18.242 19.1917 20.9894C19.8803 20.9894 20.4521 20.9894 21.0238 20.9894C22.4401 20.9894 22.5571 21.1066 22.5571 22.4998C22.5441 24.1144 22.5441 25.729 22.5441 27.3566Z" fill="white"></path>
  </g>
  <defs>
    <clipPath id="clip0_14486_599">
      <rect width="50" height="50" fill="white"></rect>
    </clipPath>
  </defs>
</svg>
