<svg xmlns="http://www.w3.org/2000/svg" viewBox="0 0 558.43 255.22"><defs><style>.a{fill:#fed206;}.b{fill:#1d1d1c;}</style></defs><title>turkuamk-tuas</title><polygon class="a" points="525.43 49.89 558.42 36.22 553.67 24.74 519.55 38.88 533.68 4.75 522.2 0 508.54 33 494.87 0 483.39 4.75 497.25 38.22 463.4 24.2 458.65 35.67 492.96 49.89 458.65 64.1 463.4 75.58 496.59 61.83 482.85 95.02 494.32 99.78 508.54 65.46 522.75 99.78 534.23 95.02 520.21 61.17 553.67 75.03 558.42 63.56 525.43 49.89"/><polygon class="b" points="16.01 154.9 27.59 154.9 27.59 112.95 43.6 112.95 43.6 102.27 0 102.27 0 112.95 16.01 112.95 16.01 154.9"/><path class="b" d="M73.7,155.72c14.13,0,23.08-7.82,23.08-23.75V102.27H85.2v30.14c0,8.34-4.29,12.63-11.35,12.63S62.5,140.61,62.5,132V102.27H50.92v30.07c0,15.49,8.64,23.38,22.78,23.38"/><path class="b" d="M142.23,120.39c0,4.43-3.23,7.44-8.87,7.44H121.63V112.72h11.5c5.64,0,9.1,2.56,9.1,7.52Zm11.73-.6v-.15c0-5-1.58-9.1-4.51-12-3.46-3.46-8.65-5.34-15.34-5.34H110.06v25.55h-7.33v10.25h7.33v16.83h11.58V138.06h9.1L142,154.89h13.53L142.68,136.1c6.69-2.48,11.28-7.82,11.28-16.31"/><polygon class="b" points="163.44 154.9 175.02 154.9 175.02 138.81 181.11 132.49 197.42 154.9 211.33 154.9 188.93 124.6 210.35 102.27 196.37 102.27 175.02 125.28 175.02 102.27 163.44 102.27 163.44 154.9"/><path class="b" d="M238.52,155.72c14.13,0,23.08-7.82,23.08-23.75V102.27H250v30.14c0,8.34-4.29,12.63-11.35,12.63s-11.35-4.43-11.35-13V102.27H215.74v30.07c0,15.49,8.64,23.38,22.78,23.38"/><path class="b" d="M321.51,132.87h-14l7-17.07Zm21,22-22.55-53H309.33l-13.18,31h-9.33v10.25h5l-5,11.77h11.8l4.8-11.77h22.28l4.8,11.77Z"/><polygon class="b" points="348.42 154.9 359.77 154.9 359.77 120.77 374.43 143.02 374.73 143.02 389.54 120.54 389.54 154.9 401.04 154.9 401.04 102.27 388.56 102.27 374.73 124.52 360.9 102.27 348.42 102.27 348.42 154.9"/><polygon class="b" points="410.71 154.9 422.28 154.9 422.28 138.81 428.37 132.49 444.69 154.9 458.59 154.9 436.19 124.6 457.62 102.27 443.63 102.27 422.28 125.28 422.28 102.27 410.71 102.27 410.71 154.9"/><path class="b" d="M364.5,255.15c5.24,0,9-2.94,9-7.46v-.07c0-4-2.71-6.18-8.59-7.46s-7.16-2.64-7.16-5.12V235c0-2.37,2.18-4.26,5.61-4.26a11.58,11.58,0,0,1,7.61,2.86l1.73-2.3a13.76,13.76,0,0,0-9.27-3.24c-5,0-8.67,3.05-8.67,7.2v.07c0,4.33,2.79,6.29,8.85,7.61,5.54,1.17,6.86,2.56,6.86,5V248c0,2.6-2.34,4.48-5.88,4.48a12.56,12.56,0,0,1-9-3.73l-1.85,2.19a15.43,15.43,0,0,0,10.77,4.22m-34.05-.38H349.7v-2.71H333.42v-9.23h14.39v-2.71H333.42v-9h16.09V228.4H330.45Zm-15.49.45a13.73,13.73,0,0,0,10.55-4.63l-2-1.92c-2.52,2.41-4.9,3.81-8.51,3.81-5.8,0-10.21-4.79-10.21-10.89v-.08c0-6.07,4.37-10.81,10.21-10.81a11.46,11.46,0,0,1,8.29,3.62l2-2.18a13.73,13.73,0,0,0-10.29-4.18,13.29,13.29,0,0,0-13.34,13.64v.07c0,7.57,5.61,13.56,13.22,13.56m-41.63-.45h2.9V233.14l17,21.63h2.37V228.4h-2.9v21.14L276.12,228.4h-2.79Zm-24.56,0H268v-2.71H251.75v-9.23h14.39v-2.71H251.75v-9h16.09V228.4H248.77Zm-10.48,0h3V228.4h-3Zm-15.59.45a13.73,13.73,0,0,0,10.55-4.63l-2-1.92c-2.52,2.41-4.9,3.81-8.51,3.81-5.8,0-10.21-4.79-10.21-10.89v-.08c0-6.07,4.37-10.81,10.21-10.81a11.46,11.46,0,0,1,8.29,3.62l2-2.18a13.73,13.73,0,0,0-10.29-4.18,13.29,13.29,0,0,0-13.34,13.64v.07c0,7.57,5.61,13.56,13.22,13.56m-26.48-.07c5.24,0,9-2.94,9-7.46v-.07c0-4-2.71-6.18-8.59-7.46s-7.16-2.64-7.16-5.12V235c0-2.37,2.18-4.26,5.61-4.26a11.58,11.58,0,0,1,7.61,2.86l1.73-2.3a13.76,13.76,0,0,0-9.27-3.24c-5,0-8.67,3.05-8.67,7.2v.07c0,4.33,2.79,6.29,8.85,7.61,5.54,1.17,6.86,2.56,6.86,5V248c0,2.6-2.34,4.48-5.88,4.48a12.56,12.56,0,0,1-9-3.73l-1.85,2.19a15.43,15.43,0,0,0,10.77,4.22M149.39,252V231.15h6.18c6.67,0,10.93,4.6,10.93,10.44v.07c0,5.84-4.26,10.36-10.93,10.36Zm-3,2.75h9.15c8.29,0,14-5.76,14-13.19v-.08c0-7.42-5.73-13.11-14-13.11h-9.15Zm-24.57,0H141.1v-2.71H124.82v-9.23h14.39v-2.71H124.82v-9h16.09V228.4H121.85Zm-10.48,0h3V228.4h-3Zm-22.8,0h17.82V252H91.54V228.4h-3Zm-21.7-12v-11.6h6.67c4.26,0,7.08,2,7.08,5.73v.08c0,3.47-2.86,5.8-7.23,5.8Zm-3,12h3v-9.31h6.4c5.61,0,10.36-2.94,10.36-8.63v-.08c0-5.2-3.92-8.36-9.87-8.36H63.89Zm-21.7-12v-11.6h6.67c4.26,0,7.08,2,7.08,5.73v.08c0,3.47-2.86,5.8-7.23,5.8Zm-3,12h3v-9.31h6.4c5.61,0,10.36-2.94,10.36-8.63v-.08c0-5.2-3.92-8.36-9.87-8.36H39.21ZM15,245.12l6-13.45,6,13.45Zm-7.35,9.64h3.05l3.13-7H28.19l3.09,7h3.2l-12-26.56H19.67Z"/><path class="b" d="M435.86,209.56h3V198.07h14.28v-2.71H438.84v-9.42h16v-2.75h-19Zm-19.53-2.3c-6,0-10.4-4.9-10.4-10.89v-.08c0-6,4.29-10.81,10.32-10.81s10.4,4.9,10.4,10.89v.07c0,6-4.29,10.81-10.32,10.81m-.08,2.75a13.36,13.36,0,0,0,13.49-13.64v-.08a13.45,13.45,0,1,0-26.9.08v.07A13.24,13.24,0,0,0,416.26,210M374,209.56h3V199.09l11-15.9H384.5l-9,13.19-8.89-13.19H363l11,15.94Zm-26.43,0h3V185.94h8.85v-2.75H338.7v2.75h8.85Zm-16.79,0h3V183.19h-3Zm-15,.38c5.24,0,9-2.94,9-7.46v-.07c0-4-2.71-6.18-8.59-7.46S309,192.3,309,189.82v-.08c0-2.37,2.18-4.26,5.61-4.26a11.58,11.58,0,0,1,7.61,2.86l1.73-2.3a13.76,13.76,0,0,0-9.27-3.24c-5,0-8.67,3.05-8.67,7.2v.07c0,4.33,2.79,6.29,8.85,7.61,5.54,1.17,6.86,2.56,6.86,5v.07c0,2.6-2.34,4.48-5.88,4.48a12.56,12.56,0,0,1-9-3.73L305,205.72a15.43,15.43,0,0,0,10.77,4.22M283,196.64v-10.7h8.14c4.26,0,6.74,2,6.74,5.2v.07c0,3.39-2.82,5.43-6.78,5.43Zm-3,12.92h3V199.31h7.54l7.65,10.25h3.65l-8.1-10.77c4.14-.75,7.16-3.32,7.16-7.69V191a7.28,7.28,0,0,0-2-5.2,10.4,10.4,0,0,0-7.5-2.64H280Zm-24.56,0h19.25v-2.71H258.46v-9.23h14.39V194.9H258.46v-9h16.09v-2.71H255.49Zm-18.71.19h2.64l11.34-26.56h-3.2l-9.42,22.72-9.38-22.72h-3.32Zm-19.09-.19h3V183.19h-3Zm-29.87,0h2.9V187.93l17,21.63h2.37V183.19h-2.9v21.14L190.6,183.19h-2.79Zm-18.15.41c6.59,0,11-4,11-11.68V183.19h-3v15.33c0,5.76-3.09,8.7-7.95,8.7-5,0-8.06-3.2-8.06-8.89V183.19h-3v15.33c0,7.46,4.45,11.45,11,11.45m-39.9,0c6.59,0,11-4,11-11.68V183.19h-3v15.33c0,5.76-3.09,8.7-8,8.7-5,0-8.06-3.2-8.06-8.89V183.19h-3v15.33c0,7.46,4.45,11.45,11,11.45m-37.41-.41h3v-7.08l5.61-5.69,10.13,12.77h3.73L103,194.72l11.3-11.53h-3.84L95.33,198.94V183.19h-3ZM68.27,196.64v-10.7h8.14c4.26,0,6.74,2,6.74,5.2v.07c0,3.39-2.83,5.43-6.78,5.43Zm-3,12.92h3V199.31H75.8l7.65,10.25h3.65L79,198.78c4.15-.75,7.16-3.32,7.16-7.69V191a7.28,7.28,0,0,0-2-5.2,10.39,10.39,0,0,0-7.5-2.64H65.29ZM47.14,210c6.59,0,11-4,11-11.68V183.19h-3v15.33c0,5.76-3.09,8.7-7.95,8.7-5,0-8.06-3.2-8.06-8.89V183.19h-3v15.33c0,7.46,4.45,11.45,11,11.45m-27.52-.41h3V185.94h8.85v-2.75H10.76v2.75h8.85Z"/></svg>